SplineFontDB: 3.0
FontName: Gudea-Italic
FullName: Gudea Italic
FamilyName: Gudea
Weight: Book
Copyright: Copyright (c) 2012, Agustina Mingote (agustinamingote@gmail.com), with Reserved Font Names "Gudea"
Version: 1.002
ItalicAngle: 0
UnderlinePosition: -50
UnderlineWidth: 50
Ascent: 800
Descent: 200
sfntRevision: 0x00010083
LayerCount: 2
Layer: 0 1 "Back"  1
Layer: 1 1 "Fore"  0
XUID: [1021 759 1536797287 15032788]
FSType: 0
OS2Version: 2
OS2_WeightWidthSlopeOnly: 0
OS2_UseTypoMetrics: 1
CreationTime: 1325880160
ModificationTime: 1325881673
PfmFamily: 17
TTFWeight: 400
TTFWidth: 5
LineGap: 0
VLineGap: 0
Panose: 2 0 0 0 0 0 0 0 0 0
OS2TypoAscent: 172
OS2TypoAOffset: 1
OS2TypoDescent: -64
OS2TypoDOffset: 1
OS2TypoLinegap: 0
OS2WinAscent: 0
OS2WinAOffset: 1
OS2WinDescent: 25
OS2WinDOffset: 1
HheadAscent: 0
HheadAOffset: 1
HheadDescent: -25
HheadDOffset: 1
OS2SubXSize: 700
OS2SubYSize: 650
OS2SubXOff: 0
OS2SubYOff: 140
OS2SupXSize: 700
OS2SupYSize: 650
OS2SupXOff: 0
OS2SupYOff: 477
OS2StrikeYSize: 50
OS2StrikeYPos: 250
OS2Vendor: 'pyrs'
OS2CodePages: 20000001.00000000
OS2UnicodeRanges: 800000af.5000206a.00000000.00000000
Lookup: 258 0 0 "'kern' Horizontal Kerning in Latin lookup 0"  {"'kern' Horizontal Kerning in Latin lookup 0 subtable"  } ['kern' ('DFLT' <'dflt' > 'latn' <'dflt' > ) ]
DEI: 91125
TtTable: prep
PUSHW_1
 511
SCANCTRL
PUSHB_1
 4
SCANTYPE
EndTTInstrs
ShortTable: maxp 16
  1
  0
  291
  75
  7
  44
  4
  2
  0
  1
  1
  0
  64
  0
  2
  1
EndShort
LangName: 1033 "" "" "" "FONTLAB:OTFEXPORT" "" "Version 1.002" "" "Gudea is a trademark of Agustina Mingote." "Agustina Mingote" "Agustina Mingote" "" "" "" "This Font Software is licensed under the SIL Open Font License, Version 1.1. This license is available with a FAQ at: http://scripts.sil.org/OFL" "http://scripts.sil.org/OFL" 
GaspTable: 1 65535 15 1
Encoding: UnicodeBmp
UnicodeInterp: none
NameList: Adobe Glyph List
DisplaySize: -24
AntiAlias: 1
FitToEm: 1
BeginChars: 65539 291

StartChar: flecha0
Encoding: 12 12 3
Width: 417
GlyphClass: 2
Flags: W
LayerCount: 2
Fore
SplineSet
290 -62 m 1,0,-1
 37 274 l 1,1,-1
 384 608 l 1,2,-1
 290 -62 l 1,0,-1
EndSplineSet
EndChar

StartChar: exclam
Encoding: 33 33 5
Width: 240
GlyphClass: 2
Flags: W
LayerCount: 2
Fore
SplineSet
156 190 m 1,0,-1
 89 190 l 1,1,-1
 160 701 l 1,2,-1
 227 701 l 1,3,-1
 156 190 l 1,0,-1
128 0 m 1,4,-1
 61 0 l 1,5,-1
 74 93 l 1,6,-1
 141 93 l 1,7,-1
 128 0 l 1,4,-1
EndSplineSet
EndChar

StartChar: quotedbl
Encoding: 34 34 6
Width: 340
GlyphClass: 2
Flags: W
LayerCount: 2
Fore
SplineSet
311 442 m 1,0,-1
 243 442 l 1,1,-1
 280 701 l 1,2,-1
 348 701 l 1,3,-1
 311 442 l 1,0,-1
138 442 m 1,4,-1
 70 442 l 1,5,-1
 107 701 l 1,6,-1
 175 701 l 1,7,-1
 138 442 l 1,4,-1
EndSplineSet
EndChar

StartChar: numbersign
Encoding: 35 35 7
Width: 557
GlyphClass: 2
Flags: W
LayerCount: 2
Fore
SplineSet
569 465 m 1,0,-1
 475 465 l 1,1,-1
 428 256 l 1,2,-1
 516 256 l 1,3,-1
 507 191 l 1,4,-1
 412 191 l 1,5,-1
 368 0 l 1,6,-1
 300 0 l 1,7,-1
 345 191 l 1,8,-1
 202 191 l 1,9,-1
 157 0 l 1,10,-1
 88 0 l 1,11,-1
 133 191 l 1,12,-1
 29 191 l 1,13,-1
 38 256 l 1,14,-1
 148 256 l 1,15,-1
 197 465 l 1,16,-1
 90 465 l 1,17,-1
 99 530 l 1,18,-1
 211 530 l 1,19,-1
 251 700 l 1,20,-1
 319 700 l 1,21,-1
 279 530 l 1,22,-1
 422 530 l 1,23,-1
 463 700 l 1,24,-1
 530 700 l 1,25,-1
 492 530 l 1,26,-1
 578 530 l 1,27,-1
 569 465 l 1,0,-1
409 465 m 1,28,-1
 266 465 l 1,29,-1
 216 256 l 1,30,-1
 359 256 l 1,31,-1
 409 465 l 1,28,-1
EndSplineSet
EndChar

StartChar: dollar
Encoding: 36 36 8
Width: 457
GlyphClass: 2
Flags: W
LayerCount: 2
Fore
SplineSet
363 589 m 1,0,1
 315 602 315 602 274 602 c 128,-1,2
 233 602 233 602 205 572.5 c 128,-1,3
 177 543 177 543 177 501 c 128,-1,4
 177 459 177 459 201.5 435.5 c 128,-1,5
 226 412 226 412 260.5 397 c 128,-1,6
 295 382 295 382 329.5 365 c 128,-1,7
 364 348 364 348 388.5 318 c 128,-1,8
 413 288 413 288 413 244 c 0,9,10
 413 162 413 162 363.5 101.5 c 128,-1,11
 314 41 314 41 231 32 c 1,12,-1
 218 -60 l 1,13,-1
 159 -60 l 1,14,15
 171 29 171 29 172 30 c 1,16,17
 102 35 102 35 41 79 c 1,18,-1
 69 129 l 1,19,20
 135 92 135 92 198.5 92 c 128,-1,21
 262 92 262 92 303.5 126.5 c 128,-1,22
 345 161 345 161 345 221 c 0,23,24
 345 283 345 283 261 320 c 0,25,26
 226 336 226 336 190.5 353 c 128,-1,27
 155 370 155 370 130.5 401 c 128,-1,28
 106 432 106 432 106 477 c 0,29,30
 106 552 106 552 150.5 604.5 c 128,-1,31
 195 657 195 657 260 660 c 1,32,-1
 272 747 l 1,33,-1
 331 747 l 1,34,-1
 319 660 l 1,35,36
 370 654 370 654 428 633 c 1,37,-1
 407 573 l 1,38,39
 0 0 0 0 363 589 c 1,0,1
EndSplineSet
EndChar

StartChar: percent
Encoding: 37 37 9
Width: 663
GlyphClass: 2
Flags: W
LayerCount: 2
Fore
SplineSet
609 688 m 1,0,-1
 145 1 l 1,1,-1
 75 1 l 1,2,-1
 539 688 l 1,3,-1
 609 688 l 1,0,-1
472 44 m 0,4,5
 514 44 514 44 535.5 94 c 128,-1,6
 557 144 557 144 557 206 c 0,7,8
 557 286 557 286 507 286 c 1,9,10
 476 283 476 283 456 252 c 0,11,12
 423 202 423 202 423 123 c 128,-1,13
 423 44 423 44 472 44 c 0,4,5
513 336 m 0,14,15
 612 336 612 336 612 214 c 0,16,17
 612 118 612 118 575.5 56 c 128,-1,18
 539 -6 539 -6 463 -6 c 0,19,20
 368 -6 368 -6 368 114 c 0,21,22
 368 237 368 237 428 300 c 0,23,24
 463 336 463 336 513 336 c 0,14,15
225 646 m 0,25,26
 201 646 201 646 183 628 c 128,-1,27
 165 610 165 610 156 582 c 0,28,29
 141 531 141 531 141 481 c 0,30,31
 141 404 141 404 190 404 c 0,32,33
 214 404 214 404 232 421.5 c 128,-1,34
 250 439 250 439 258 466 c 0,35,36
 275 520 275 520 275 565 c 0,37,38
 275 646 275 646 225 646 c 0,25,26
231 696 m 0,39,40
 330 696 330 696 330 574 c 0,41,42
 330 482 330 482 294 418 c 128,-1,43
 258 354 258 354 181 354 c 0,44,45
 86 354 86 354 86 474 c 0,46,47
 86 597 86 597 146 660 c 0,48,49
 181 696 181 696 231 696 c 0,39,40
EndSplineSet
EndChar

StartChar: ampersand
Encoding: 38 38 10
Width: 680
GlyphClass: 2
Flags: W
LayerCount: 2
Fore
SplineSet
238 -7 m 0,0,1
 145 -7 145 -7 96 37 c 128,-1,2
 47 81 47 81 47 158.5 c 128,-1,3
 47 236 47 236 89 286 c 128,-1,4
 131 336 131 336 217 374 c 1,5,6
 173 421 173 421 152 455 c 128,-1,7
 131 489 131 489 131 523 c 0,8,9
 131 609 131 609 188.5 659.5 c 128,-1,10
 246 710 246 710 324.5 710 c 128,-1,11
 403 710 403 710 442 673.5 c 128,-1,12
 481 637 481 637 481 572.5 c 128,-1,13
 481 508 481 508 442.5 460.5 c 128,-1,14
 404 413 404 413 319 365 c 1,15,-1
 448 201 l 1,16,17
 485 264 485 264 500 361 c 1,18,-1
 565 361 l 1,19,20
 542 246 542 246 517 195 c 0,21,22
 508 177 508 177 491 147 c 1,23,-1
 600 1 l 1,24,-1
 510 1 l 1,25,-1
 448 90 l 1,26,27
 412 49 412 49 353.5 21 c 128,-1,28
 295 -7 295 -7 238 -7 c 0,0,1
119 166 m 0,29,30
 119 117 119 117 153 87.5 c 128,-1,31
 187 58 187 58 240.5 58 c 128,-1,32
 294 58 294 58 341.5 82.5 c 128,-1,33
 389 107 389 107 413 138 c 1,34,-1
 257 334 l 1,35,36
 119 269 119 269 119 166 c 0,29,30
385.5 626 m 128,-1,38
 360 645 360 645 317.5 645 c 128,-1,39
 275 645 275 645 240.5 616 c 128,-1,40
 206 587 206 587 206 540 c 0,41,42
 206 511 206 511 219 491 c 128,-1,43
 232 471 232 471 237 464 c 128,-1,44
 242 457 242 457 259.5 435.5 c 128,-1,45
 277 414 277 414 281 409 c 1,46,47
 411 479 411 479 411 570 c 0,48,37
 411 607 411 607 385.5 626 c 128,-1,38
EndSplineSet
EndChar

StartChar: quotesingle
Encoding: 39 39 11
Width: 167
GlyphClass: 2
Flags: W
LayerCount: 2
Fore
SplineSet
133 367 m 1,0,-1
 66 367 l 1,1,-1
 103 626 l 1,2,-1
 170 626 l 1,3,-1
 133 367 l 1,0,-1
EndSplineSet
EndChar

StartChar: parenleft
Encoding: 40 40 12
Width: 254
GlyphClass: 2
Flags: W
LayerCount: 2
Fore
SplineSet
150 179 m 0,0,1
 150 29 150 29 200 -118 c 1,2,-1
 136 -130 l 1,3,4
 81 13 81 13 81 175 c 0,5,6
 81 485 81 485 266 764 c 1,7,-1
 324 751 l 1,8,9
 150 474 150 474 150 179 c 0,0,1
EndSplineSet
EndChar

StartChar: parenright
Encoding: 41 41 13
Width: 253
GlyphClass: 2
Flags: W
LayerCount: 2
Fore
SplineSet
152 455 m 0,0,1
 152 605 152 605 102 752 c 1,2,-1
 166 764 l 1,3,4
 221 621 221 621 221 459 c 0,5,6
 221 149 221 149 36 -130 c 1,7,-1
 -22 -117 l 1,8,9
 152 160 152 160 152 455 c 0,0,1
EndSplineSet
EndChar

StartChar: asterisk
Encoding: 42 42 14
Width: 387
GlyphClass: 2
Flags: W
LayerCount: 2
Fore
SplineSet
375 490 m 1,0,-1
 339 432 l 1,1,-1
 243 513 l 1,2,-1
 235 370 l 1,3,-1
 176 370 l 1,4,-1
 205 513 l 1,5,-1
 87 432 l 1,6,-1
 66 485 l 1,7,-1
 192 548 l 1,8,-1
 85 611 l 1,9,-1
 124 666 l 1,10,-1
 215 584 l 1,11,-1
 226 727 l 1,12,-1
 285 727 l 1,13,-1
 253 584 l 1,14,-1
 371 665 l 1,15,-1
 391 608 l 1,16,-1
 266 550 l 1,17,-1
 375 490 l 1,0,-1
EndSplineSet
EndChar

StartChar: plus
Encoding: 43 43 15
Width: 422
GlyphClass: 2
Flags: W
LayerCount: 2
Fore
SplineSet
411 262 m 1,0,-1
 256 262 l 1,1,-1
 229 69 l 1,2,-1
 161 69 l 1,3,-1
 188 262 l 1,4,-1
 41 262 l 1,5,-1
 51 327 l 1,6,-1
 198 327 l 1,7,-1
 226 527 l 1,8,-1
 294 527 l 1,9,-1
 266 327 l 1,10,-1
 421 327 l 1,11,-1
 411 262 l 1,0,-1
EndSplineSet
EndChar

StartChar: comma
Encoding: 44 44 16
Width: 219
GlyphClass: 2
Flags: W
LayerCount: 2
Fore
SplineSet
182 87 m 1,0,-1
 43 -172 l 1,1,-1
 2 -156 l 1,2,-1
 117 111 l 1,3,-1
 182 87 l 1,0,-1
EndSplineSet
EndChar

StartChar: hyphen
Encoding: 45 45 17
Width: 259
GlyphClass: 2
Flags: W
LayerCount: 2
Fore
SplineSet
230 254 m 1,0,-1
 59 254 l 1,1,-1
 69 329 l 1,2,-1
 240 329 l 1,3,-1
 230 254 l 1,0,-1
EndSplineSet
EndChar

StartChar: period
Encoding: 46 46 18
Width: 165
GlyphClass: 2
Flags: W
LayerCount: 2
Fore
SplineSet
112 0 m 1,0,-1
 45 0 l 1,1,-1
 60 106 l 1,2,-1
 127 106 l 1,3,-1
 112 0 l 1,0,-1
EndSplineSet
EndChar

StartChar: slash
Encoding: 47 47 19
Width: 442
GlyphClass: 2
Flags: W
LayerCount: 2
Fore
SplineSet
495 800 m 1,0,-1
 70 -145 l 1,1,-1
 -1 -145 l 1,2,-1
 424 800 l 1,3,-1
 495 800 l 1,0,-1
EndSplineSet
EndChar

StartChar: zero
Encoding: 48 48 20
Width: 522
GlyphClass: 2
Flags: W
LayerCount: 2
Fore
SplineSet
512 482 m 0,0,1
 512 391 512 391 498 308.5 c 128,-1,2
 484 226 484 226 463.5 177 c 128,-1,3
 443 128 443 128 413.5 85.5 c 128,-1,4
 384 43 384 43 336.5 18.5 c 128,-1,5
 289 -6 289 -6 230 -6 c 0,6,7
 59 -6 59 -6 59 223 c 0,8,9
 59 353 59 353 82 443 c 128,-1,10
 105 533 105 533 134 585.5 c 128,-1,11
 163 638 163 638 216.5 674 c 128,-1,12
 270 710 270 710 341 710 c 0,13,14
 512 710 512 710 512 482 c 0,0,1
245 59 m 0,15,16
 286 59 286 59 320 86.5 c 128,-1,17
 354 114 354 114 375.5 157 c 128,-1,18
 397 200 397 200 412 255 c 0,19,20
 439 354 439 354 439 465 c 0,21,22
 439 645 439 645 327 645 c 0,23,24
 277 645 277 645 237.5 604.5 c 128,-1,25
 198 564 198 564 176 500 c 0,26,27
 132 374 132 374 132 240 c 0,28,29
 132 59 132 59 245 59 c 0,15,16
EndSplineSet
EndChar

StartChar: one
Encoding: 49 49 21
Width: 467
GlyphClass: 2
Flags: W
LayerCount: 2
Fore
SplineSet
12 0 m 1,0,-1
 21 65 l 1,1,-1
 197 65 l 1,2,-1
 276 626 l 1,3,-1
 105 515 l 1,4,-1
 80 571 l 1,5,-1
 286 700 l 1,6,-1
 353 700 l 1,7,-1
 264 65 l 1,8,-1
 402 65 l 1,9,-1
 393 0 l 1,10,-1
 12 0 l 1,0,-1
EndSplineSet
EndChar

StartChar: two
Encoding: 50 50 22
Width: 472
GlyphClass: 2
Flags: W
LayerCount: 2
Fore
SplineSet
392 555 m 0,0,1
 392 645 392 645 288 645 c 0,2,3
 224 645 224 645 138 624 c 1,4,-1
 133 682 l 1,5,6
 206 710 206 710 293 710 c 128,-1,7
 380 710 380 710 423.5 673.5 c 128,-1,8
 467 637 467 637 467 572 c 0,9,10
 467 487 467 487 410 390 c 0,11,12
 369 320 369 320 250 196 c 0,13,14
 212 157 212 157 120 65 c 1,15,-1
 407 65 l 1,16,-1
 397 0 l 1,17,-1
 27 0 l 1,18,-1
 37 72 l 1,19,20
 65 101 65 101 114 151 c 128,-1,21
 163 201 163 201 185.5 224.5 c 128,-1,22
 208 248 208 248 244.5 287 c 128,-1,23
 281 326 281 326 297.5 347.5 c 128,-1,24
 314 369 314 369 336.5 400.5 c 128,-1,25
 359 432 359 432 368 454 c 0,26,27
 392 510 392 510 392 555 c 0,0,1
EndSplineSet
EndChar

StartChar: three
Encoding: 51 51 23
Width: 475
GlyphClass: 2
Flags: W
LayerCount: 2
Fore
SplineSet
238 391 m 2,0,1
 300 391 300 391 342 437.5 c 128,-1,2
 384 484 384 484 384 554 c 0,3,4
 384 645 384 645 283 645 c 0,5,6
 253 645 253 645 215.5 634.5 c 128,-1,7
 178 624 178 624 133 604 c 1,8,-1
 128 662 l 1,9,10
 206 710 206 710 290.5 710 c 128,-1,11
 375 710 375 710 416.5 672 c 128,-1,12
 458 634 458 634 458 562 c 128,-1,13
 458 490 458 490 419 431.5 c 128,-1,14
 380 373 380 373 310 359 c 1,15,16
 365 354 365 354 398 319 c 128,-1,17
 431 284 431 284 431 224 c 0,18,19
 431 121 431 121 365.5 57.5 c 128,-1,20
 300 -6 300 -6 182 -6 c 0,21,22
 138 -6 138 -6 99 6 c 128,-1,23
 60 18 60 18 42 30 c 2,24,-1
 25 41 l 1,25,-1
 55 97 l 1,26,27
 124 59 124 59 195.5 59 c 128,-1,28
 267 59 267 59 311.5 101 c 128,-1,29
 356 143 356 143 356 204 c 0,30,31
 356 326 356 326 229 326 c 2,32,-1
 144 326 l 1,33,-1
 153 391 l 1,34,-1
 238 391 l 2,0,1
EndSplineSet
EndChar

StartChar: four
Encoding: 52 52 24
Width: 486
GlyphClass: 2
Flags: W
LayerCount: 2
Fore
SplineSet
273 0 m 1,0,-1
 291 131 l 1,1,-1
 7 131 l 1,2,-1
 14 180 l 1,3,-1
 279 700 l 1,4,-1
 351 700 l 1,5,-1
 94 196 l 1,6,-1
 300 196 l 1,7,-1
 327 382 l 1,8,-1
 392 382 l 1,9,-1
 365 196 l 1,10,-1
 439 196 l 1,11,-1
 430 131 l 1,12,-1
 356 131 l 1,13,-1
 338 0 l 1,14,-1
 273 0 l 1,0,-1
EndSplineSet
EndChar

StartChar: five
Encoding: 53 53 25
Width: 503
GlyphClass: 2
Flags: W
LayerCount: 2
Fore
SplineSet
67 100 m 1,0,1
 143 60 143 60 218.5 60 c 128,-1,2
 294 60 294 60 341.5 114 c 128,-1,3
 389 168 389 168 389 246 c 0,4,5
 389 360 389 360 235 360 c 1,6,-1
 116 361 l 1,7,-1
 185 700 l 1,8,-1
 506 700 l 1,9,-1
 493 635 l 1,10,-1
 234 635 l 1,11,-1
 195 424 l 1,12,13
 223 425 223 425 251 425 c 0,14,15
 349 425 349 425 406 382.5 c 128,-1,16
 463 340 463 340 463 262 c 0,17,18
 463 150 463 150 394 72 c 128,-1,19
 325 -6 325 -6 206 -6 c 0,20,21
 162 -6 162 -6 120 7 c 128,-1,22
 78 20 78 20 58 34 c 2,23,-1
 39 47 l 1,24,-1
 67 100 l 1,0,1
EndSplineSet
EndChar

StartChar: six
Encoding: 54 54 26
Width: 518
GlyphClass: 2
Flags: W
LayerCount: 2
Fore
SplineSet
163 386 m 1,0,1
 244 423 244 423 318 423 c 128,-1,2
 392 423 392 423 437.5 382.5 c 128,-1,3
 483 342 483 342 483 264 c 0,4,5
 483 149 483 149 419 71.5 c 128,-1,6
 355 -6 355 -6 247 -6 c 0,7,8
 69 -6 69 -6 69 208 c 0,9,10
 69 400 69 400 140 548 c 0,11,12
 176 622 176 622 237.5 666 c 128,-1,13
 299 710 299 710 379 710 c 0,14,15
 414 710 414 710 447 702 c 128,-1,16
 480 694 480 694 510 677 c 1,17,-1
 485 617 l 1,18,19
 426 644 426 644 361 644 c 0,20,21
 215 644 215 644 163 386 c 1,0,1
261 59 m 0,22,23
 308 59 308 59 343 90 c 0,24,25
 410 149 410 149 410 248 c 0,26,27
 410 358 410 358 295 358 c 0,28,29
 227 358 227 358 150 311 c 1,30,31
 143 263 143 263 143 218 c 0,32,33
 143 59 143 59 261 59 c 0,22,23
EndSplineSet
EndChar

StartChar: seven
Encoding: 55 55 27
Width: 456
GlyphClass: 2
Flags: W
LayerCount: 2
Fore
SplineSet
87 625 m 1,0,-1
 97 700 l 1,1,-1
 502 700 l 1,2,-1
 492 625 l 1,3,-1
 130 0 l 1,4,-1
 51 0 l 1,5,-1
 412 625 l 1,6,-1
 87 625 l 1,0,-1
EndSplineSet
EndChar

StartChar: eight
Encoding: 56 56 28
Width: 518
GlyphClass: 2
Flags: W
LayerCount: 2
Fore
SplineSet
467.5 669.5 m 128,-1,1
 511 629 511 629 511 567.5 c 128,-1,2
 511 506 511 506 476.5 446 c 128,-1,3
 442 386 442 386 387 344 c 1,4,5
 478 290 478 290 478 217 c 0,6,7
 478 117 478 117 407 55.5 c 128,-1,8
 336 -6 336 -6 237 -6 c 128,-1,9
 138 -6 138 -6 94 38.5 c 128,-1,10
 50 83 50 83 50 151 c 128,-1,11
 50 219 50 219 89.5 273.5 c 128,-1,12
 129 328 129 328 195 364 c 1,13,14
 118 412 118 412 118 490 c 0,15,16
 118 586 118 586 181.5 648 c 128,-1,17
 245 710 245 710 346 710 c 0,18,0
 424 710 424 710 467.5 669.5 c 128,-1,1
152 87 m 128,-1,20
 182 57 182 57 243.5 57 c 128,-1,21
 305 57 305 57 354.5 97 c 128,-1,22
 404 137 404 137 404 199 c 0,23,24
 404 244 404 244 367.5 271.5 c 128,-1,25
 331 299 331 299 253 332 c 1,26,27
 199 307 199 307 160.5 263.5 c 128,-1,28
 122 220 122 220 122 168.5 c 128,-1,19
 122 117 122 117 152 87 c 128,-1,20
406.5 451.5 m 128,-1,30
 437 497 437 497 437 544 c 128,-1,31
 437 591 437 591 409.5 618 c 128,-1,32
 382 645 382 645 330 645 c 128,-1,33
 278 645 278 645 234 608 c 128,-1,34
 190 571 190 571 190 518.5 c 128,-1,35
 190 466 190 466 234.5 429 c 128,-1,36
 279 392 279 392 332 374 c 1,37,29
 376 406 376 406 406.5 451.5 c 128,-1,30
EndSplineSet
EndChar

StartChar: nine
Encoding: 57 57 29
Width: 501
GlyphClass: 2
Flags: W
LayerCount: 2
Fore
SplineSet
401 318 m 1,0,1
 333 281 333 281 254 281 c 128,-1,2
 175 281 175 281 131 321.5 c 128,-1,3
 87 362 87 362 87 439 c 0,4,5
 87 555 87 555 149.5 632.5 c 128,-1,6
 212 710 212 710 319 710 c 0,7,8
 409 710 409 710 452 653.5 c 128,-1,9
 495 597 495 597 495 502 c 128,-1,10
 495 407 495 407 478.5 322 c 128,-1,11
 462 237 462 237 427.5 161 c 128,-1,12
 393 85 393 85 331 39.5 c 128,-1,13
 269 -6 269 -6 187 -6 c 0,14,15
 152 -6 152 -6 119 2 c 128,-1,16
 86 10 86 10 56 27 c 1,17,-1
 80 87 l 1,18,19
 139 60 139 60 204 60 c 0,20,21
 351 60 351 60 401 318 c 1,0,1
304 645 m 0,22,23
 241 645 241 645 201 587.5 c 128,-1,24
 161 530 161 530 161 454 c 0,25,26
 161 346 161 346 270 346 c 0,27,28
 336 346 336 346 415 392 c 1,29,-1
 415 396 l 1,30,31
 422 442 422 442 422 487 c 0,32,33
 422 645 422 645 304 645 c 0,22,23
EndSplineSet
EndChar

StartChar: colon
Encoding: 58 58 30
Width: 195
GlyphClass: 2
Flags: W
LayerCount: 2
Fore
SplineSet
113 0 m 1,0,-1
 46 0 l 1,1,-1
 61 106 l 1,2,-1
 128 106 l 1,3,-1
 113 0 l 1,0,-1
168 394 m 1,4,-1
 101 394 l 1,5,-1
 116 500 l 1,6,-1
 183 500 l 1,7,-1
 168 394 l 1,4,-1
EndSplineSet
EndChar

StartChar: semicolon
Encoding: 59 59 31
Width: 249
GlyphClass: 2
Flags: W
LayerCount: 2
Fore
SplineSet
228 394 m 1,0,-1
 160 394 l 1,1,-1
 175 500 l 1,2,-1
 243 500 l 1,3,-1
 228 394 l 1,0,-1
185 89 m 1,4,-1
 47 -170 l 1,5,-1
 5 -154 l 1,6,-1
 124 113 l 1,7,-1
 185 89 l 1,4,-1
EndSplineSet
EndChar

StartChar: less
Encoding: 60 60 32
Width: 475
GlyphClass: 2
Flags: W
LayerCount: 2
Fore
SplineSet
392 45 m 1,0,-1
 71 269 l 1,1,-1
 79 326 l 1,2,-1
 463 551 l 1,3,-1
 452 471 l 1,4,-1
 140 298 l 1,5,-1
 403 123 l 1,6,-1
 392 45 l 1,0,-1
EndSplineSet
EndChar

StartChar: equal
Encoding: 61 61 33
Width: 522
GlyphClass: 2
Flags: W
LayerCount: 2
Fore
SplineSet
484 361 m 1,0,-1
 97 361 l 1,1,-1
 106 426 l 1,2,-1
 493 426 l 1,3,-1
 484 361 l 1,0,-1
456 163 m 1,4,-1
 69 163 l 1,5,-1
 78 228 l 1,6,-1
 465 228 l 1,7,-1
 456 163 l 1,4,-1
EndSplineSet
EndChar

StartChar: greater
Encoding: 62 62 34
Width: 475
GlyphClass: 2
Flags: W
LayerCount: 2
Fore
SplineSet
437 270 m 1,0,-1
 53 46 l 1,1,-1
 64 123 l 1,2,-1
 375 298 l 1,3,-1
 113 471 l 1,4,-1
 124 551 l 1,5,-1
 444 326 l 1,6,-1
 437 270 l 1,0,-1
EndSplineSet
EndChar

StartChar: question
Encoding: 63 63 35
Width: 417
GlyphClass: 2
Flags: W
LayerCount: 2
Fore
SplineSet
381 676 m 128,-1,1
 418 642 418 642 418 589.5 c 128,-1,2
 418 537 418 537 400 500 c 128,-1,3
 382 463 382 463 355.5 436.5 c 128,-1,4
 329 410 329 410 302 384 c 0,5,6
 233 321 233 321 224 257 c 2,7,-1
 215 194 l 1,8,-1
 149 194 l 1,9,-1
 157 252 l 1,10,11
 170 338 170 338 234 398 c 0,12,13
 260 423 260 423 285 447 c 0,14,15
 344 504 344 504 344 570 c 0,16,17
 344 644 344 644 256 644 c 0,18,19
 197 644 197 644 144 625 c 1,20,-1
 142 683 l 1,21,22
 218 710 218 710 281 710 c 128,-1,0
 344 710 344 710 381 676 c 128,-1,1
187 0 m 1,23,-1
 120 0 l 1,24,-1
 133 98 l 1,25,-1
 200 98 l 1,26,-1
 187 0 l 1,23,-1
EndSplineSet
EndChar

StartChar: at
Encoding: 64 64 36
Width: 817
GlyphClass: 2
Flags: W
LayerCount: 2
Fore
SplineSet
474 451 m 0,0,1
 426 451 426 451 386 405.5 c 128,-1,2
 346 360 346 360 326.5 302.5 c 128,-1,3
 307 245 307 245 307 197 c 0,4,5
 307 135 307 135 358 135 c 0,6,7
 389 135 389 135 414 152 c 128,-1,8
 439 169 439 169 486 216 c 1,9,-1
 547 409 l 1,10,11
 523 442 523 442 499 448 c 0,12,13
 488 451 488 451 474 451 c 0,0,1
338 76 m 0,14,15
 294 76 294 76 272 105 c 128,-1,16
 250 134 250 134 250 193 c 128,-1,17
 250 252 250 252 274.5 326 c 128,-1,18
 299 400 299 400 353.5 457.5 c 128,-1,19
 408 515 408 515 478 515 c 0,20,21
 512 515 512 515 528 504.5 c 128,-1,22
 544 494 544 494 550 489 c 128,-1,23
 556 484 556 484 563.5 475 c 128,-1,24
 571 466 571 466 573 464 c 1,25,-1
 593 504 l 1,26,-1
 634 504 l 1,27,-1
 517 135 l 1,28,29
 570 136 570 136 611.5 164 c 128,-1,30
 653 192 653 192 676 237 c 0,31,32
 723 326 723 326 723 432 c 0,33,34
 723 644 723 644 498 644 c 0,35,36
 332 644 332 644 236.5 510 c 128,-1,37
 141 376 141 376 141 162 c 0,38,39
 141 49 141 49 187 -4 c 128,-1,40
 233 -57 233 -57 333 -57 c 2,41,-1
 489 -57 l 1,42,-1
 483 -111 l 1,43,44
 405 -119 405 -119 320 -119 c 0,45,46
 71 -119 71 -119 71 145 c 0,47,48
 71 327 71 327 135 464 c 0,49,50
 169 537 169 537 218.5 591 c 128,-1,51
 268 645 268 645 342.5 677 c 128,-1,52
 417 709 417 709 508 709 c 0,53,54
 787 709 787 709 787 447 c 0,55,56
 787 283 787 283 711 181 c 128,-1,57
 635 79 635 79 508 79 c 0,58,59
 484 79 484 79 472 81 c 1,60,-1
 474 147 l 1,61,62
 403 76 403 76 338 76 c 0,14,15
EndSplineSet
EndChar

StartChar: A
Encoding: 65 65 37
Width: 521
GlyphClass: 2
Flags: W
LayerCount: 2
Fore
SplineSet
484 0 m 1,0,-1
 409 0 l 1,1,-1
 377 221 l 1,2,-1
 151 221 l 1,3,-1
 58 0 l 1,4,-1
 -12 0 l 1,5,-1
 292 700 l 1,6,-1
 374 700 l 1,7,-1
 484 0 l 1,0,-1
370 286 m 1,8,-1
 322 624 l 1,9,-1
 177 286 l 1,10,-1
 370 286 l 1,8,-1
EndSplineSet
EndChar

StartChar: B
Encoding: 66 66 38
Width: 528
GlyphClass: 2
Flags: W
LayerCount: 2
Fore
SplineSet
335 700 m 2,0,1
 420 700 420 700 462.5 663 c 128,-1,2
 505 626 505 626 505 557.5 c 128,-1,3
 505 489 505 489 465 437.5 c 128,-1,4
 425 386 425 386 365 379 c 1,5,6
 423 372 423 372 454.5 332.5 c 128,-1,7
 486 293 486 293 486 236 c 0,8,9
 486 133 486 133 417.5 66.5 c 128,-1,10
 349 0 349 0 231 0 c 2,11,-1
 57 0 l 1,12,-1
 155 700 l 1,13,-1
 335 700 l 2,0,1
261 65 m 2,14,15
 326 65 326 65 370.5 113 c 128,-1,16
 415 161 415 161 415 219.5 c 128,-1,17
 415 278 415 278 381.5 310.5 c 128,-1,18
 348 343 348 343 281 343 c 2,19,-1
 175 343 l 1,20,-1
 136 65 l 1,21,-1
 261 65 l 2,14,15
290 407 m 2,22,23
 348 407 348 407 391 446 c 128,-1,24
 434 485 434 485 434 545 c 0,25,26
 434 635 434 635 331 635 c 2,27,-1
 216 635 l 1,28,-1
 184 407 l 1,29,-1
 290 407 l 2,22,23
EndSplineSet
EndChar

StartChar: C
Encoding: 67 67 39
Width: 526
GlyphClass: 2
Flags: W
LayerCount: 2
Fore
SplineSet
286 -6 m 0,0,1
 176 -6 176 -6 119 65 c 128,-1,2
 62 136 62 136 62 262 c 0,3,4
 62 453 62 453 152.5 581 c 128,-1,5
 243 709 243 709 395 709 c 0,6,7
 467 709 467 709 533 680 c 1,8,-1
 509 618 l 1,9,10
 457 644 457 644 393.5 644 c 128,-1,11
 330 644 330 644 287 619.5 c 128,-1,12
 244 595 244 595 217 556.5 c 128,-1,13
 190 518 190 518 172 468 c 0,14,15
 138 377 138 377 138 276 c 128,-1,16
 138 175 138 175 177.5 117 c 128,-1,17
 217 59 217 59 296.5 59 c 128,-1,18
 376 59 376 59 452 103 c 1,19,-1
 462 46 l 1,20,21
 376 -6 376 -6 286 -6 c 0,0,1
EndSplineSet
EndChar

StartChar: D
Encoding: 68 68 40
Width: 583
GlyphClass: 2
Flags: W
LayerCount: 2
Fore
SplineSet
570 434 m 0,0,1
 570 355 570 355 543.5 278 c 128,-1,2
 517 201 517 201 469.5 139 c 128,-1,3
 422 77 422 77 348.5 38.5 c 128,-1,4
 275 0 275 0 189 0 c 2,5,-1
 57 0 l 1,6,-1
 155 700 l 1,7,-1
 315 700 l 2,8,9
 434 700 434 700 502 627 c 128,-1,10
 570 554 570 554 570 434 c 0,0,1
206 65 m 2,11,12
 290 65 290 65 357.5 122.5 c 128,-1,13
 425 180 425 180 458.5 262.5 c 128,-1,14
 492 345 492 345 492 436 c 128,-1,15
 492 527 492 527 439.5 581 c 128,-1,16
 387 635 387 635 309 635 c 2,17,-1
 219 635 l 1,18,-1
 139 65 l 1,19,-1
 206 65 l 2,11,12
EndSplineSet
EndChar

StartChar: E
Encoding: 69 69 41
Width: 488
GlyphClass: 2
Flags: W
LayerCount: 2
Fore
SplineSet
396 0 m 1,0,-1
 57 0 l 1,1,-1
 155 700 l 1,2,-1
 494 700 l 1,3,-1
 485 635 l 1,4,-1
 213 635 l 1,5,-1
 182 413 l 1,6,-1
 432 413 l 1,7,-1
 423 346 l 1,8,-1
 173 346 l 1,9,-1
 133 65 l 1,10,-1
 405 65 l 1,11,-1
 396 0 l 1,0,-1
EndSplineSet
EndChar

StartChar: F
Encoding: 70 70 42
Width: 459
GlyphClass: 2
Flags: W
LayerCount: 2
Fore
SplineSet
495 700 m 1,0,-1
 486 635 l 1,1,-1
 213 635 l 1,2,-1
 182 413 l 1,3,-1
 433 413 l 1,4,-1
 424 346 l 1,5,-1
 173 346 l 1,6,-1
 124 0 l 1,7,-1
 57 0 l 1,8,-1
 155 700 l 1,9,-1
 495 700 l 1,0,-1
EndSplineSet
EndChar

StartChar: G
Encoding: 71 71 43
Width: 582
GlyphClass: 2
Flags: W
LayerCount: 2
Fore
SplineSet
300 -6 m 0,0,1
 186 -6 186 -6 123 68.5 c 128,-1,2
 60 143 60 143 60 273 c 0,3,4
 60 441 60 441 142 571 c 0,5,6
 181 634 181 634 246.5 672 c 128,-1,7
 312 710 312 710 394 710 c 128,-1,8
 476 710 476 710 555 674 c 1,9,-1
 531 612 l 1,10,11
 502 626 502 626 454 635.5 c 128,-1,12
 406 645 406 645 378 645 c 0,13,14
 316 645 316 645 267 610 c 128,-1,15
 218 575 218 575 190 520 c 0,16,17
 135 409 135 409 135 298 c 128,-1,18
 135 187 135 187 179.5 123 c 128,-1,19
 224 59 224 59 293.5 59 c 128,-1,20
 363 59 363 59 423 84 c 1,21,-1
 453 290 l 1,22,-1
 321 290 l 1,23,-1
 330 355 l 1,24,-1
 529 355 l 1,25,-1
 486 48 l 1,26,27
 394 -6 394 -6 300 -6 c 0,0,1
EndSplineSet
EndChar

StartChar: H
Encoding: 72 72 44
Width: 598
GlyphClass: 2
Flags: W
LayerCount: 2
Fore
SplineSet
491 0 m 1,0,-1
 423 0 l 1,1,-1
 469 331 l 1,2,-1
 171 331 l 1,3,-1
 125 0 l 1,4,-1
 57 0 l 1,5,-1
 155 700 l 1,6,-1
 223 700 l 1,7,-1
 181 396 l 1,8,-1
 479 396 l 1,9,-1
 521 700 l 1,10,-1
 589 700 l 1,11,-1
 491 0 l 1,0,-1
EndSplineSet
EndChar

StartChar: I
Encoding: 73 73 45
Width: 231
GlyphClass: 2
Flags: W
LayerCount: 2
Fore
SplineSet
124 0 m 1,0,-1
 57 0 l 1,1,-1
 155 700 l 1,2,-1
 222 700 l 1,3,-1
 124 0 l 1,0,-1
EndSplineSet
EndChar

StartChar: J
Encoding: 74 74 46
Width: 308
GlyphClass: 2
Flags: W
LayerCount: 2
Fore
SplineSet
65 -7 m 0,0,1
 17 -7 17 -7 -22 4 c 1,2,-1
 -13 67 l 1,3,4
 29 58 29 58 64 58 c 0,5,6
 143 58 143 58 166 228 c 2,7,-1
 224 641 l 1,8,-1
 93 641 l 1,9,-1
 102 700 l 1,10,-1
 300 700 l 1,11,-1
 231 211 l 2,12,13
 200 -7 200 -7 65 -7 c 0,0,1
EndSplineSet
EndChar

StartChar: K
Encoding: 75 75 47
Width: 516
GlyphClass: 2
Flags: W
LayerCount: 2
Fore
SplineSet
475 0 m 1,0,-1
 390 0 l 1,1,-1
 260 383 l 1,2,-1
 165 288 l 1,3,-1
 125 0 l 1,4,-1
 57 0 l 1,5,-1
 155 700 l 1,6,-1
 222 700 l 1,7,-1
 178 384 l 1,8,-1
 485 700 l 1,9,-1
 567 700 l 1,10,-1
 313 434 l 1,11,-1
 475 0 l 1,0,-1
EndSplineSet
EndChar

StartChar: L
Encoding: 76 76 48
Width: 426
GlyphClass: 2
Flags: W
LayerCount: 2
Fore
SplineSet
394 0 m 1,0,-1
 57 0 l 1,1,-1
 155 700 l 1,2,-1
 222 700 l 1,3,-1
 133 65 l 1,4,-1
 403 65 l 1,5,-1
 394 0 l 1,0,-1
EndSplineSet
EndChar

StartChar: M
Encoding: 77 77 49
Width: 663
GlyphClass: 2
Flags: W
LayerCount: 2
Fore
SplineSet
588 0 m 1,0,-1
 520 0 l 1,1,-1
 601 574 l 1,2,-1
 344 184 l 1,3,-1
 320 185 l 1,4,-1
 172 573 l 1,5,-1
 92 0 l 1,6,-1
 25 0 l 1,7,-1
 123 700 l 1,8,-1
 199 700 l 1,9,-1
 351 315 l 1,10,-1
 618 700 l 1,11,-1
 686 700 l 1,12,-1
 588 0 l 1,0,-1
EndSplineSet
EndChar

StartChar: N
Encoding: 78 78 50
Width: 611
GlyphClass: 2
Flags: W
LayerCount: 2
Fore
SplineSet
504 -1 m 1,0,-1
 430 -1 l 1,1,-1
 206 560 l 1,2,-1
 127 0 l 1,3,-1
 57 0 l 1,4,-1
 155 700 l 1,5,-1
 225 700 l 1,6,-1
 454 118 l 1,7,-1
 535 700 l 1,8,-1
 602 700 l 1,9,-1
 504 -1 l 1,0,-1
EndSplineSet
EndChar

StartChar: O
Encoding: 79 79 51
Width: 584
GlyphClass: 2
Flags: W
LayerCount: 2
Fore
SplineSet
265 -5 m 0,0,1
 162 -5 162 -5 111 67.5 c 128,-1,2
 60 140 60 140 60 261 c 0,3,4
 60 424 60 424 130 560 c 0,5,6
 165 627 165 627 226 668.5 c 128,-1,7
 287 710 287 710 366 710 c 0,8,9
 470 710 470 710 521.5 638 c 128,-1,10
 573 566 573 566 573 445 c 0,11,12
 573 283 573 283 502 146 c 0,13,14
 466 78 466 78 404.5 36.5 c 128,-1,15
 343 -5 343 -5 265 -5 c 0,0,1
464 583.5 m 128,-1,17
 428 645 428 645 363.5 645 c 128,-1,18
 299 645 299 645 253 607 c 128,-1,19
 207 569 207 569 182 510 c 0,20,21
 134 393 134 393 134 285.5 c 128,-1,22
 134 178 134 178 169 119.5 c 128,-1,23
 204 61 204 61 268.5 61 c 128,-1,24
 333 61 333 61 378.5 99 c 128,-1,25
 424 137 424 137 450 195 c 0,26,27
 500 310 500 310 500 416 c 128,-1,16
 500 522 500 522 464 583.5 c 128,-1,17
EndSplineSet
EndChar

StartChar: P
Encoding: 80 80 52
Width: 487
GlyphClass: 2
Flags: W
LayerCount: 2
Fore
SplineSet
257 294 m 2,0,-1
 165 294 l 1,1,-1
 124 0 l 1,2,-1
 57 0 l 1,3,-1
 155 700 l 1,4,-1
 305 700 l 2,5,6
 502 700 502 700 502 554 c 0,7,8
 502 433 502 433 437 363.5 c 128,-1,9
 372 294 372 294 257 294 c 2,0,-1
295 636 m 2,10,-1
 213 636 l 1,11,-1
 174 358 l 1,12,-1
 234 358 l 2,13,14
 433 358 433 358 433 531 c 0,15,16
 433 585 433 585 400 610.5 c 128,-1,17
 367 636 367 636 295 636 c 2,10,-1
EndSplineSet
EndChar

StartChar: Q
Encoding: 81 81 53
Width: 586
GlyphClass: 2
Flags: W
LayerCount: 2
Fore
SplineSet
266 -7 m 0,0,1
 162 -7 162 -7 111 67 c 128,-1,2
 60 141 60 141 60 263 c 0,3,4
 60 417 60 417 128 554 c 0,5,6
 163 623 163 623 225 666.5 c 128,-1,7
 287 710 287 710 367 710 c 0,8,9
 471 710 471 710 523 638 c 128,-1,10
 575 566 575 566 575 446 c 0,11,12
 575 244 575 244 470 96 c 1,13,-1
 544 -5 l 1,14,-1
 493 -54 l 1,15,-1
 421 47 l 1,16,17
 353 -7 353 -7 266 -7 c 0,0,1
501 428 m 0,18,19
 501 522 501 522 465 584 c 128,-1,20
 429 646 429 646 358 646 c 0,21,22
 300 646 300 646 254.5 608.5 c 128,-1,23
 209 571 209 571 184 512 c 0,24,25
 135 393 135 393 135 285.5 c 128,-1,26
 135 178 135 178 170 118.5 c 128,-1,27
 205 59 205 59 270.5 59 c 128,-1,28
 336 59 336 59 383 97 c 1,29,-1
 317 189 l 1,30,-1
 369 238 l 1,31,-1
 430 149 l 1,32,33
 501 261 501 261 501 428 c 0,18,19
EndSplineSet
EndChar

StartChar: R
Encoding: 82 82 54
Width: 543
GlyphClass: 2
Flags: W
LayerCount: 2
Fore
SplineSet
226 328 m 2,0,-1
 170 328 l 1,1,-1
 124 0 l 1,2,-1
 57 0 l 1,3,-1
 155 700 l 1,4,-1
 337 700 l 2,5,6
 499 700 499 700 499 559 c 0,7,8
 499 488 499 488 456 425 c 128,-1,9
 413 362 413 362 349 353 c 1,10,11
 388 342 388 342 402.5 321.5 c 128,-1,12
 417 301 417 301 433 234 c 2,13,-1
 489 0 l 1,14,-1
 418 0 l 1,15,-1
 362 224 l 2,16,17
 346 288 346 288 318.5 308 c 128,-1,18
 291 328 291 328 226 328 c 2,0,-1
324 636 m 2,19,-1
 213 636 l 1,20,-1
 179 392 l 1,21,-1
 281 392 l 2,22,23
 344 392 344 392 383.5 437 c 128,-1,24
 423 482 423 482 423 536 c 0,25,26
 423 636 423 636 324 636 c 2,19,-1
EndSplineSet
EndChar

StartChar: S
Encoding: 83 83 55
Width: 496
GlyphClass: 2
Flags: W
LayerCount: 2
Fore
SplineSet
445 608 m 1,0,1
 365 640 365 640 307 640 c 128,-1,2
 249 640 249 640 216.5 605.5 c 128,-1,3
 184 571 184 571 184 524 c 128,-1,4
 184 477 184 477 211.5 450 c 128,-1,5
 239 423 239 423 278 408.5 c 128,-1,6
 317 394 317 394 356 376.5 c 128,-1,7
 395 359 395 359 422.5 322 c 128,-1,8
 450 285 450 285 450 227 c 0,9,10
 450 130 450 130 382.5 62 c 128,-1,11
 315 -6 315 -6 210 -6 c 0,12,13
 158 -6 158 -6 110 10.5 c 128,-1,14
 62 27 62 27 32 49 c 1,15,-1
 62 106 l 1,16,17
 140 64 140 64 210.5 64 c 128,-1,18
 281 64 281 64 328.5 103 c 128,-1,19
 376 142 376 142 376 206 c 0,20,21
 376 250 376 250 348.5 278.5 c 128,-1,22
 321 307 321 307 282.5 323 c 128,-1,23
 244 339 244 339 205 357 c 128,-1,24
 166 375 166 375 138.5 412.5 c 128,-1,25
 111 450 111 450 111 508 c 0,26,27
 111 594 111 594 166 652 c 128,-1,28
 221 710 221 710 315 710 c 0,29,30
 387 710 387 710 469 675 c 1,31,-1
 445 608 l 1,0,1
EndSplineSet
EndChar

StartChar: T
Encoding: 84 84 56
Width: 454
GlyphClass: 2
Flags: W
LayerCount: 2
Fore
SplineSet
170 0 m 1,0,-1
 259 633 l 1,1,-1
 82 633 l 1,2,-1
 91 700 l 1,3,-1
 509 700 l 1,4,-1
 500 633 l 1,5,-1
 325 633 l 1,6,-1
 236 0 l 1,7,-1
 170 0 l 1,0,-1
EndSplineSet
EndChar

StartChar: U
Encoding: 85 85 57
Width: 598
GlyphClass: 2
Flags: W
LayerCount: 2
Fore
SplineSet
273 -6 m 0,0,1
 88 -6 88 -6 88 190 c 0,2,3
 88 218 88 218 93 258 c 2,4,-1
 155 700 l 1,5,-1
 223 700 l 1,6,-1
 160 246 l 2,7,8
 156 222 156 222 156 198 c 0,9,10
 156 131 156 131 188.5 95 c 128,-1,11
 221 59 221 59 286 59 c 128,-1,12
 351 59 351 59 397.5 107.5 c 128,-1,13
 444 156 444 156 457 246 c 2,14,-1
 520 700 l 1,15,-1
 589 700 l 1,16,-1
 527 258 l 2,17,18
 509 127 509 127 444 60.5 c 128,-1,19
 379 -6 379 -6 273 -6 c 0,0,1
EndSplineSet
EndChar

StartChar: V
Encoding: 86 86 58
Width: 492
GlyphClass: 2
Flags: W
LayerCount: 2
Fore
SplineSet
553 700 m 1,0,-1
 261 0 l 1,1,-1
 166 0 l 1,2,-1
 85 700 l 1,3,-1
 161 700 l 1,4,-1
 228 85 l 1,5,-1
 479 700 l 1,6,-1
 553 700 l 1,0,-1
EndSplineSet
EndChar

StartChar: W
Encoding: 87 87 59
Width: 675
GlyphClass: 2
Flags: W
LayerCount: 2
Fore
SplineSet
737 699 m 1,0,-1
 489 0 l 1,1,-1
 411 0 l 1,2,-1
 376 406 l 1,3,-1
 207 0 l 1,4,-1
 133 0 l 1,5,-1
 84 699 l 1,6,-1
 162 699 l 1,7,-1
 185 85 l 1,8,-1
 365 510 l 1,9,-1
 416 510 l 1,10,-1
 466 85 l 1,11,-1
 666 699 l 1,12,-1
 737 699 l 1,0,-1
EndSplineSet
EndChar

StartChar: X
Encoding: 88 88 60
Width: 526
GlyphClass: 2
Flags: W
LayerCount: 2
Fore
SplineSet
483 0 m 1,0,-1
 400 0 l 1,1,-1
 284 315 l 1,2,-1
 75 0 l 1,3,-1
 -6 0 l 1,4,-1
 254 368 l 1,5,-1
 110 700 l 1,6,-1
 196 700 l 1,7,-1
 301 424 l 1,8,-1
 490 700 l 1,9,-1
 571 700 l 1,10,-1
 332 368 l 1,11,-1
 483 0 l 1,0,-1
EndSplineSet
EndChar

StartChar: Y
Encoding: 89 89 61
Width: 496
GlyphClass: 2
Flags: W
LayerCount: 2
Fore
SplineSet
558 700 m 1,0,-1
 297 315 l 1,1,-1
 253 0 l 1,2,-1
 185 0 l 1,3,-1
 229 315 l 1,4,-1
 84 700 l 1,5,-1
 159 700 l 1,6,-1
 273 376 l 1,7,-1
 485 700 l 1,8,-1
 558 700 l 1,0,-1
EndSplineSet
EndChar

StartChar: Z
Encoding: 90 90 62
Width: 457
GlyphClass: 2
Flags: W
LayerCount: 2
Fore
SplineSet
406 0 m 1,0,-1
 11 0 l 1,1,-1
 20 62 l 1,2,-1
 388 635 l 1,3,-1
 99 635 l 1,4,-1
 108 700 l 1,5,-1
 476 700 l 1,6,-1
 468 643 l 1,7,-1
 102 66 l 1,8,-1
 415 66 l 1,9,-1
 406 0 l 1,0,-1
EndSplineSet
EndChar

StartChar: bracketleft
Encoding: 91 91 63
Width: 306
GlyphClass: 2
Flags: W
LayerCount: 2
Fore
SplineSet
220 -200 m 1,0,-1
 31 -200 l 1,1,-1
 172 800 l 1,2,-1
 359 800 l 1,3,-1
 350 735 l 1,4,-1
 231 735 l 1,5,-1
 108 -136 l 1,6,-1
 229 -136 l 1,7,-1
 220 -200 l 1,0,-1
EndSplineSet
EndChar

StartChar: backslash
Encoding: 92 92 64
Width: 436
GlyphClass: 2
Flags: W
LayerCount: 2
Fore
SplineSet
283 -145 m 1,0,-1
 124 800 l 1,1,-1
 195 800 l 1,2,-1
 355 -145 l 1,3,-1
 283 -145 l 1,0,-1
EndSplineSet
EndChar

StartChar: bracketright
Encoding: 93 93 65
Width: 306
GlyphClass: 2
Flags: W
LayerCount: 2
Fore
SplineSet
174 -200 m 1,0,-1
 -14 -200 l 1,1,-1
 -5 -136 l 1,2,-1
 116 -136 l 1,3,-1
 239 735 l 1,4,-1
 120 735 l 1,5,-1
 129 800 l 1,6,-1
 315 800 l 1,7,-1
 174 -200 l 1,0,-1
EndSplineSet
EndChar

StartChar: asciicircum
Encoding: 94 94 66
Width: 575
GlyphClass: 2
Flags: W
LayerCount: 2
Fore
SplineSet
372 667 m 1,0,-1
 519 275 l 1,1,-1
 449 275 l 1,2,-1
 337 594 l 1,3,-1
 136 275 l 1,4,-1
 64 275 l 1,5,-1
 322 667 l 1,6,-1
 372 667 l 1,0,-1
EndSplineSet
EndChar

StartChar: underscore
Encoding: 95 95 67
Width: 387
GlyphClass: 2
Flags: W
LayerCount: 2
Fore
SplineSet
368 -236 m 1,0,-1
 -18 -236 l 1,1,-1
 -9 -171 l 1,2,-1
 377 -171 l 1,3,-1
 368 -236 l 1,0,-1
EndSplineSet
EndChar

StartChar: grave
Encoding: 96 96 68
Width: 352
GlyphClass: 2
Flags: W
LayerCount: 2
Fore
SplineSet
275 592 m 1,0,-1
 219 571 l 1,1,-1
 120 703 l 1,2,-1
 193 733 l 1,3,-1
 275 592 l 1,0,-1
EndSplineSet
EndChar

StartChar: a
Encoding: 97 97 69
Width: 484
GlyphClass: 2
Flags: W
LayerCount: 2
Fore
SplineSet
184 -7 m 0,0,1
 52 -7 52 -7 52 167 c 0,2,3
 52 300 52 300 101 398 c 0,4,5
 126 449 126 449 171 479.5 c 128,-1,6
 216 510 216 510 274 510 c 0,7,8
 362 510 362 510 407 446 c 1,9,-1
 423 500 l 1,10,-1
 463 500 l 1,11,-1
 392 0 l 1,12,-1
 353 0 l 1,13,-1
 337 59 l 1,14,-1
 324 48 l 2,15,16
 259 -7 259 -7 184 -7 c 0,0,1
379 400 m 1,17,18
 332 445 332 445 283.5 445 c 128,-1,19
 235 445 235 445 203 421 c 128,-1,20
 171 397 171 397 154 356 c 0,21,22
 122 280 122 280 122 178 c 0,23,24
 122 58 122 58 197 58 c 0,25,26
 250 58 250 58 296 99.5 c 128,-1,27
 342 141 342 141 351 205 c 2,28,-1
 379 400 l 1,17,18
EndSplineSet
EndChar

StartChar: b
Encoding: 98 98 70
Width: 491
GlyphClass: 2
Flags: W
LayerCount: 2
Fore
SplineSet
335 511 m 0,0,1
 467 511 467 511 467 337 c 0,2,3
 467 217 467 217 422 114 c 0,4,5
 398 60 398 60 352 27 c 128,-1,6
 306 -6 306 -6 245 -6 c 0,7,8
 211 -6 211 -6 177.5 11 c 128,-1,9
 144 28 144 28 123 49 c 1,10,-1
 96 0 l 1,11,-1
 56 0 l 1,12,-1
 154 700 l 1,13,-1
 222 700 l 1,14,-1
 187 450 l 1,15,16
 273 511 273 511 335 511 c 0,0,1
139 107 m 1,17,18
 170 58 170 58 247 58 c 0,19,20
 284 58 284 58 316.5 83.5 c 128,-1,21
 349 109 349 109 365 151 c 0,22,23
 395 230 395 230 395 305 c 0,24,25
 395 446 395 446 321 446 c 0,26,27
 256 446 256 446 177 379 c 1,28,-1
 139 107 l 1,17,18
EndSplineSet
EndChar

StartChar: c
Encoding: 99 99 71
Width: 390
GlyphClass: 2
Flags: W
LayerCount: 2
Fore
SplineSet
214 -5 m 0,0,1
 133 -5 133 -5 93 45 c 128,-1,2
 53 95 53 95 53 187 c 0,3,4
 53 315 53 315 104 408 c 1,5,6
 131 455 131 455 179 482.5 c 128,-1,7
 227 510 227 510 281 510 c 128,-1,8
 335 510 335 510 407 486 c 1,9,-1
 372 428 l 1,10,11
 326 444 326 444 283 444 c 128,-1,12
 240 444 240 444 207.5 420.5 c 128,-1,13
 175 397 175 397 158 358 c 1,14,15
 128 284 128 284 128 191 c 0,16,17
 128 60 128 60 230 60 c 0,18,19
 280 60 280 60 340 78 c 1,20,-1
 344 19 l 1,21,22
 269 -5 269 -5 214 -5 c 0,0,1
EndSplineSet
EndChar

StartChar: d
Encoding: 100 100 72
Width: 487
GlyphClass: 2
Flags: W
LayerCount: 2
Fore
SplineSet
173 -8 m 0,0,1
 41 -8 41 -8 41 166 c 0,2,3
 41 328 41 328 100.5 418.5 c 128,-1,4
 160 509 160 509 263 509 c 0,5,6
 324 509 324 509 378 460 c 1,7,-1
 412 700 l 1,8,-1
 480 700 l 1,9,-1
 381 0 l 1,10,-1
 341 0 l 1,11,-1
 326 57 l 1,12,13
 235 -8 235 -8 173 -8 c 0,0,1
269 445 m 0,14,15
 189 445 189 445 151 371.5 c 128,-1,16
 113 298 113 298 113 186 c 0,17,18
 113 123 113 123 133 90 c 128,-1,19
 153 57 153 57 187 57 c 0,20,21
 252 57 252 57 331 124 c 1,22,-1
 367 384 l 1,23,24
 352 409 352 409 323.5 427 c 128,-1,25
 295 445 295 445 269 445 c 0,14,15
EndSplineSet
EndChar

StartChar: e
Encoding: 101 101 73
Width: 440
GlyphClass: 2
Flags: W
LayerCount: 2
Fore
SplineSet
225 -6 m 0,0,1
 145 -6 145 -6 98.5 40.5 c 128,-1,2
 52 87 52 87 52 184 c 0,3,4
 52 303 52 303 105 402 c 0,5,6
 131 450 131 450 176.5 480 c 128,-1,7
 222 510 222 510 285 510 c 128,-1,8
 348 510 348 510 385.5 477 c 128,-1,9
 423 444 423 444 423 381 c 128,-1,10
 423 318 423 318 362 274.5 c 128,-1,11
 301 231 301 231 179 231 c 0,12,13
 154 231 154 231 124 234 c 1,14,15
 120 211 120 211 120 188 c 0,16,17
 120 118 120 118 154 88 c 128,-1,18
 188 58 188 58 241 58 c 0,19,20
 281 58 281 58 322 72 c 2,21,-1
 368 87 l 1,22,-1
 370 29 l 1,23,24
 275 -6 275 -6 225 -6 c 0,0,1
184 288 m 0,25,26
 257 288 257 288 307.5 311 c 128,-1,27
 358 334 358 334 358 381 c 0,28,29
 358 445 358 445 271 445 c 0,30,31
 169 445 169 445 135 291 c 1,32,33
 159 288 159 288 184 288 c 0,25,26
EndSplineSet
EndChar

StartChar: f
Encoding: 102 102 74
Width: 261
GlyphClass: 2
Flags: W
LayerCount: 2
Fore
SplineSet
204 681 m 128,-1,1
 242 710 242 710 281.5 710 c 128,-1,2
 321 710 321 710 357 697 c 1,3,-1
 339 643 l 1,4,5
 309 649 309 649 296 649 c 0,6,7
 232 649 232 649 223 582 c 2,8,-1
 212 500 l 1,9,-1
 305 500 l 1,10,-1
 296 440 l 1,11,-1
 204 440 l 1,12,-1
 142 -10 l 2,13,14
 130 -95 130 -95 107.5 -146.5 c 128,-1,15
 85 -198 85 -198 45 -239 c 1,16,-1
 12 -204 l 1,17,18
 55 -149 55 -149 71 -34 c 2,19,-1
 136 440 l 1,20,-1
 67 440 l 1,21,-1
 76 500 l 1,22,-1
 144 500 l 1,23,-1
 156 586 l 2,24,0
 166 652 166 652 204 681 c 128,-1,1
EndSplineSet
EndChar

StartChar: g
Encoding: 103 103 75
Width: 487
GlyphClass: 2
Flags: W
LayerCount: 2
Fore
SplineSet
188 -7 m 0,0,1
 56 -7 56 -7 56 167 c 0,2,3
 56 328 56 328 118 419 c 128,-1,4
 180 510 180 510 278 510 c 0,5,6
 354 510 354 510 394 436 c 1,7,-1
 426 501 l 1,8,-1
 466 501 l 1,9,-1
 394 -21 l 2,10,11
 379 -129 379 -129 322 -182.5 c 128,-1,12
 265 -236 265 -236 183 -236 c 0,13,14
 137 -236 137 -236 106.5 -224 c 128,-1,15
 76 -212 76 -212 43 -197 c 1,16,-1
 63 -144 l 1,17,18
 134 -171 134 -171 185.5 -171 c 128,-1,19
 237 -171 237 -171 275 -136 c 128,-1,20
 313 -101 313 -101 323 -30 c 2,21,-1
 334 53 l 1,22,-1
 328 48 l 1,23,24
 252 -7 252 -7 188 -7 c 0,0,1
372 336 m 0,25,26
 372 385 372 385 343 415 c 128,-1,27
 314 445 314 445 282 445 c 0,28,29
 200 445 200 445 163 371.5 c 128,-1,30
 126 298 126 298 126 178 c 128,-1,31
 126 58 126 58 201 58 c 0,32,33
 267 58 267 58 344 125 c 1,34,35
 372 325 372 325 372 336 c 0,25,26
EndSplineSet
EndChar

StartChar: h
Encoding: 104 104 76
Width: 500
GlyphClass: 2
Flags: W
LayerCount: 2
Fore
SplineSet
375 360 m 0,0,1
 375 447 375 447 298 447 c 0,2,3
 230 447 230 447 180 399 c 1,4,-1
 124 0 l 1,5,-1
 57 0 l 1,6,-1
 155 700 l 1,7,-1
 221 700 l 1,8,-1
 188 460 l 1,9,10
 210 477 210 477 222.5 485.5 c 128,-1,11
 235 494 235 494 261.5 502 c 128,-1,12
 288 510 288 510 321 510 c 0,13,14
 376 510 376 510 410 476.5 c 128,-1,15
 444 443 444 443 444 381 c 0,16,17
 444 368 444 368 442 348 c 2,18,-1
 393 0 l 1,19,-1
 326 0 l 1,20,21
 375 347 375 347 375 360 c 0,0,1
EndSplineSet
EndChar

StartChar: i
Encoding: 105 105 77
Width: 206
GlyphClass: 2
Flags: W
LayerCount: 2
Fore
SplineSet
45 0 m 1,0,-1
 115 500 l 1,1,-1
 182 500 l 1,2,-1
 112 0 l 1,3,-1
 45 0 l 1,0,-1
210 700 m 1,4,-1
 198 611 l 1,5,-1
 131 611 l 1,6,-1
 143 700 l 1,7,-1
 210 700 l 1,4,-1
EndSplineSet
EndChar

StartChar: j
Encoding: 106 106 78
Width: 200
GlyphClass: 2
Flags: W
LayerCount: 2
Fore
SplineSet
213 700 m 1,0,-1
 200 612 l 1,1,-1
 133 612 l 1,2,-1
 146 700 l 1,3,-1
 213 700 l 1,0,-1
-17 -204 m 1,4,5
 26 -150 26 -150 43 -34 c 2,6,-1
 118 500 l 1,7,-1
 185 500 l 1,8,-1
 113 -10 l 2,9,10
 101 -96 101 -96 78.5 -147 c 128,-1,11
 56 -198 56 -198 16 -239 c 1,12,-1
 -17 -204 l 1,4,5
EndSplineSet
EndChar

StartChar: k
Encoding: 107 107 79
Width: 458
GlyphClass: 2
Flags: W
LayerCount: 2
Fore
SplineSet
155 700 m 1,0,-1
 222 700 l 1,1,-1
 164 288 l 1,2,-1
 387 500 l 1,3,-1
 472 500 l 1,4,-1
 254 297 l 1,5,-1
 412 0 l 1,6,-1
 336 0 l 1,7,-1
 207 250 l 1,8,-1
 151 196 l 1,9,-1
 124 0 l 1,10,-1
 57 0 l 1,11,-1
 155 700 l 1,0,-1
EndSplineSet
EndChar

StartChar: l
Encoding: 108 108 80
Width: 231
GlyphClass: 2
Flags: W
LayerCount: 2
Fore
SplineSet
57 0 m 1,0,-1
 155 700 l 1,1,-1
 222 700 l 1,2,-1
 124 0 l 1,3,-1
 57 0 l 1,0,-1
EndSplineSet
EndChar

StartChar: m
Encoding: 109 109 81
Width: 765
GlyphClass: 2
Flags: W
LayerCount: 2
Fore
SplineSet
325 510 m 0,0,1
 410 510 410 510 440 442 c 1,2,3
 525 510 525 510 586 510 c 128,-1,4
 647 510 647 510 682 478 c 128,-1,5
 717 446 717 446 717 384 c 0,6,7
 717 370 717 370 715 352 c 2,8,-1
 666 0 l 1,9,-1
 600 0 l 1,10,-1
 645 321 l 2,11,12
 647 333 647 333 647 353 c 0,13,14
 647 398 647 398 626.5 421.5 c 128,-1,15
 606 445 606 445 571 445 c 0,16,17
 514 445 514 445 450 395 c 1,18,19
 450 367 450 367 448 352 c 2,20,-1
 399 0 l 1,21,-1
 333 0 l 1,22,23
 381 342 381 342 381 354 c 0,24,25
 381 398 381 398 360.5 421.5 c 128,-1,26
 340 445 340 445 308.5 445 c 128,-1,27
 277 445 277 445 253.5 437 c 128,-1,28
 230 429 230 429 218.5 421 c 128,-1,29
 207 413 207 413 187 397 c 1,30,-1
 132 0 l 1,31,-1
 64 0 l 1,32,-1
 134 500 l 1,33,-1
 178 500 l 1,34,-1
 182 448 l 1,35,36
 206 468 206 468 220.5 478 c 128,-1,37
 235 488 235 488 264 499 c 128,-1,38
 293 510 293 510 325 510 c 0,0,1
EndSplineSet
EndChar

StartChar: n
Encoding: 110 110 82
Width: 498
GlyphClass: 2
Flags: W
LayerCount: 2
Fore
SplineSet
325 510 m 0,0,1
 380 510 380 510 414.5 477 c 128,-1,2
 449 444 449 444 449 382 c 0,3,4
 449 365 449 365 446 347 c 2,5,-1
 398 0 l 1,6,-1
 331 0 l 1,7,8
 379 347 379 347 379 359 c 0,9,10
 379 446 379 446 302 446 c 0,11,12
 239 446 239 446 186 397 c 1,13,-1
 131 0 l 1,14,-1
 64 0 l 1,15,-1
 134 500 l 1,16,-1
 177 500 l 1,17,-1
 181 451 l 1,18,19
 204 469 204 469 218.5 479 c 128,-1,20
 233 489 233 489 263 499.5 c 128,-1,21
 293 510 293 510 325 510 c 0,0,1
EndSplineSet
EndChar

StartChar: o
Encoding: 111 111 83
Width: 466
GlyphClass: 2
Flags: W
LayerCount: 2
Fore
SplineSet
274 445 m 0,0,1
 195 445 195 445 157 374 c 128,-1,2
 119 303 119 303 119 214.5 c 128,-1,3
 119 126 119 126 142 92.5 c 128,-1,4
 165 59 165 59 218 59 c 0,5,6
 299 59 299 59 339 125.5 c 128,-1,7
 379 192 379 192 379 281 c 128,-1,8
 379 370 379 370 353.5 407.5 c 128,-1,9
 328 445 328 445 274 445 c 0,0,1
212 -6 m 0,10,11
 50 -6 50 -6 50 199 c 0,12,13
 50 333 50 333 112 421.5 c 128,-1,14
 174 510 174 510 283 510 c 0,15,16
 363 510 363 510 405.5 457 c 128,-1,17
 448 404 448 404 448 299 c 0,18,19
 448 169 448 169 386.5 81.5 c 128,-1,20
 325 -6 325 -6 212 -6 c 0,10,11
EndSplineSet
EndChar

StartChar: p
Encoding: 112 112 84
Width: 491
GlyphClass: 2
Flags: W
LayerCount: 2
Fore
SplineSet
350 510 m 0,0,1
 482 510 482 510 482 337 c 0,2,3
 482 175 482 175 426 84.5 c 128,-1,4
 370 -6 370 -6 260 -6 c 0,5,6
 198 -6 198 -6 145 42 c 1,7,-1
 106 -236 l 1,8,-1
 38 -236 l 1,9,-1
 141 500 l 1,10,-1
 181 500 l 1,11,-1
 196 443 l 1,12,13
 287 510 287 510 350 510 c 0,0,1
254 58 m 0,14,15
 335 58 335 58 372.5 127.5 c 128,-1,16
 410 197 410 197 410 315 c 0,17,18
 410 379 410 379 389.5 412 c 128,-1,19
 369 445 369 445 337.5 445 c 128,-1,20
 306 445 306 445 276 432 c 128,-1,21
 246 419 246 419 231.5 408 c 128,-1,22
 217 397 217 397 192 376 c 1,23,-1
 154 110 l 1,24,25
 169 86 169 86 197.5 72 c 128,-1,26
 226 58 226 58 254 58 c 0,14,15
EndSplineSet
EndChar

StartChar: q
Encoding: 113 113 85
Width: 487
GlyphClass: 2
Flags: W
LayerCount: 2
Fore
SplineSet
260 445 m 0,0,1
 198 445 198 445 162.5 369 c 128,-1,2
 127 293 127 293 127 183 c 0,3,4
 127 59 127 59 220 59 c 0,5,6
 255 59 255 59 290.5 81 c 128,-1,7
 326 103 326 103 347 139 c 1,8,-1
 380 369 l 1,9,10
 367 400 367 400 330 422.5 c 128,-1,11
 293 445 293 445 260 445 c 0,0,1
96 37 m 128,-1,13
 55 80 55 80 55 173 c 0,14,15
 55 315 55 315 110 412.5 c 128,-1,16
 165 510 165 510 273 510 c 0,17,18
 336 510 336 510 395 443 c 1,19,-1
 426 500 l 1,20,-1
 466 500 l 1,21,-1
 363 -236 l 1,22,-1
 295 -236 l 1,23,-1
 336 57 l 1,24,25
 313 34 313 34 304 27.5 c 128,-1,26
 295 21 295 21 280 12 c 0,27,28
 250 -6 250 -6 193.5 -6 c 128,-1,12
 137 -6 137 -6 96 37 c 128,-1,13
EndSplineSet
EndChar

StartChar: r
Encoding: 114 114 86
Width: 334
GlyphClass: 2
Flags: W
LayerCount: 2
Fore
SplineSet
353.5 507.5 m 128,-1,1
 361 505 361 505 365 504 c 1,2,-1
 345 435 l 1,3,4
 329 441 329 441 302 441 c 0,5,6
 247 441 247 441 184 382 c 1,7,-1
 131 0 l 1,8,-1
 64 0 l 1,9,-1
 134 500 l 1,10,-1
 177 500 l 1,11,-1
 180 441 l 1,12,13
 228 479 228 479 259 494.5 c 128,-1,14
 290 510 290 510 318 510 c 128,-1,0
 346 510 346 510 353.5 507.5 c 128,-1,1
EndSplineSet
EndChar

StartChar: s
Encoding: 115 115 87
Width: 393
GlyphClass: 2
Flags: W
LayerCount: 2
Fore
SplineSet
59 89 m 1,0,1
 114 59 114 59 167.5 59 c 128,-1,2
 221 59 221 59 254 87 c 128,-1,3
 287 115 287 115 287 163 c 0,4,5
 287 212 287 212 217 240 c 0,6,7
 188 251 188 251 159.5 263 c 128,-1,8
 131 275 131 275 110.5 299 c 128,-1,9
 90 323 90 323 90 358 c 0,10,11
 90 428 90 428 134 469 c 128,-1,12
 178 510 178 510 243 510 c 128,-1,13
 308 510 308 510 360 489 c 1,14,-1
 366 486 l 1,15,-1
 345 422 l 1,16,17
 322 436 322 436 287.5 440.5 c 128,-1,18
 253 445 253 445 243 445 c 0,19,20
 160 445 160 445 160 369 c 0,21,22
 160 348 160 348 180 332.5 c 128,-1,23
 200 317 200 317 229 305 c 128,-1,24
 258 293 258 293 287 278.5 c 128,-1,25
 316 264 316 264 336 236 c 128,-1,26
 356 208 356 208 356 169 c 0,27,28
 356 90 356 90 303.5 42 c 128,-1,29
 251 -6 251 -6 171 -6 c 128,-1,30
 91 -6 91 -6 35 33 c 1,31,-1
 59 89 l 1,0,1
EndSplineSet
EndChar

StartChar: t
Encoding: 116 116 88
Width: 311
GlyphClass: 2
Flags: W
LayerCount: 2
Fore
SplineSet
153 104 m 0,0,1
 153 55 153 55 206 55 c 0,2,3
 220 55 220 55 252 61 c 1,4,-1
 254 7 l 1,5,6
 217 -6 217 -6 179.5 -6 c 128,-1,7
 142 -6 142 -6 112.5 15 c 128,-1,8
 83 36 83 36 83 84 c 0,9,10
 83 94 83 94 132 440 c 1,11,-1
 71 440 l 1,12,-1
 79 500 l 1,13,-1
 141 500 l 1,14,-1
 162 643 l 1,15,-1
 229 643 l 1,16,-1
 208 500 l 1,17,-1
 318 500 l 1,18,-1
 310 440 l 1,19,-1
 199 440 l 1,20,21
 153 115 153 115 153 104 c 0,0,1
EndSplineSet
EndChar

StartChar: u
Encoding: 117 117 89
Width: 489
GlyphClass: 2
Flags: W
LayerCount: 2
Fore
SplineSet
182 -6 m 0,0,1
 131 -6 131 -6 102.5 26 c 128,-1,2
 74 58 74 58 74 117 c 0,3,4
 74 136 74 136 77 157 c 2,5,-1
 125 500 l 1,6,-1
 192 500 l 1,7,8
 142 140 142 140 142 115 c 128,-1,9
 142 90 142 90 156 74 c 128,-1,10
 170 58 170 58 202.5 58 c 128,-1,11
 235 58 235 58 275.5 80 c 128,-1,12
 316 102 316 102 339 127 c 1,13,-1
 391 500 l 1,14,-1
 459 500 l 1,15,-1
 389 0 l 1,16,-1
 350 0 l 1,17,-1
 335 59 l 1,18,19
 255 -6 255 -6 182 -6 c 0,0,1
EndSplineSet
EndChar

StartChar: v
Encoding: 118 118 90
Width: 401
GlyphClass: 2
Flags: W
LayerCount: 2
Fore
SplineSet
443 500 m 1,0,-1
 223 0 l 1,1,-1
 141 0 l 1,2,-1
 62 500 l 1,3,-1
 141 500 l 1,4,-1
 194 80 l 1,5,-1
 366 500 l 1,6,-1
 443 500 l 1,0,-1
EndSplineSet
EndChar

StartChar: w
Encoding: 119 119 91
Width: 611
GlyphClass: 2
Flags: W
LayerCount: 2
Fore
SplineSet
121 0 m 1,0,-1
 60 500 l 1,1,-1
 132 500 l 1,2,-1
 173 79 l 1,3,-1
 323 500 l 1,4,-1
 393 500 l 1,5,-1
 431 75 l 1,6,-1
 581 500 l 1,7,-1
 655 500 l 1,8,-1
 462 0 l 1,9,-1
 379 0 l 1,10,-1
 343 395 l 1,11,-1
 203 0 l 1,12,-1
 121 0 l 1,0,-1
EndSplineSet
EndChar

StartChar: x
Encoding: 120 120 92
Width: 392
GlyphClass: 2
Flags: W
LayerCount: 2
Fore
SplineSet
153 500 m 1,0,-1
 223 324 l 1,1,-1
 340 500 l 1,2,-1
 417 500 l 1,3,-1
 251 255 l 1,4,-1
 353 0 l 1,5,-1
 278 0 l 1,6,-1
 206 198 l 1,7,-1
 80 0 l 1,8,-1
 3 0 l 1,9,-1
 177 255 l 1,10,-1
 79 500 l 1,11,-1
 153 500 l 1,0,-1
EndSplineSet
EndChar

StartChar: y
Encoding: 121 121 93
Width: 401
GlyphClass: 2
Flags: W
LayerCount: 2
Fore
SplineSet
151 -10 m 1,0,-1
 70 500 l 1,1,-1
 147 500 l 1,2,-1
 202 80 l 1,3,-1
 376 500 l 1,4,-1
 451 500 l 1,5,-1
 226 0 l 2,6,7
 182 -97 182 -97 139 -149.5 c 128,-1,8
 96 -202 96 -202 35 -236 c 1,9,-1
 16 -184 l 1,10,11
 56 -161 56 -161 94 -116.5 c 128,-1,12
 132 -72 132 -72 151 -10 c 1,0,-1
EndSplineSet
EndChar

StartChar: z
Encoding: 122 122 94
Width: 379
GlyphClass: 2
Flags: W
LayerCount: 2
Fore
SplineSet
96 500 m 1,0,-1
 372 500 l 1,1,-1
 364 440 l 1,2,-1
 115 65 l 1,3,-1
 322 65 l 1,4,-1
 313 0 l 1,5,-1
 26 0 l 1,6,-1
 34 60 l 1,7,-1
 283 435 l 1,8,-1
 87 435 l 1,9,-1
 96 500 l 1,0,-1
EndSplineSet
EndChar

StartChar: braceleft
Encoding: 123 123 95
Width: 320
GlyphClass: 2
Flags: W
LayerCount: 2
Fore
SplineSet
365 801 m 2,0,-1
 384 801 l 1,1,-1
 375 737 l 1,2,-1
 357 737 l 2,3,4
 301 737 301 737 276.5 704.5 c 128,-1,5
 252 672 252 672 240 591 c 2,6,-1
 219 438 l 2,7,8
 209 369 209 369 192.5 343 c 128,-1,9
 176 317 176 317 131 304 c 1,10,11
 161 297 161 297 173.5 277.5 c 128,-1,12
 186 258 186 258 186 227.5 c 128,-1,13
 186 197 186 197 182 172 c 2,14,-1
 160 21 l 2,15,16
 154 -21 154 -21 154 -60.5 c 128,-1,17
 154 -100 154 -100 173 -118.5 c 128,-1,18
 192 -137 192 -137 237 -137 c 2,19,-1
 252 -137 l 1,20,-1
 243 -201 l 1,21,-1
 222 -201 l 2,22,23
 85 -201 85 -201 85 -61 c 0,24,25
 85 -33 85 -33 89 -5 c 2,26,-1
 110 145 l 2,27,28
 113 167 113 167 113 189 c 0,29,30
 113 278 113 278 44 278 c 1,31,-1
 51 324 l 1,32,33
 99 324 99 324 121 354.5 c 128,-1,34
 143 385 143 385 153 451 c 2,35,-1
 174 601 l 2,36,37
 201 801 201 801 365 801 c 2,0,-1
EndSplineSet
EndChar

StartChar: bar
Encoding: 124 124 96
Width: 261
GlyphClass: 2
Flags: W
LayerCount: 2
Fore
SplineSet
114 -203 m 1,0,-1
 47 -203 l 1,1,-1
 188 800 l 1,2,-1
 255 800 l 1,3,-1
 114 -203 l 1,0,-1
EndSplineSet
EndChar

StartChar: braceright
Encoding: 125 125 97
Width: 320
GlyphClass: 2
Flags: W
LayerCount: 2
Fore
SplineSet
137 801 m 2,0,1
 277 801 277 801 277 656 c 0,2,3
 277 637 277 637 262 531.5 c 128,-1,4
 247 426 247 426 247 394 c 0,5,6
 247 324 247 324 317 324 c 1,7,-1
 310 278 l 1,8,9
 227 278 227 278 208 145 c 2,10,-1
 187 -5 l 2,11,12
 172 -111 172 -111 124 -156 c 128,-1,13
 76 -201 76 -201 -2 -201 c 2,14,-1
 -22 -201 l 1,15,-1
 -13 -137 l 1,16,-1
 1 -137 l 2,17,18
 57 -137 57 -137 83 -104.5 c 128,-1,19
 109 -72 109 -72 122 21 c 2,20,-1
 144 172 l 2,21,22
 153 235 153 235 171 265 c 128,-1,23
 189 295 189 295 230 304 c 1,24,25
 199 314 199 314 187 329.5 c 128,-1,26
 175 345 175 345 175 372.5 c 128,-1,27
 175 400 175 400 181 438 c 2,28,-1
 202 591 l 2,29,30
 207 631 207 631 207 665 c 128,-1,31
 207 699 207 699 189 718 c 128,-1,32
 171 737 171 737 127 737 c 2,33,-1
 109 737 l 1,34,-1
 118 801 l 1,35,-1
 137 801 l 2,0,1
EndSplineSet
EndChar

StartChar: asciitilde
Encoding: 126 126 98
Width: 475
GlyphClass: 2
Flags: W
LayerCount: 2
Fore
SplineSet
332 226 m 0,0,1
 290 226 290 226 245.5 255.5 c 128,-1,2
 201 285 201 285 166.5 285 c 128,-1,3
 132 285 132 285 84 240 c 1,4,-1
 69 287 l 1,5,6
 91 315 91 315 121 333 c 128,-1,7
 151 351 151 351 188 351 c 128,-1,8
 225 351 225 351 269 321 c 128,-1,9
 313 291 313 291 347 291 c 128,-1,10
 381 291 381 291 431 337 c 1,11,-1
 449 308 l 1,12,13
 403 226 403 226 332 226 c 0,0,1
EndSplineSet
EndChar

StartChar: exclamdown
Encoding: 161 161 100
Width: 240
GlyphClass: 2
Flags: W
LayerCount: 2
Fore
SplineSet
125 404 m 1,0,-1
 192 404 l 1,1,-1
 120 -107 l 1,2,-1
 53 -107 l 1,3,-1
 125 404 l 1,0,-1
153 594 m 1,4,-1
 220 594 l 1,5,-1
 207 501 l 1,6,-1
 140 501 l 1,7,-1
 153 594 l 1,4,-1
EndSplineSet
EndChar

StartChar: cent
Encoding: 162 162 101
Width: 343
GlyphClass: 2
Flags: W
LayerCount: 2
Fore
SplineSet
56 243 m 0,0,1
 56 334 56 334 84 406 c 0,2,3
 98 444 98 444 126 471 c 128,-1,4
 154 498 154 498 192 509 c 1,5,-1
 205 606 l 1,6,-1
 264 606 l 1,7,-1
 251 510 l 1,8,9
 297 510 297 510 352 491 c 1,10,-1
 325 431 l 1,11,12
 288 444 288 444 253 444 c 0,13,14
 184 444 184 444 154 395 c 128,-1,15
 124 346 124 346 124 250 c 0,16,17
 124 202 124 202 143 180 c 128,-1,18
 162 158 162 158 204 158 c 128,-1,19
 246 158 246 158 296 173 c 1,20,-1
 298 110 l 1,21,22
 240 92 240 92 192 92 c 1,23,-1
 179 0 l 1,24,-1
 120 0 l 1,25,-1
 133 94 l 1,26,27
 56 123 56 123 56 243 c 0,0,1
EndSplineSet
EndChar

StartChar: sterling
Encoding: 163 163 102
Width: 486
GlyphClass: 2
Flags: W
LayerCount: 2
Fore
SplineSet
309 710 m 0,0,1
 336 710 336 710 373 696 c 1,2,-1
 356 642 l 1,3,4
 327 648 327 648 305 648 c 128,-1,5
 283 648 283 648 262 628.5 c 128,-1,6
 241 609 241 609 236 573 c 2,7,-1
 214 415 l 1,8,-1
 366 415 l 1,9,-1
 357 350 l 1,10,-1
 205 350 l 1,11,-1
 166 65 l 1,12,-1
 411 65 l 1,13,-1
 402 0 l 1,14,-1
 90 0 l 1,15,-1
 139 350 l 1,16,-1
 78 350 l 1,17,-1
 87 415 l 1,18,-1
 148 415 l 1,19,-1
 172 595 l 2,20,21
 180 656 180 656 219.5 683 c 128,-1,22
 259 710 259 710 309 710 c 0,0,1
EndSplineSet
EndChar

StartChar: currency
Encoding: 164 164 103
Width: 548
GlyphClass: 2
Flags: W
LayerCount: 2
Fore
SplineSet
193 488 m 1,0,1
 248 529 248 529 326 529 c 128,-1,2
 404 529 404 529 449 481 c 1,3,-1
 514 544 l 1,4,-1
 549 498 l 1,5,-1
 481 432 l 1,6,7
 496 390 496 390 496 342 c 128,-1,8
 496 294 496 294 481.5 243 c 128,-1,9
 467 192 467 192 443 157 c 1,10,-1
 490 95 l 1,11,-1
 435 42 l 1,12,-1
 389 101 l 1,13,14
 335 61 335 61 258 61 c 128,-1,15
 181 61 181 61 139 105 c 1,16,-1
 82 50 l 1,17,-1
 47 96 l 1,18,-1
 109 154 l 1,19,20
 95 188 95 188 95 238 c 128,-1,21
 95 288 95 288 107.5 341 c 128,-1,22
 120 394 120 394 142 429 c 1,23,-1
 98 489 l 1,24,-1
 153 542 l 1,25,-1
 193 488 l 1,0,1
314 464 m 0,26,27
 244 464 244 464 202.5 402 c 128,-1,28
 161 340 161 340 161 256 c 0,29,30
 161 198 161 198 190 162 c 128,-1,31
 219 126 219 126 268 126 c 0,32,33
 341 126 341 126 385 184 c 128,-1,34
 429 242 429 242 429 329 c 0,35,36
 429 390 429 390 399 427 c 128,-1,37
 369 464 369 464 314 464 c 0,26,27
EndSplineSet
EndChar

StartChar: yen
Encoding: 165 165 104
Width: 549
GlyphClass: 2
Flags: W
LayerCount: 2
Fore
SplineSet
323 301 m 1,0,-1
 490 301 l 1,1,-1
 481 236 l 1,2,-1
 314 236 l 1,3,-1
 302 149 l 1,4,-1
 469 149 l 1,5,-1
 460 84 l 1,6,-1
 293 84 l 1,7,-1
 281 0 l 1,8,-1
 213 0 l 1,9,-1
 225 84 l 1,10,-1
 74 84 l 1,11,-1
 83 149 l 1,12,-1
 234 149 l 1,13,-1
 246 236 l 1,14,-1
 95 236 l 1,15,-1
 104 301 l 1,16,-1
 255 301 l 1,17,-1
 112 700 l 1,18,-1
 187 700 l 1,19,-1
 300 366 l 1,20,-1
 513 700 l 1,21,-1
 586 700 l 1,22,-1
 323 301 l 1,0,-1
EndSplineSet
EndChar

StartChar: brokenbar
Encoding: 166 166 105
Width: 283
GlyphClass: 2
Flags: W
LayerCount: 2
Fore
SplineSet
203 413 m 1,0,-1
 144 413 l 1,1,-1
 199 806 l 1,2,-1
 258 806 l 1,3,-1
 203 413 l 1,0,-1
118 -194 m 1,4,-1
 59 -194 l 1,5,-1
 114 201 l 1,6,-1
 173 201 l 1,7,-1
 118 -194 l 1,4,-1
EndSplineSet
EndChar

StartChar: section
Encoding: 167 167 106
Width: 544
GlyphClass: 2
Flags: W
LayerCount: 2
Fore
SplineSet
183.5 367.5 m 128,-1,1
 159 337 159 337 159 302.5 c 128,-1,2
 159 268 159 268 187.5 244.5 c 128,-1,3
 216 221 216 221 266 197 c 128,-1,4
 316 173 316 173 338 155 c 1,5,6
 406 200 406 200 416 236 c 0,7,8
 422 255 422 255 422 285.5 c 128,-1,9
 422 316 422 316 399.5 341 c 128,-1,10
 377 366 377 366 328.5 394 c 128,-1,11
 280 422 280 422 262 436 c 1,12,0
 208 398 208 398 183.5 367.5 c 128,-1,1
105 -49 m 1,13,14
 163 -92 163 -92 225 -92 c 128,-1,15
 287 -92 287 -92 320.5 -62.5 c 128,-1,16
 354 -33 354 -33 354 9 c 128,-1,17
 354 51 354 51 327 77 c 128,-1,18
 300 103 300 103 261 121.5 c 128,-1,19
 222 140 222 140 183 159.5 c 128,-1,20
 144 179 144 179 117 212 c 128,-1,21
 90 245 90 245 90 294 c 128,-1,22
 90 343 90 343 123 386.5 c 128,-1,23
 156 430 156 430 222 477 c 1,24,25
 200 507 200 507 200 544 c 0,26,27
 200 625 200 625 248.5 667.5 c 128,-1,28
 297 710 297 710 380 710 c 0,29,30
 434 710 434 710 494 683 c 1,31,-1
 475 621 l 1,32,33
 426 645 426 645 378.5 645 c 128,-1,34
 331 645 331 645 300 621 c 128,-1,35
 269 597 269 597 269 549 c 0,36,37
 269 503 269 503 348 456 c 0,38,39
 380 436 380 436 412.5 414.5 c 128,-1,40
 445 393 445 393 468 360 c 128,-1,41
 491 327 491 327 491 280 c 128,-1,42
 491 233 491 233 466.5 196.5 c 128,-1,43
 442 160 442 160 382 117 c 1,44,45
 423 78 423 78 423 22 c 0,46,47
 423 -55 423 -55 364.5 -106 c 128,-1,48
 306 -157 306 -157 210 -157 c 0,49,50
 176 -157 176 -157 139 -144 c 128,-1,51
 102 -131 102 -131 79 -114 c 1,52,-1
 105 -49 l 1,13,14
EndSplineSet
EndChar

StartChar: dieresis
Encoding: 168 168 107
Width: 461
GlyphClass: 2
Flags: W
LayerCount: 2
Fore
SplineSet
156 709 m 1,0,-1
 170 815 l 1,1,-1
 234 815 l 1,2,-1
 220 709 l 1,3,-1
 156 709 l 1,0,-1
318 709 m 1,4,-1
 332 815 l 1,5,-1
 395 815 l 1,6,-1
 381 709 l 1,7,-1
 318 709 l 1,4,-1
EndSplineSet
EndChar

StartChar: copyright
Encoding: 169 169 108
Width: 498
GlyphClass: 2
Flags: W
LayerCount: 2
Fore
SplineSet
339 343 m 1,0,1
 303 352 303 352 293 352 c 0,2,3
 206 352 206 352 206 224 c 0,4,5
 206 152 206 152 264 152 c 0,6,7
 294 152 294 152 320 162 c 1,8,-1
 323 121 l 1,9,10
 282 109 282 109 250 109 c 0,11,12
 159 109 159 109 159 218 c 0,13,14
 159 301 159 301 194 348.5 c 128,-1,15
 229 396 229 396 293 396 c 0,16,17
 316 396 316 396 336.5 390 c 128,-1,18
 357 384 357 384 359 383 c 1,19,-1
 339 343 l 1,0,1
357 29.5 m 128,-1,21
 303 -19 303 -19 227 -19 c 128,-1,22
 151 -19 151 -19 111 33 c 128,-1,23
 71 85 71 85 71 180.5 c 128,-1,24
 71 276 71 276 96 354 c 128,-1,25
 121 432 121 432 175 480.5 c 128,-1,26
 229 529 229 529 305 529 c 128,-1,27
 381 529 381 529 421 477 c 128,-1,28
 461 425 461 425 461 329.5 c 128,-1,29
 461 234 461 234 436 156 c 128,-1,20
 411 78 411 78 357 29.5 c 128,-1,21
150.5 71 m 128,-1,31
 176 31 176 31 234 31 c 128,-1,32
 292 31 292 31 332 74 c 0,33,34
 407 155 407 155 407 316 c 0,35,36
 407 399 407 399 381.5 439 c 128,-1,37
 356 479 356 479 298 479 c 128,-1,38
 240 479 240 479 200 436 c 0,39,40
 125 355 125 355 125 194 c 0,41,30
 125 111 125 111 150.5 71 c 128,-1,31
EndSplineSet
EndChar

StartChar: ordfeminine
Encoding: 170 170 109
Width: 327
GlyphClass: 2
Flags: W
LayerCount: 2
Fore
SplineSet
264 234 m 1,0,-1
 49 234 l 1,1,-1
 57 289 l 1,2,-1
 272 289 l 1,3,-1
 264 234 l 1,0,-1
245 399 m 1,4,5
 196 358 196 358 155 358 c 128,-1,6
 114 358 114 358 93.5 387.5 c 128,-1,7
 73 417 73 417 73 466 c 0,8,9
 73 685 73 685 218 685 c 0,10,11
 234 685 234 685 253.5 676.5 c 128,-1,12
 273 668 273 668 283 658 c 1,13,-1
 299 680 l 1,14,-1
 322 680 l 1,15,-1
 279 361 l 1,16,-1
 254 361 l 1,17,-1
 245 399 l 1,4,5
216 640 m 0,18,19
 119 640 119 640 119 474 c 0,20,21
 119 443 119 443 129.5 424 c 128,-1,22
 140 405 140 405 157 405 c 0,23,24
 186 405 186 405 215 428 c 128,-1,25
 244 451 244 451 248 479 c 2,26,-1
 267 619 l 1,27,28
 244 640 244 640 216 640 c 0,18,19
EndSplineSet
EndChar

StartChar: guillemotleft
Encoding: 171 171 110
Width: 460
GlyphClass: 2
Flags: W
LayerCount: 2
Fore
SplineSet
386 108 m 1,0,-1
 338 89 l 1,1,-1
 249 297 l 1,2,-1
 398 506 l 1,3,-1
 439 488 l 1,4,-1
 320 299 l 1,5,-1
 386 108 l 1,0,-1
216 97 m 1,6,-1
 168 78 l 1,7,-1
 74 297 l 1,8,-1
 231 518 l 1,9,-1
 273 499 l 1,10,-1
 147 299 l 1,11,-1
 216 97 l 1,6,-1
EndSplineSet
EndChar

StartChar: logicalnot
Encoding: 172 172 111
Width: 466
GlyphClass: 2
Flags: W
LayerCount: 2
Fore
SplineSet
422 125 m 1,0,-1
 354 125 l 1,1,-1
 374 269 l 1,2,-1
 55 269 l 1,3,-1
 64 334 l 1,4,-1
 451 334 l 1,5,-1
 422 125 l 1,0,-1
EndSplineSet
EndChar

StartChar: uni00AD
Encoding: 173 173 112
Width: 360
GlyphClass: 2
Flags: W
LayerCount: 2
Fore
SplineSet
375 257 m 1,0,-1
 15 257 l 1,1,-1
 24 322 l 1,2,-1
 384 322 l 1,3,-1
 375 257 l 1,0,-1
EndSplineSet
EndChar

StartChar: registered
Encoding: 174 174 113
Width: 496
GlyphClass: 2
Flags: W
LayerCount: 2
Fore
SplineSet
244 426 m 2,0,-1
 233 426 l 1,1,-1
 216 305 l 1,2,-1
 180 305 l 1,3,-1
 219 584 l 1,4,-1
 296 584 l 2,5,6
 364 584 364 584 364 526 c 0,7,8
 364 499 364 499 345.5 474.5 c 128,-1,9
 327 450 327 450 302 447 c 1,10,11
 319 442 319 442 325 433.5 c 128,-1,12
 331 425 331 425 338 399 c 2,13,-1
 363 305 l 1,14,-1
 321 305 l 1,15,-1
 299 384 l 2,16,17
 292 409 292 409 280.5 417.5 c 128,-1,18
 269 426 269 426 244 426 c 2,0,-1
292 550 m 2,19,-1
 250 550 l 1,20,-1
 239 473 l 1,21,-1
 276 473 l 2,22,23
 299 473 299 473 312.5 486.5 c 128,-1,24
 326 500 326 500 326 521 c 0,25,26
 326 550 326 550 292 550 c 2,19,-1
370 210.5 m 128,-1,28
 316 162 316 162 240 162 c 128,-1,29
 164 162 164 162 124 214 c 128,-1,30
 84 266 84 266 84 361.5 c 128,-1,31
 84 457 84 457 109 535 c 128,-1,32
 134 613 134 613 188 661.5 c 128,-1,33
 242 710 242 710 318 710 c 128,-1,34
 394 710 394 710 434 658 c 128,-1,35
 474 606 474 606 474 510.5 c 128,-1,36
 474 415 474 415 449 337 c 128,-1,27
 424 259 424 259 370 210.5 c 128,-1,28
163.5 252 m 128,-1,38
 189 212 189 212 247 212 c 128,-1,39
 305 212 305 212 346 256 c 0,40,41
 420 336 420 336 420 497 c 0,42,43
 420 580 420 580 394.5 620 c 128,-1,44
 369 660 369 660 311 660 c 128,-1,45
 253 660 253 660 212 616 c 0,46,47
 138 536 138 536 138 375 c 0,48,37
 138 292 138 292 163.5 252 c 128,-1,38
EndSplineSet
EndChar

StartChar: macron
Encoding: 175 175 114
Width: 447
GlyphClass: 2
Flags: W
LayerCount: 2
Fore
SplineSet
119 614 m 1,0,-1
 129 679 l 1,1,-1
 414 679 l 1,2,-1
 404 614 l 1,3,-1
 119 614 l 1,0,-1
EndSplineSet
EndChar

StartChar: degree
Encoding: 176 176 115
Width: 407
GlyphClass: 2
Flags: W
LayerCount: 2
Fore
SplineSet
222 444 m 0,0,1
 165 444 165 444 129 483 c 128,-1,2
 93 522 93 522 93 583 c 0,3,4
 93 666 93 666 143.5 721 c 128,-1,5
 194 776 194 776 269 776 c 0,6,7
 326 776 326 776 362 737 c 128,-1,8
 398 698 398 698 398 637 c 0,9,10
 398 554 398 554 347.5 499 c 128,-1,11
 297 444 297 444 222 444 c 0,0,1
321 696.5 m 128,-1,13
 299 722 299 722 255.5 722 c 128,-1,14
 212 722 212 722 180 682.5 c 128,-1,15
 148 643 148 643 148 596 c 128,-1,16
 148 549 148 549 170 523.5 c 128,-1,17
 192 498 192 498 235.5 498 c 128,-1,18
 279 498 279 498 311 537.5 c 128,-1,19
 343 577 343 577 343 624 c 128,-1,12
 343 671 343 671 321 696.5 c 128,-1,13
EndSplineSet
EndChar

StartChar: plusminus
Encoding: 177 177 116
Width: 453
GlyphClass: 2
Flags: W
LayerCount: 2
Fore
SplineSet
440 357 m 1,0,-1
 285 357 l 1,1,-1
 258 164 l 1,2,-1
 190 164 l 1,3,-1
 217 357 l 1,4,-1
 70 357 l 1,5,-1
 79 422 l 1,6,-1
 226 422 l 1,7,-1
 254 622 l 1,8,-1
 322 622 l 1,9,-1
 294 422 l 1,10,-1
 449 422 l 1,11,-1
 440 357 l 1,0,-1
390 0 m 1,12,-1
 20 0 l 1,13,-1
 29 65 l 1,14,-1
 399 65 l 1,15,-1
 390 0 l 1,12,-1
EndSplineSet
EndChar

StartChar: twosuperior
Encoding: 178 178 117
Width: 392
GlyphClass: 2
Flags: W
LayerCount: 2
Fore
SplineSet
273 575 m 0,0,1
 273 619 273 619 228 619 c 0,2,3
 192 619 192 619 154 608 c 1,4,-1
 164 648 l 1,5,6
 210 662 210 662 250.5 662 c 128,-1,7
 291 662 291 662 311 644.5 c 128,-1,8
 331 627 331 627 331 596 c 128,-1,9
 331 565 331 565 319 535 c 128,-1,10
 307 505 307 505 279 473 c 0,11,12
 233 421 233 421 175 370 c 1,13,-1
 323 370 l 1,14,-1
 308 323 l 1,15,-1
 101 323 l 1,16,-1
 106 355 l 1,17,18
 108 357 108 357 131.5 379 c 128,-1,19
 155 401 155 401 168 413.5 c 128,-1,20
 181 426 181 426 204 451 c 128,-1,21
 227 476 227 476 240 494 c 0,22,23
 273 542 273 542 273 575 c 0,0,1
EndSplineSet
EndChar

StartChar: threesuperior
Encoding: 179 179 118
Width: 382
GlyphClass: 2
Flags: W
LayerCount: 2
Fore
SplineSet
200 505 m 2,0,1
 234 505 234 505 255.5 528 c 128,-1,2
 277 551 277 551 277 577 c 0,3,4
 277 614 277 614 229 614 c 0,5,6
 194 614 194 614 152 591 c 1,7,-1
 150 637 l 1,8,9
 187 662 187 662 239 662 c 0,10,11
 322 662 322 662 322 583.5 c 128,-1,12
 322 505 322 505 248 478 c 1,13,14
 308 468 308 468 308 405 c 0,15,16
 308 354 308 354 271.5 320.5 c 128,-1,17
 235 287 235 287 180 287 c 0,18,19
 156 287 156 287 135 293.5 c 128,-1,20
 114 300 114 300 96 312 c 1,21,-1
 114 355 l 1,22,23
 138 337 138 337 176.5 337 c 128,-1,24
 215 337 215 337 237.5 353.5 c 128,-1,25
 260 370 260 370 260 402 c 0,26,27
 260 452 260 452 192 452 c 2,28,-1
 157 452 l 1,29,-1
 164 505 l 1,30,-1
 200 505 l 2,0,1
EndSplineSet
EndChar

StartChar: acute
Encoding: 180 180 119
Width: 364
GlyphClass: 2
Flags: W
LayerCount: 2
Fore
SplineSet
178 571 m 1,0,-1
 128 592 l 1,1,-1
 250 733 l 1,2,-1
 313 703 l 1,3,-1
 178 571 l 1,0,-1
EndSplineSet
EndChar

StartChar: mu
Encoding: 181 181 120
AltUni2: 0003bc.ffffffff.0
Width: 502
GlyphClass: 2
Flags: W
LayerCount: 2
Fore
SplineSet
263.5 4.5 m 128,-1,1
 237 -6 237 -6 207.5 -6 c 128,-1,2
 178 -6 178 -6 142 10 c 1,3,-1
 107 -236 l 1,4,-1
 40 -236 l 1,5,-1
 143 500 l 1,6,-1
 212 500 l 1,7,8
 162 140 162 140 162 115 c 128,-1,9
 162 90 162 90 176 74 c 128,-1,10
 190 58 190 58 222.5 58 c 128,-1,11
 255 58 255 58 295.5 80 c 128,-1,12
 336 102 336 102 359 127 c 1,13,-1
 411 500 l 1,14,-1
 479 500 l 1,15,-1
 409 0 l 1,16,-1
 370 0 l 1,17,-1
 355 59 l 1,18,19
 325 37 325 37 307.5 26 c 128,-1,0
 290 15 290 15 263.5 4.5 c 128,-1,1
EndSplineSet
EndChar

StartChar: paragraph
Encoding: 182 182 121
Width: 539
GlyphClass: 2
Flags: W
LayerCount: 2
Fore
SplineSet
117 502 m 0,0,1
 117 589 117 589 172.5 649.5 c 128,-1,2
 228 710 228 710 324 710 c 2,3,-1
 563 710 l 1,4,-1
 554 650 l 1,5,-1
 491 650 l 1,6,-1
 371 -203 l 1,7,-1
 312 -203 l 1,8,-1
 432 650 l 1,9,-1
 350 650 l 1,10,-1
 230 -203 l 1,11,-1
 172 -203 l 1,12,-1
 251 358 l 1,13,14
 188 358 188 358 152.5 398.5 c 128,-1,15
 117 439 117 439 117 502 c 0,0,1
EndSplineSet
EndChar

StartChar: periodcentered
Encoding: 183 183 122
Width: 163
GlyphClass: 2
Flags: W
LayerCount: 2
Fore
SplineSet
128 247 m 1,0,-1
 61 247 l 1,1,-1
 76 350 l 1,2,-1
 143 350 l 1,3,-1
 128 247 l 1,0,-1
EndSplineSet
EndChar

StartChar: cedilla
Encoding: 184 184 123
Width: 339
GlyphClass: 2
Flags: W
LayerCount: 2
Fore
SplineSet
186 0 m 1,0,-1
 250 0 l 1,1,2
 243 -49 243 -49 228 -80.5 c 128,-1,3
 213 -112 213 -112 169 -177 c 1,4,-1
 129 -146 l 1,5,6
 160 -92 160 -92 170 -68 c 128,-1,7
 180 -44 180 -44 186 0 c 1,0,-1
EndSplineSet
EndChar

StartChar: onesuperior
Encoding: 185 185 124
Width: 341
GlyphClass: 2
Flags: W
LayerCount: 2
Fore
SplineSet
88 316 m 1,0,-1
 94 364 l 1,1,-1
 157 364 l 1,2,-1
 190 600 l 1,3,-1
 108 550 l 1,4,-1
 97 599 l 1,5,-1
 199 662 l 1,6,-1
 244 662 l 1,7,-1
 202 364 l 1,8,-1
 265 364 l 1,9,-1
 259 316 l 1,10,-1
 88 316 l 1,0,-1
EndSplineSet
EndChar

StartChar: ordmasculine
Encoding: 186 186 125
Width: 333
GlyphClass: 2
Flags: W
LayerCount: 2
Fore
SplineSet
271 234 m 1,0,-1
 56 234 l 1,1,-1
 63 288 l 1,2,-1
 278 288 l 1,3,-1
 271 234 l 1,0,-1
187 408 m 0,4,5
 213 408 213 408 232 437 c 0,6,7
 269 491 269 491 269 570.5 c 128,-1,8
 269 650 269 650 222 650 c 0,9,10
 196 650 196 650 176 621 c 0,11,12
 140 567 140 567 140 487.5 c 128,-1,13
 140 408 140 408 187 408 c 0,4,5
228 700 m 0,14,15
 277 700 277 700 301.5 668 c 128,-1,16
 326 636 326 636 326 580 c 0,17,18
 326 490 326 490 290 424 c 128,-1,19
 254 358 254 358 181 358 c 0,20,21
 132 358 132 358 107.5 390 c 128,-1,22
 83 422 83 422 83 478 c 0,23,24
 83 568 83 568 119 634 c 128,-1,25
 155 700 155 700 228 700 c 0,14,15
EndSplineSet
EndChar

StartChar: guillemotright
Encoding: 187 187 126
Width: 460
GlyphClass: 2
Flags: W
LayerCount: 2
Fore
SplineSet
115 488 m 1,0,-1
 163 507 l 1,1,-1
 252 299 l 1,2,-1
 103 90 l 1,3,-1
 62 108 l 1,4,-1
 180 297 l 1,5,-1
 115 488 l 1,0,-1
285 499 m 1,6,-1
 333 518 l 1,7,-1
 427 299 l 1,8,-1
 270 78 l 1,9,-1
 228 97 l 1,10,-1
 354 297 l 1,11,-1
 285 499 l 1,6,-1
EndSplineSet
EndChar

StartChar: onequarter
Encoding: 188 188 127
Width: 796
GlyphClass: 2
Flags: W
LayerCount: 2
Fore
SplineSet
660 688 m 1,0,-1
 196 0 l 1,1,-1
 130 0 l 1,2,-1
 594 688 l 1,3,-1
 660 688 l 1,0,-1
598 0 m 1,4,-1
 610 85 l 1,5,-1
 427 85 l 1,6,-1
 433 126 l 1,7,-1
 627 427 l 1,8,-1
 679 427 l 1,9,-1
 491 135 l 1,10,-1
 617 135 l 1,11,-1
 633 250 l 1,12,-1
 679 250 l 1,13,-1
 663 134 l 1,14,-1
 724 134 l 1,15,-1
 717 85 l 1,16,-1
 656 85 l 1,17,-1
 644 0 l 1,18,-1
 598 0 l 1,4,-1
99 316 m 1,19,-1
 105 364 l 1,20,-1
 168 364 l 1,21,-1
 202 600 l 1,22,-1
 121 550 l 1,23,-1
 110 599 l 1,24,-1
 210 662 l 1,25,-1
 255 662 l 1,26,-1
 213 364 l 1,27,-1
 276 364 l 1,28,-1
 270 316 l 1,29,-1
 99 316 l 1,19,-1
EndSplineSet
EndChar

StartChar: onehalf
Encoding: 189 189 128
Width: 734
GlyphClass: 2
Flags: W
LayerCount: 2
Fore
SplineSet
660 688 m 1,0,-1
 195 0 l 1,1,-1
 130 0 l 1,2,-1
 594 688 l 1,3,-1
 660 688 l 1,0,-1
99 316 m 1,4,-1
 105 364 l 1,5,-1
 167 364 l 1,6,-1
 201 600 l 1,7,-1
 120 550 l 1,8,-1
 109 599 l 1,9,-1
 210 662 l 1,10,-1
 255 662 l 1,11,-1
 213 364 l 1,12,-1
 276 364 l 1,13,-1
 270 316 l 1,14,-1
 99 316 l 1,4,-1
617 252 m 0,15,16
 617 296 617 296 572 296 c 0,17,18
 544 296 544 296 498 285 c 1,19,-1
 508 325 l 1,20,21
 554 339 554 339 594.5 339 c 128,-1,22
 635 339 635 339 655 321.5 c 128,-1,23
 675 304 675 304 675 273 c 128,-1,24
 675 242 675 242 663 212 c 128,-1,25
 651 182 651 182 623 150 c 0,26,27
 578 98 578 98 519 47 c 1,28,-1
 667 47 l 1,29,-1
 652 0 l 1,30,-1
 445 0 l 1,31,-1
 450 32 l 1,32,33
 452 34 452 34 475.5 56 c 128,-1,34
 499 78 499 78 512 90.5 c 128,-1,35
 525 103 525 103 548 128 c 128,-1,36
 571 153 571 153 584 171 c 0,37,38
 617 219 617 219 617 252 c 0,15,16
EndSplineSet
EndChar

StartChar: threequarters
Encoding: 190 190 129
Width: 797
GlyphClass: 2
Flags: W
LayerCount: 2
Fore
SplineSet
597 0 m 1,0,-1
 609 85 l 1,1,-1
 427 85 l 1,2,-1
 433 126 l 1,3,-1
 626 427 l 1,4,-1
 678 427 l 1,5,-1
 490 135 l 1,6,-1
 616 135 l 1,7,-1
 632 250 l 1,8,-1
 679 250 l 1,9,-1
 663 134 l 1,10,-1
 724 134 l 1,11,-1
 717 85 l 1,12,-1
 655 85 l 1,13,-1
 643 0 l 1,14,-1
 597 0 l 1,0,-1
659 688 m 1,15,-1
 195 0 l 1,16,-1
 129 0 l 1,17,-1
 594 688 l 1,18,-1
 659 688 l 1,15,-1
197 505 m 2,19,20
 231 505 231 505 252.5 528 c 128,-1,21
 274 551 274 551 274 577 c 0,22,23
 274 614 274 614 226 614 c 0,24,25
 191 614 191 614 149 591 c 1,26,-1
 147 637 l 1,27,28
 184 662 184 662 236 662 c 0,29,30
 319 662 319 662 319 583.5 c 128,-1,31
 319 505 319 505 245 478 c 1,32,33
 305 468 305 468 305 405 c 0,34,35
 305 354 305 354 268.5 320.5 c 128,-1,36
 232 287 232 287 177 287 c 0,37,38
 153 287 153 287 132 293.5 c 128,-1,39
 111 300 111 300 93 312 c 1,40,-1
 111 355 l 1,41,42
 135 337 135 337 173.5 337 c 128,-1,43
 212 337 212 337 234.5 353.5 c 128,-1,44
 257 370 257 370 257 402 c 0,45,46
 257 452 257 452 189 452 c 2,47,-1
 154 452 l 1,48,-1
 161 505 l 1,49,-1
 197 505 l 2,19,20
EndSplineSet
EndChar

StartChar: questiondown
Encoding: 191 191 130
Width: 417
GlyphClass: 2
Flags: W
LayerCount: 2
Fore
SplineSet
78 -68 m 128,-1,1
 41 -34 41 -34 41 18.5 c 128,-1,2
 41 71 41 71 59 108 c 128,-1,3
 77 145 77 145 103.5 171.5 c 128,-1,4
 130 198 130 198 158 224 c 0,5,6
 226 287 226 287 235 351 c 2,7,-1
 244 414 l 1,8,-1
 310 414 l 1,9,-1
 302 356 l 1,10,11
 289 270 289 270 226 210 c 0,12,13
 199 185 199 185 174 161 c 0,14,15
 115 104 115 104 115 38 c 0,16,17
 115 -36 115 -36 203 -36 c 0,18,19
 262 -36 262 -36 315 -17 c 1,20,-1
 317 -75 l 1,21,22
 241 -102 241 -102 178 -102 c 128,-1,0
 115 -102 115 -102 78 -68 c 128,-1,1
272 608 m 1,23,-1
 339 608 l 1,24,-1
 326 510 l 1,25,-1
 259 510 l 1,26,-1
 272 608 l 1,23,-1
EndSplineSet
EndChar

StartChar: Agrave
Encoding: 192 192 131
Width: 521
GlyphClass: 2
Flags: W
LayerCount: 2
Fore
SplineSet
484 0 m 1,0,-1
 409 0 l 1,1,-1
 377 221 l 1,2,-1
 151 221 l 1,3,-1
 58 0 l 1,4,-1
 -12 0 l 1,5,-1
 292 700 l 1,6,-1
 374 700 l 1,7,-1
 484 0 l 1,0,-1
370 286 m 1,8,-1
 322 624 l 1,9,-1
 177 286 l 1,10,-1
 370 286 l 1,8,-1
332 753 m 1,11,-1
 277 753 l 1,12,-1
 207 877 l 1,13,-1
 283 877 l 1,14,-1
 332 753 l 1,11,-1
EndSplineSet
EndChar

StartChar: Aacute
Encoding: 193 193 132
Width: 521
GlyphClass: 2
Flags: W
LayerCount: 2
Fore
SplineSet
484 0 m 1,0,-1
 409 0 l 1,1,-1
 377 221 l 1,2,-1
 151 221 l 1,3,-1
 58 0 l 1,4,-1
 -12 0 l 1,5,-1
 292 700 l 1,6,-1
 374 700 l 1,7,-1
 484 0 l 1,0,-1
370 286 m 1,8,-1
 322 624 l 1,9,-1
 177 286 l 1,10,-1
 370 286 l 1,8,-1
280 752 m 1,11,-1
 365 876 l 1,12,-1
 441 876 l 1,13,-1
 335 752 l 1,14,-1
 280 752 l 1,11,-1
EndSplineSet
EndChar

StartChar: Atilde
Encoding: 195 195 134
Width: 521
GlyphClass: 2
Flags: W
LayerCount: 2
Fore
SplineSet
365.5 757 m 128,-1,1
 348 757 348 757 299.5 784.5 c 128,-1,2
 251 812 251 812 239 812 c 128,-1,3
 227 812 227 812 212.5 802.5 c 128,-1,4
 198 793 198 793 181 774 c 1,5,-1
 156 800 l 1,6,7
 174 824 174 824 203 847 c 128,-1,8
 232 870 232 870 249.5 870 c 128,-1,9
 267 870 267 870 315 842.5 c 128,-1,10
 363 815 363 815 375 815 c 0,11,12
 398 815 398 815 424 844 c 2,13,-1
 432 853 l 1,14,-1
 459 827 l 1,15,16
 441 803 441 803 412 780 c 128,-1,0
 383 757 383 757 365.5 757 c 128,-1,1
427 0 m 1,17,-1
 352 0 l 1,18,-1
 320 221 l 1,19,-1
 94 221 l 1,20,-1
 1 0 l 1,21,-1
 -69 0 l 1,22,-1
 235 700 l 1,23,-1
 317 700 l 1,24,-1
 427 0 l 1,17,-1
313 286 m 1,25,-1
 265 624 l 1,26,-1
 120 286 l 1,27,-1
 313 286 l 1,25,-1
EndSplineSet
EndChar

StartChar: Aring
Encoding: 197 197 136
Width: 521
GlyphClass: 2
Flags: W
LayerCount: 2
Fore
SplineSet
484 0 m 1,0,-1
 409 0 l 1,1,-1
 377 221 l 1,2,-1
 151 221 l 1,3,-1
 58 0 l 1,4,-1
 -12 0 l 1,5,-1
 292 700 l 1,6,-1
 374 700 l 1,7,-1
 484 0 l 1,0,-1
370 286 m 1,8,-1
 322 624 l 1,9,-1
 177 286 l 1,10,-1
 370 286 l 1,8,-1
349 972 m 0,11,12
 437 972 437 972 437 886 c 0,13,14
 437 828 437 828 409 790 c 128,-1,15
 381 752 381 752 320 752 c 0,16,17
 232 752 232 752 232 838 c 0,18,19
 232 896 232 896 260 934 c 128,-1,20
 288 972 288 972 349 972 c 0,11,12
325 796 m 0,21,22
 356 796 356 796 371 821 c 128,-1,23
 386 846 386 846 386 882 c 0,24,25
 386 928 386 928 344 928 c 0,26,27
 313 928 313 928 298 903 c 128,-1,28
 283 878 283 878 283 842 c 0,29,30
 283 796 283 796 325 796 c 0,21,22
EndSplineSet
EndChar

StartChar: AE
Encoding: 198 198 137
Width: 766
GlyphClass: 2
Flags: W
LayerCount: 2
Fore
SplineSet
675 0 m 1,0,-1
 317 0 l 1,1,-1
 348 221 l 1,2,-1
 186 221 l 1,3,-1
 58 0 l 1,4,-1
 -12 0 l 1,5,-1
 380 700 l 1,6,-1
 773 700 l 1,7,-1
 764 635 l 1,8,-1
 474 635 l 1,9,-1
 443 413 l 1,10,-1
 710 413 l 1,11,-1
 701 346 l 1,12,-1
 434 346 l 1,13,-1
 394 65 l 1,14,-1
 684 65 l 1,15,-1
 675 0 l 1,0,-1
222 286 m 1,16,-1
 357 286 l 1,17,-1
 406 634 l 1,18,-1
 222 286 l 1,16,-1
EndSplineSet
EndChar

StartChar: Ccedilla
Encoding: 199 199 138
Width: 526
GlyphClass: 2
Flags: W
LayerCount: 2
Fore
SplineSet
62 262 m 0,0,1
 62 453 62 453 152.5 581 c 128,-1,2
 243 709 243 709 395 709 c 0,3,4
 467 709 467 709 533 680 c 1,5,-1
 509 618 l 1,6,7
 457 644 457 644 393.5 644 c 128,-1,8
 330 644 330 644 287 619.5 c 128,-1,9
 244 595 244 595 217 556.5 c 128,-1,10
 190 518 190 518 172 468 c 0,11,12
 138 377 138 377 138 276 c 128,-1,13
 138 175 138 175 177.5 117 c 128,-1,14
 217 59 217 59 296.5 59 c 128,-1,15
 376 59 376 59 452 103 c 1,16,-1
 462 46 l 1,17,18
 393 4 393 4 321 -4 c 1,19,20
 314 -51 314 -51 299 -83.5 c 128,-1,21
 284 -116 284 -116 240 -182 c 1,22,-1
 200 -151 l 1,23,24
 230 -100 230 -100 240 -75 c 128,-1,25
 250 -50 250 -50 256 -4 c 1,26,27
 161 5 161 5 111.5 74.5 c 128,-1,28
 62 144 62 144 62 262 c 0,0,1
EndSplineSet
EndChar

StartChar: Egrave
Encoding: 200 200 139
Width: 488
GlyphClass: 2
Flags: W
LayerCount: 2
Fore
SplineSet
396 0 m 1,0,-1
 57 0 l 1,1,-1
 155 700 l 1,2,-1
 494 700 l 1,3,-1
 485 635 l 1,4,-1
 213 635 l 1,5,-1
 182 413 l 1,6,-1
 432 413 l 1,7,-1
 423 346 l 1,8,-1
 173 346 l 1,9,-1
 133 65 l 1,10,-1
 405 65 l 1,11,-1
 396 0 l 1,0,-1
347 753 m 1,12,-1
 292 753 l 1,13,-1
 222 877 l 1,14,-1
 298 877 l 1,15,-1
 347 753 l 1,12,-1
EndSplineSet
EndChar

StartChar: Eacute
Encoding: 201 201 140
Width: 488
GlyphClass: 2
Flags: W
LayerCount: 2
Fore
SplineSet
396 0 m 1,0,-1
 57 0 l 1,1,-1
 155 700 l 1,2,-1
 494 700 l 1,3,-1
 485 635 l 1,4,-1
 213 635 l 1,5,-1
 182 413 l 1,6,-1
 432 413 l 1,7,-1
 423 346 l 1,8,-1
 173 346 l 1,9,-1
 133 65 l 1,10,-1
 405 65 l 1,11,-1
 396 0 l 1,0,-1
245 752 m 1,12,-1
 330 876 l 1,13,-1
 406 876 l 1,14,-1
 300 752 l 1,15,-1
 245 752 l 1,12,-1
EndSplineSet
EndChar

StartChar: Ecircumflex
Encoding: 202 202 141
Width: 489
GlyphClass: 2
Flags: W
LayerCount: 2
Fore
SplineSet
396 0 m 1,0,-1
 57 0 l 1,1,-1
 155 700 l 1,2,-1
 494 700 l 1,3,-1
 485 635 l 1,4,-1
 213 635 l 1,5,-1
 182 413 l 1,6,-1
 432 413 l 1,7,-1
 423 346 l 1,8,-1
 173 346 l 1,9,-1
 133 65 l 1,10,-1
 405 65 l 1,11,-1
 396 0 l 1,0,-1
283 880 m 1,12,-1
 326 880 l 1,13,-1
 434 780 l 1,14,-1
 413 751 l 1,15,-1
 296 826 l 1,16,-1
 158 751 l 1,17,-1
 145 780 l 1,18,-1
 283 880 l 1,12,-1
EndSplineSet
EndChar

StartChar: Edieresis
Encoding: 203 203 142
Width: 488
GlyphClass: 2
Flags: W
LayerCount: 2
Fore
SplineSet
396 0 m 1,0,-1
 57 0 l 1,1,-1
 155 700 l 1,2,-1
 494 700 l 1,3,-1
 485 635 l 1,4,-1
 213 635 l 1,5,-1
 182 413 l 1,6,-1
 432 413 l 1,7,-1
 423 346 l 1,8,-1
 173 346 l 1,9,-1
 133 65 l 1,10,-1
 405 65 l 1,11,-1
 396 0 l 1,0,-1
187 755 m 1,12,-1
 201 861 l 1,13,-1
 265 861 l 1,14,-1
 251 755 l 1,15,-1
 187 755 l 1,12,-1
349 755 m 1,16,-1
 363 861 l 1,17,-1
 426 861 l 1,18,-1
 412 755 l 1,19,-1
 349 755 l 1,16,-1
EndSplineSet
EndChar

StartChar: Igrave
Encoding: 204 204 143
Width: 228
GlyphClass: 2
Flags: W
LayerCount: 2
Fore
SplineSet
143 0 m 1,0,-1
 76 0 l 1,1,-1
 174 700 l 1,2,-1
 241 700 l 1,3,-1
 143 0 l 1,0,-1
214 753 m 1,4,-1
 159 753 l 1,5,-1
 89 877 l 1,6,-1
 165 877 l 1,7,-1
 214 753 l 1,4,-1
EndSplineSet
EndChar

StartChar: Iacute
Encoding: 205 205 144
Width: 229
GlyphClass: 2
Flags: W
LayerCount: 2
Fore
SplineSet
99 0 m 1,0,-1
 32 0 l 1,1,-1
 130 700 l 1,2,-1
 197 700 l 1,3,-1
 99 0 l 1,0,-1
115 753 m 1,4,-1
 200 877 l 1,5,-1
 276 877 l 1,6,-1
 170 753 l 1,7,-1
 115 753 l 1,4,-1
EndSplineSet
EndChar

StartChar: Icircumflex
Encoding: 206 206 145
Width: 281
GlyphClass: 2
Flags: W
LayerCount: 2
Fore
SplineSet
151 0 m 1,0,-1
 84 0 l 1,1,-1
 182 700 l 1,2,-1
 249 700 l 1,3,-1
 151 0 l 1,0,-1
194 883 m 1,4,-1
 237 883 l 1,5,-1
 345 783 l 1,6,-1
 324 754 l 1,7,-1
 207 829 l 1,8,-1
 69 754 l 1,9,-1
 56 783 l 1,10,-1
 194 883 l 1,4,-1
EndSplineSet
EndChar

StartChar: Idieresis
Encoding: 207 207 146
Width: 203
GlyphClass: 2
Flags: W
LayerCount: 2
Fore
SplineSet
109 0 m 1,0,-1
 42 0 l 1,1,-1
 140 700 l 1,2,-1
 207 700 l 1,3,-1
 109 0 l 1,0,-1
41 755 m 1,4,-1
 55 861 l 1,5,-1
 119 861 l 1,6,-1
 105 755 l 1,7,-1
 41 755 l 1,4,-1
203 755 m 1,8,-1
 217 861 l 1,9,-1
 280 861 l 1,10,-1
 266 755 l 1,11,-1
 203 755 l 1,8,-1
EndSplineSet
EndChar

StartChar: Eth
Encoding: 208 208 147
Width: 626
GlyphClass: 2
Flags: W
LayerCount: 2
Fore
SplineSet
595 434 m 0,0,1
 595 355 595 355 568.5 278 c 128,-1,2
 542 201 542 201 494.5 139 c 128,-1,3
 447 77 447 77 373.5 38.5 c 128,-1,4
 300 0 300 0 214 0 c 2,5,-1
 82 0 l 1,6,-1
 126 317 l 1,7,-1
 51 317 l 1,8,-1
 61 382 l 1,9,-1
 135 382 l 1,10,-1
 180 700 l 1,11,-1
 340 700 l 2,12,13
 459 700 459 700 527 627 c 128,-1,14
 595 554 595 554 595 434 c 0,0,1
231 65 m 2,15,16
 315 65 315 65 382.5 122.5 c 128,-1,17
 450 180 450 180 483.5 262.5 c 128,-1,18
 517 345 517 345 517 436 c 128,-1,19
 517 527 517 527 464.5 581 c 128,-1,20
 412 635 412 635 334 635 c 2,21,-1
 244 635 l 1,22,-1
 208 382 l 1,23,-1
 367 382 l 1,24,-1
 357 317 l 1,25,-1
 199 317 l 1,26,-1
 164 65 l 1,27,-1
 231 65 l 2,15,16
EndSplineSet
EndChar

StartChar: Ntilde
Encoding: 209 209 148
Width: 611
GlyphClass: 2
Flags: W
LayerCount: 2
Fore
SplineSet
407.5 757 m 128,-1,1
 390 757 390 757 341.5 784.5 c 128,-1,2
 293 812 293 812 281 812 c 128,-1,3
 269 812 269 812 254.5 802.5 c 128,-1,4
 240 793 240 793 223 774 c 1,5,-1
 198 800 l 1,6,7
 216 824 216 824 245 847 c 128,-1,8
 274 870 274 870 291.5 870 c 128,-1,9
 309 870 309 870 357 842.5 c 128,-1,10
 405 815 405 815 417 815 c 0,11,12
 440 815 440 815 466 844 c 2,13,-1
 474 853 l 1,14,-1
 501 827 l 1,15,16
 483 803 483 803 454 780 c 128,-1,0
 425 757 425 757 407.5 757 c 128,-1,1
447 -1 m 1,17,-1
 373 -1 l 1,18,-1
 149 560 l 1,19,-1
 70 0 l 1,20,-1
 0 0 l 1,21,-1
 98 700 l 1,22,-1
 168 700 l 1,23,-1
 397 118 l 1,24,-1
 478 700 l 1,25,-1
 545 700 l 1,26,-1
 447 -1 l 1,17,-1
EndSplineSet
EndChar

StartChar: Ograve
Encoding: 210 210 149
Width: 583
GlyphClass: 2
Flags: W
LayerCount: 2
Fore
SplineSet
265 -5 m 0,0,1
 162 -5 162 -5 111 67.5 c 128,-1,2
 60 140 60 140 60 261 c 0,3,4
 60 424 60 424 130 560 c 0,5,6
 165 627 165 627 226 668.5 c 128,-1,7
 287 710 287 710 366 710 c 0,8,9
 470 710 470 710 521.5 638 c 128,-1,10
 573 566 573 566 573 445 c 0,11,12
 573 283 573 283 502 146 c 0,13,14
 466 78 466 78 404.5 36.5 c 128,-1,15
 343 -5 343 -5 265 -5 c 0,0,1
253 607 m 128,-1,17
 207 569 207 569 182 510 c 0,18,19
 134 393 134 393 134 274 c 0,20,21
 134 178 134 178 169 119.5 c 128,-1,22
 204 61 204 61 268.5 61 c 128,-1,23
 333 61 333 61 378.5 99 c 128,-1,24
 424 137 424 137 450 195 c 0,25,26
 500 310 500 310 500 428 c 0,27,28
 500 522 500 522 464 583.5 c 128,-1,29
 428 645 428 645 363.5 645 c 128,-1,16
 299 645 299 645 253 607 c 128,-1,17
353 753 m 1,30,-1
 298 753 l 1,31,-1
 228 877 l 1,32,-1
 304 877 l 1,33,-1
 353 753 l 1,30,-1
EndSplineSet
EndChar

StartChar: Oacute
Encoding: 211 211 150
Width: 583
GlyphClass: 2
Flags: W
LayerCount: 2
Fore
SplineSet
265 -5 m 0,0,1
 162 -5 162 -5 111 67.5 c 128,-1,2
 60 140 60 140 60 261 c 0,3,4
 60 424 60 424 130 560 c 0,5,6
 165 627 165 627 226 668.5 c 128,-1,7
 287 710 287 710 366 710 c 0,8,9
 470 710 470 710 521.5 638 c 128,-1,10
 573 566 573 566 573 445 c 0,11,12
 573 283 573 283 502 146 c 0,13,14
 466 78 466 78 404.5 36.5 c 128,-1,15
 343 -5 343 -5 265 -5 c 0,0,1
253 607 m 128,-1,17
 207 569 207 569 182 510 c 0,18,19
 134 393 134 393 134 274 c 0,20,21
 134 178 134 178 169 119.5 c 128,-1,22
 204 61 204 61 268.5 61 c 128,-1,23
 333 61 333 61 378.5 99 c 128,-1,24
 424 137 424 137 450 195 c 0,25,26
 500 310 500 310 500 428 c 0,27,28
 500 522 500 522 464 583.5 c 128,-1,29
 428 645 428 645 363.5 645 c 128,-1,16
 299 645 299 645 253 607 c 128,-1,17
300 753 m 1,30,-1
 385 877 l 1,31,-1
 461 877 l 1,32,-1
 355 753 l 1,33,-1
 300 753 l 1,30,-1
EndSplineSet
EndChar

StartChar: Ocircumflex
Encoding: 212 212 151
Width: 583
GlyphClass: 2
Flags: W
LayerCount: 2
Fore
SplineSet
265 -5 m 0,0,1
 162 -5 162 -5 111 67.5 c 128,-1,2
 60 140 60 140 60 261 c 0,3,4
 60 424 60 424 130 560 c 0,5,6
 165 627 165 627 226 668.5 c 128,-1,7
 287 710 287 710 366 710 c 0,8,9
 470 710 470 710 521.5 638 c 128,-1,10
 573 566 573 566 573 445 c 0,11,12
 573 283 573 283 502 146 c 0,13,14
 466 78 466 78 404.5 36.5 c 128,-1,15
 343 -5 343 -5 265 -5 c 0,0,1
464 583.5 m 128,-1,17
 428 645 428 645 363.5 645 c 128,-1,18
 299 645 299 645 253 607 c 128,-1,19
 207 569 207 569 182 510 c 0,20,21
 134 393 134 393 134 285.5 c 128,-1,22
 134 178 134 178 169 119.5 c 128,-1,23
 204 61 204 61 268.5 61 c 128,-1,24
 333 61 333 61 378.5 99 c 128,-1,25
 424 137 424 137 450 195 c 0,26,27
 500 310 500 310 500 416 c 128,-1,16
 500 522 500 522 464 583.5 c 128,-1,17
340 883 m 1,28,-1
 383 883 l 1,29,-1
 491 783 l 1,30,-1
 470 754 l 1,31,-1
 353 829 l 1,32,-1
 215 754 l 1,33,-1
 202 783 l 1,34,-1
 340 883 l 1,28,-1
EndSplineSet
EndChar

StartChar: Otilde
Encoding: 213 213 152
Width: 583
GlyphClass: 2
Flags: W
LayerCount: 2
Fore
SplineSet
385.5 754 m 128,-1,1
 368 754 368 754 319.5 781.5 c 128,-1,2
 271 809 271 809 259 809 c 128,-1,3
 247 809 247 809 232.5 799.5 c 128,-1,4
 218 790 218 790 201 771 c 1,5,-1
 176 797 l 1,6,7
 195 823 195 823 223 845 c 128,-1,8
 251 867 251 867 268.5 867 c 128,-1,9
 286 867 286 867 334.5 839.5 c 128,-1,10
 383 812 383 812 395 812 c 0,11,12
 418 812 418 812 444 840 c 1,13,-1
 452 850 l 1,14,-1
 478 824 l 1,15,16
 459 798 459 798 431 776 c 128,-1,0
 403 754 403 754 385.5 754 c 128,-1,1
209 -5 m 0,17,18
 106 -5 106 -5 55 67.5 c 128,-1,19
 4 140 4 140 4 261 c 0,20,21
 4 424 4 424 74 560 c 0,22,23
 109 627 109 627 170 668.5 c 128,-1,24
 231 710 231 710 310 710 c 0,25,26
 414 710 414 710 465.5 638 c 128,-1,27
 517 566 517 566 517 445 c 0,28,29
 517 283 517 283 446 146 c 0,30,31
 410 78 410 78 348.5 36.5 c 128,-1,32
 287 -5 287 -5 209 -5 c 0,17,18
197 607 m 128,-1,34
 151 569 151 569 126 510 c 0,35,36
 78 393 78 393 78 274 c 0,37,38
 78 178 78 178 113 119.5 c 128,-1,39
 148 61 148 61 212.5 61 c 128,-1,40
 277 61 277 61 322.5 99 c 128,-1,41
 368 137 368 137 394 195 c 0,42,43
 444 310 444 310 444 428 c 0,44,45
 444 522 444 522 408 583.5 c 128,-1,46
 372 645 372 645 307.5 645 c 128,-1,33
 243 645 243 645 197 607 c 128,-1,34
EndSplineSet
EndChar

StartChar: Odieresis
Encoding: 214 214 153
Width: 583
GlyphClass: 2
Flags: W
LayerCount: 2
Fore
SplineSet
265 -5 m 0,0,1
 162 -5 162 -5 111 67.5 c 128,-1,2
 60 140 60 140 60 261 c 0,3,4
 60 424 60 424 130 560 c 0,5,6
 165 627 165 627 226 668.5 c 128,-1,7
 287 710 287 710 366 710 c 0,8,9
 470 710 470 710 521.5 638 c 128,-1,10
 573 566 573 566 573 445 c 0,11,12
 573 283 573 283 502 146 c 0,13,14
 466 78 466 78 404.5 36.5 c 128,-1,15
 343 -5 343 -5 265 -5 c 0,0,1
253 607 m 128,-1,17
 207 569 207 569 182 510 c 0,18,19
 134 393 134 393 134 274 c 0,20,21
 134 178 134 178 169 119.5 c 128,-1,22
 204 61 204 61 268.5 61 c 128,-1,23
 333 61 333 61 378.5 99 c 128,-1,24
 424 137 424 137 450 195 c 0,25,26
 500 310 500 310 500 428 c 0,27,28
 500 522 500 522 464 583.5 c 128,-1,29
 428 645 428 645 363.5 645 c 128,-1,16
 299 645 299 645 253 607 c 128,-1,17
230 754 m 1,30,-1
 244 860 l 1,31,-1
 308 860 l 1,32,-1
 294 754 l 1,33,-1
 230 754 l 1,30,-1
392 754 m 1,34,-1
 406 860 l 1,35,-1
 469 860 l 1,36,-1
 455 754 l 1,37,-1
 392 754 l 1,34,-1
EndSplineSet
EndChar

StartChar: multiply
Encoding: 215 215 154
Width: 548
GlyphClass: 2
Flags: W
LayerCount: 2
Fore
SplineSet
549 498 m 1,0,-1
 339 296 l 1,1,-1
 490 95 l 1,2,-1
 435 42 l 1,3,-1
 283 243 l 1,4,-1
 82 50 l 1,5,-1
 47 96 l 1,6,-1
 249 289 l 1,7,-1
 98 489 l 1,8,-1
 153 542 l 1,9,-1
 304 342 l 1,10,-1
 514 544 l 1,11,-1
 549 498 l 1,0,-1
EndSplineSet
EndChar

StartChar: Oslash
Encoding: 216 216 155
Width: 584
GlyphClass: 2
Flags: W
LayerCount: 2
Fore
SplineSet
265 -5 m 0,0,1
 227 -5 227 -5 192 6 c 1,2,-1
 140 -109 l 1,3,-1
 79 -109 l 1,4,-1
 143 33 l 1,5,6
 60 100 60 100 60 261 c 0,7,8
 60 424 60 424 130 560 c 0,9,10
 165 627 165 627 226 668.5 c 128,-1,11
 287 710 287 710 366 710 c 0,12,13
 407 710 407 710 443 697 c 1,14,-1
 490 800 l 1,15,-1
 552 800 l 1,16,-1
 492 668 l 1,17,18
 573 601 573 601 573 445 c 0,19,20
 573 283 573 283 502 146 c 0,21,22
 466 78 466 78 404.5 36.5 c 128,-1,23
 343 -5 343 -5 265 -5 c 0,0,1
358 645 m 0,24,25
 299 645 299 645 253 607 c 128,-1,26
 207 569 207 569 182 510 c 0,27,28
 134 393 134 393 134 277.5 c 128,-1,29
 134 162 134 162 177 108 c 1,30,-1
 414 632 l 1,31,32
 388 645 388 645 358 645 c 0,24,25
458 592 m 1,33,-1
 222 71 l 1,34,35
 243 61 243 61 275 61 c 0,36,37
 333 61 333 61 378.5 99 c 128,-1,38
 424 137 424 137 450 195 c 0,39,40
 500 310 500 310 500 421 c 128,-1,41
 500 532 500 532 458 592 c 1,33,-1
EndSplineSet
EndChar

StartChar: Ugrave
Encoding: 217 217 156
Width: 598
GlyphClass: 2
Flags: W
LayerCount: 2
Fore
SplineSet
273 -6 m 0,0,1
 88 -6 88 -6 88 190 c 0,2,3
 88 218 88 218 93 258 c 2,4,-1
 155 700 l 1,5,-1
 223 700 l 1,6,-1
 160 246 l 2,7,8
 156 222 156 222 156 198 c 0,9,10
 156 131 156 131 188.5 95 c 128,-1,11
 221 59 221 59 286 59 c 128,-1,12
 351 59 351 59 397.5 107.5 c 128,-1,13
 444 156 444 156 457 246 c 2,14,-1
 520 700 l 1,15,-1
 589 700 l 1,16,-1
 527 258 l 2,17,18
 509 127 509 127 444 60.5 c 128,-1,19
 379 -6 379 -6 273 -6 c 0,0,1
381 754 m 1,20,-1
 326 754 l 1,21,-1
 256 878 l 1,22,-1
 332 878 l 1,23,-1
 381 754 l 1,20,-1
EndSplineSet
EndChar

StartChar: Uacute
Encoding: 218 218 157
Width: 598
GlyphClass: 2
Flags: W
LayerCount: 2
Fore
SplineSet
273 -6 m 0,0,1
 88 -6 88 -6 88 190 c 0,2,3
 88 218 88 218 93 258 c 2,4,-1
 155 700 l 1,5,-1
 223 700 l 1,6,-1
 160 246 l 2,7,8
 156 222 156 222 156 198 c 0,9,10
 156 131 156 131 188.5 95 c 128,-1,11
 221 59 221 59 286 59 c 128,-1,12
 351 59 351 59 397.5 107.5 c 128,-1,13
 444 156 444 156 457 246 c 2,14,-1
 520 700 l 1,15,-1
 589 700 l 1,16,-1
 527 258 l 2,17,18
 509 127 509 127 444 60.5 c 128,-1,19
 379 -6 379 -6 273 -6 c 0,0,1
319 753 m 1,20,-1
 404 877 l 1,21,-1
 480 877 l 1,22,-1
 374 753 l 1,23,-1
 319 753 l 1,20,-1
EndSplineSet
EndChar

StartChar: Ucircumflex
Encoding: 219 219 158
Width: 598
GlyphClass: 2
Flags: W
LayerCount: 2
Fore
SplineSet
273 -6 m 0,0,1
 88 -6 88 -6 88 190 c 0,2,3
 88 218 88 218 93 258 c 2,4,-1
 155 700 l 1,5,-1
 223 700 l 1,6,-1
 160 246 l 2,7,8
 156 222 156 222 156 198 c 0,9,10
 156 131 156 131 188.5 95 c 128,-1,11
 221 59 221 59 286 59 c 128,-1,12
 351 59 351 59 397.5 107.5 c 128,-1,13
 444 156 444 156 457 246 c 2,14,-1
 520 700 l 1,15,-1
 589 700 l 1,16,-1
 527 258 l 2,17,18
 509 127 509 127 444 60.5 c 128,-1,19
 379 -6 379 -6 273 -6 c 0,0,1
348 883 m 1,20,-1
 391 883 l 1,21,-1
 499 783 l 1,22,-1
 478 754 l 1,23,-1
 361 829 l 1,24,-1
 223 754 l 1,25,-1
 210 783 l 1,26,-1
 348 883 l 1,20,-1
EndSplineSet
EndChar

StartChar: Yacute
Encoding: 221 221 160
Width: 496
GlyphClass: 2
Flags: W
LayerCount: 2
Fore
SplineSet
552 700 m 1,0,-1
 291 315 l 1,1,-1
 247 0 l 1,2,-1
 179 0 l 1,3,-1
 223 315 l 1,4,-1
 78 700 l 1,5,-1
 153 700 l 1,6,-1
 267 376 l 1,7,-1
 479 700 l 1,8,-1
 552 700 l 1,0,-1
279 752 m 1,9,-1
 364 876 l 1,10,-1
 440 876 l 1,11,-1
 334 752 l 1,12,-1
 279 752 l 1,9,-1
EndSplineSet
EndChar

StartChar: Thorn
Encoding: 222 222 161
Width: 491
GlyphClass: 2
Flags: W
LayerCount: 2
Fore
SplineSet
308 590 m 2,0,1
 392 590 392 590 438.5 549.5 c 128,-1,2
 485 509 485 509 485 442 c 0,3,4
 485 317 485 317 421.5 250.5 c 128,-1,5
 358 184 358 184 240 184 c 2,6,-1
 148 184 l 1,7,-1
 122 0 l 1,8,-1
 55 0 l 1,9,-1
 153 700 l 1,10,-1
 220 700 l 1,11,-1
 205 590 l 1,12,-1
 308 590 l 2,0,1
278 526 m 2,13,-1
 196 526 l 1,14,-1
 157 248 l 1,15,-1
 217 248 l 2,16,17
 315 248 315 248 363 288 c 128,-1,18
 411 328 411 328 411 421 c 0,19,20
 411 477 411 477 381.5 501.5 c 128,-1,21
 352 526 352 526 278 526 c 2,13,-1
EndSplineSet
EndChar

StartChar: germandbls
Encoding: 223 223 162
Width: 511
GlyphClass: 2
Flags: W
LayerCount: 2
Fore
SplineSet
192 667 m 128,-1,1
 239 710 239 710 325.5 710 c 128,-1,2
 412 710 412 710 454.5 667.5 c 128,-1,3
 497 625 497 625 497 558 c 128,-1,4
 497 491 497 491 455 439.5 c 128,-1,5
 413 388 413 388 364 382 c 1,6,7
 414 374 414 374 445 334.5 c 128,-1,8
 476 295 476 295 476 232 c 0,9,10
 476 120 476 120 408.5 57 c 128,-1,11
 341 -6 341 -6 250 -6 c 0,12,13
 220 -6 220 -6 193 -1 c 1,14,-1
 200 52 l 1,15,16
 299 52 299 52 354 97 c 128,-1,17
 409 142 409 142 409 227 c 0,18,19
 409 274 409 274 375.5 308 c 128,-1,20
 342 342 342 342 277 343 c 1,21,-1
 251 343 l 1,22,-1
 260 407 l 1,23,-1
 285 407 l 2,24,25
 339 407 339 407 384.5 449 c 128,-1,26
 430 491 430 491 430 549 c 0,27,28
 430 592 430 592 403.5 618.5 c 128,-1,29
 377 645 377 645 331 645 c 0,30,31
 258 645 258 645 231 609.5 c 128,-1,32
 204 574 204 574 194 498 c 2,33,-1
 124 0 l 1,34,-1
 57 0 l 1,35,-1
 132 532 l 2,36,0
 145 624 145 624 192 667 c 128,-1,1
EndSplineSet
EndChar

StartChar: agrave
Encoding: 224 224 163
Width: 464
GlyphClass: 2
Flags: W
LayerCount: 2
Fore
SplineSet
156 -7 m 0,0,1
 24 -7 24 -7 24 167 c 0,2,3
 24 300 24 300 73 398 c 0,4,5
 98 449 98 449 143 479.5 c 128,-1,6
 188 510 188 510 246 510 c 0,7,8
 334 510 334 510 379 446 c 1,9,-1
 395 500 l 1,10,-1
 435 500 l 1,11,-1
 364 0 l 1,12,-1
 325 0 l 1,13,-1
 309 59 l 1,14,-1
 296 48 l 2,15,16
 231 -7 231 -7 156 -7 c 0,0,1
351 400 m 1,17,18
 304 445 304 445 255.5 445 c 128,-1,19
 207 445 207 445 175 421 c 128,-1,20
 143 397 143 397 126 356 c 0,21,22
 94 280 94 280 94 178 c 0,23,24
 94 58 94 58 169 58 c 0,25,26
 222 58 222 58 268 99.5 c 128,-1,27
 314 141 314 141 323 205 c 2,28,-1
 351 400 l 1,17,18
315 592 m 1,29,-1
 259 571 l 1,30,-1
 160 703 l 1,31,-1
 233 733 l 1,32,-1
 315 592 l 1,29,-1
EndSplineSet
EndChar

StartChar: aacute
Encoding: 225 225 164
Width: 464
GlyphClass: 2
Flags: W
LayerCount: 2
Fore
SplineSet
156 -7 m 0,0,1
 24 -7 24 -7 24 167 c 0,2,3
 24 300 24 300 73 398 c 0,4,5
 98 449 98 449 143 479.5 c 128,-1,6
 188 510 188 510 246 510 c 0,7,8
 334 510 334 510 379 446 c 1,9,-1
 395 500 l 1,10,-1
 435 500 l 1,11,-1
 364 0 l 1,12,-1
 325 0 l 1,13,-1
 309 59 l 1,14,-1
 296 48 l 2,15,16
 231 -7 231 -7 156 -7 c 0,0,1
351 400 m 1,17,18
 304 445 304 445 255.5 445 c 128,-1,19
 207 445 207 445 175 421 c 128,-1,20
 143 397 143 397 126 356 c 0,21,22
 94 280 94 280 94 178 c 0,23,24
 94 58 94 58 169 58 c 0,25,26
 222 58 222 58 268 99.5 c 128,-1,27
 314 141 314 141 323 205 c 2,28,-1
 351 400 l 1,17,18
302 571 m 1,29,-1
 252 592 l 1,30,-1
 374 733 l 1,31,-1
 437 703 l 1,32,-1
 302 571 l 1,29,-1
EndSplineSet
EndChar

StartChar: acircumflex
Encoding: 226 226 165
Width: 464
GlyphClass: 2
Flags: W
LayerCount: 2
Fore
SplineSet
156 -7 m 0,0,1
 24 -7 24 -7 24 167 c 0,2,3
 24 300 24 300 73 398 c 0,4,5
 98 449 98 449 143 479.5 c 128,-1,6
 188 510 188 510 246 510 c 0,7,8
 334 510 334 510 379 446 c 1,9,-1
 395 500 l 1,10,-1
 435 500 l 1,11,-1
 364 0 l 1,12,-1
 325 0 l 1,13,-1
 309 59 l 1,14,-1
 296 48 l 2,15,16
 231 -7 231 -7 156 -7 c 0,0,1
351 400 m 1,17,18
 304 445 304 445 255.5 445 c 128,-1,19
 207 445 207 445 175 421 c 128,-1,20
 143 397 143 397 126 356 c 0,21,22
 94 280 94 280 94 178 c 0,23,24
 94 58 94 58 169 58 c 0,25,26
 222 58 222 58 268 99.5 c 128,-1,27
 314 141 314 141 323 205 c 2,28,-1
 351 400 l 1,17,18
272 712 m 1,29,-1
 315 712 l 1,30,-1
 423 612 l 1,31,-1
 402 583 l 1,32,-1
 285 658 l 1,33,-1
 147 583 l 1,34,-1
 134 612 l 1,35,-1
 272 712 l 1,29,-1
EndSplineSet
EndChar

StartChar: atilde
Encoding: 227 227 166
Width: 464
GlyphClass: 2
Flags: W
LayerCount: 2
Fore
SplineSet
156 -7 m 0,0,1
 24 -7 24 -7 24 167 c 0,2,3
 24 300 24 300 73 398 c 0,4,5
 98 449 98 449 143 479.5 c 128,-1,6
 188 510 188 510 246 510 c 0,7,8
 334 510 334 510 379 446 c 1,9,-1
 395 500 l 1,10,-1
 435 500 l 1,11,-1
 364 0 l 1,12,-1
 325 0 l 1,13,-1
 309 59 l 1,14,-1
 296 48 l 2,15,16
 231 -7 231 -7 156 -7 c 0,0,1
351 400 m 1,17,18
 304 445 304 445 255.5 445 c 128,-1,19
 207 445 207 445 175 421 c 128,-1,20
 143 397 143 397 126 356 c 0,21,22
 94 280 94 280 94 178 c 0,23,24
 94 58 94 58 169 58 c 0,25,26
 222 58 222 58 268 99.5 c 128,-1,27
 314 141 314 141 323 205 c 2,28,-1
 351 400 l 1,17,18
338.5 580 m 128,-1,30
 321 580 321 580 273 607.5 c 128,-1,31
 225 635 225 635 213 635 c 128,-1,32
 201 635 201 635 186.5 625.5 c 128,-1,33
 172 616 172 616 155 597 c 1,34,-1
 130 630 l 1,35,36
 148 654 148 654 177 677 c 128,-1,37
 206 700 206 700 223.5 700 c 128,-1,38
 241 700 241 700 289 672.5 c 128,-1,39
 337 645 337 645 349 645 c 128,-1,40
 361 645 361 645 375.5 654.5 c 128,-1,41
 390 664 390 664 407 683 c 1,42,-1
 433 657 l 1,43,-1
 432 650 l 1,44,45
 414 626 414 626 385 603 c 128,-1,29
 356 580 356 580 338.5 580 c 128,-1,30
EndSplineSet
EndChar

StartChar: adieresis
Encoding: 228 228 167
Width: 464
GlyphClass: 2
Flags: W
LayerCount: 2
Fore
SplineSet
156 -7 m 0,0,1
 24 -7 24 -7 24 167 c 0,2,3
 24 300 24 300 73 398 c 0,4,5
 98 449 98 449 143 479.5 c 128,-1,6
 188 510 188 510 246 510 c 0,7,8
 334 510 334 510 379 446 c 1,9,-1
 395 500 l 1,10,-1
 435 500 l 1,11,-1
 364 0 l 1,12,-1
 325 0 l 1,13,-1
 309 59 l 1,14,-1
 296 48 l 2,15,16
 231 -7 231 -7 156 -7 c 0,0,1
351 400 m 1,17,18
 304 445 304 445 255.5 445 c 128,-1,19
 207 445 207 445 175 421 c 128,-1,20
 143 397 143 397 126 356 c 0,21,22
 94 280 94 280 94 178 c 0,23,24
 94 58 94 58 169 58 c 0,25,26
 222 58 222 58 268 99.5 c 128,-1,27
 314 141 314 141 323 205 c 2,28,-1
 351 400 l 1,17,18
164 594 m 1,29,-1
 178 700 l 1,30,-1
 242 700 l 1,31,-1
 228 594 l 1,32,-1
 164 594 l 1,29,-1
326 594 m 1,33,-1
 340 700 l 1,34,-1
 403 700 l 1,35,-1
 389 594 l 1,36,-1
 326 594 l 1,33,-1
EndSplineSet
EndChar

StartChar: aring
Encoding: 229 229 168
Width: 464
GlyphClass: 2
Flags: W
LayerCount: 2
Fore
SplineSet
156 -7 m 0,0,1
 24 -7 24 -7 24 167 c 0,2,3
 24 300 24 300 73 398 c 0,4,5
 98 449 98 449 143 479.5 c 128,-1,6
 188 510 188 510 246 510 c 0,7,8
 334 510 334 510 379 446 c 1,9,-1
 395 500 l 1,10,-1
 435 500 l 1,11,-1
 364 0 l 1,12,-1
 325 0 l 1,13,-1
 309 59 l 1,14,-1
 296 48 l 2,15,16
 231 -7 231 -7 156 -7 c 0,0,1
351 400 m 1,17,18
 304 445 304 445 255.5 445 c 128,-1,19
 207 445 207 445 175 421 c 128,-1,20
 143 397 143 397 126 356 c 0,21,22
 94 280 94 280 94 178 c 0,23,24
 94 58 94 58 169 58 c 0,25,26
 222 58 222 58 268 99.5 c 128,-1,27
 314 141 314 141 323 205 c 2,28,-1
 351 400 l 1,17,18
288 772 m 0,29,30
 376 772 376 772 376 686 c 0,31,32
 376 628 376 628 348 590 c 128,-1,33
 320 552 320 552 259 552 c 0,34,35
 171 552 171 552 171 638 c 0,36,37
 171 696 171 696 199 734 c 128,-1,38
 227 772 227 772 288 772 c 0,29,30
264 596 m 0,39,40
 295 596 295 596 310 621 c 128,-1,41
 325 646 325 646 325 682 c 0,42,43
 325 728 325 728 283 728 c 0,44,45
 252 728 252 728 237 703 c 128,-1,46
 222 678 222 678 222 642 c 0,47,48
 222 596 222 596 264 596 c 0,39,40
EndSplineSet
EndChar

StartChar: ae
Encoding: 230 230 169
Width: 711
GlyphClass: 2
Flags: W
LayerCount: 2
Fore
SplineSet
157 -7 m 0,0,1
 25 -7 25 -7 25 167 c 0,2,3
 25 300 25 300 74 398 c 0,4,5
 99 449 99 449 144 479.5 c 128,-1,6
 189 510 189 510 247 510 c 0,7,8
 336 510 336 510 382 466 c 1,9,-1
 396 500 l 1,10,-1
 436 500 l 1,11,-1
 432 470 l 1,12,13
 482 510 482 510 549.5 510 c 128,-1,14
 617 510 617 510 654.5 477 c 128,-1,15
 692 444 692 444 692 381 c 128,-1,16
 692 318 692 318 631 274.5 c 128,-1,17
 570 231 570 231 448 231 c 0,18,19
 423 231 423 231 393 234 c 1,20,21
 389 211 389 211 389 188 c 0,22,23
 389 118 389 118 423 88 c 128,-1,24
 457 58 457 58 510 58 c 0,25,26
 550 58 550 58 590 72 c 1,27,-1
 637 87 l 1,28,-1
 639 29 l 1,29,30
 544 -6 544 -6 494 -6 c 0,31,32
 377 -6 377 -6 339 85 c 1,33,-1
 341 99 l 1,34,35
 263 -7 263 -7 157 -7 c 0,0,1
354 420 m 1,36,37
 309 445 309 445 258.5 445 c 128,-1,38
 208 445 208 445 176 421 c 128,-1,39
 144 397 144 397 127 356 c 0,40,41
 95 280 95 280 95 178 c 0,42,43
 95 58 95 58 170 58 c 0,44,45
 223 58 223 58 269 99.5 c 128,-1,46
 315 141 315 141 324 205 c 2,47,-1
 354 420 l 1,36,37
453 288 m 0,48,49
 526 288 526 288 576.5 311 c 128,-1,50
 627 334 627 334 627 381 c 0,51,52
 627 445 627 445 540 445 c 0,53,54
 438 445 438 445 404 291 c 1,55,56
 428 288 428 288 453 288 c 0,48,49
EndSplineSet
EndChar

StartChar: ccedilla
Encoding: 231 231 170
Width: 390
GlyphClass: 2
Flags: W
LayerCount: 2
Fore
SplineSet
53 187 m 0,0,1
 53 315 53 315 104 408 c 1,2,3
 131 455 131 455 179 482.5 c 128,-1,4
 227 510 227 510 281 510 c 128,-1,5
 335 510 335 510 407 486 c 1,6,-1
 372 428 l 1,7,8
 326 444 326 444 283 444 c 128,-1,9
 240 444 240 444 207.5 420.5 c 128,-1,10
 175 397 175 397 158 358 c 1,11,12
 128 284 128 284 128 191 c 0,13,14
 128 60 128 60 230 60 c 0,15,16
 280 60 280 60 340 78 c 1,17,-1
 344 19 l 1,18,19
 286 0 286 0 241 -4 c 1,20,21
 234 -51 234 -51 219 -84.5 c 128,-1,22
 204 -118 204 -118 160 -182 c 1,23,-1
 120 -151 l 1,24,25
 153 -97 153 -97 164 -72 c 128,-1,26
 175 -47 175 -47 181 -2 c 1,27,28
 53 17 53 17 53 187 c 0,0,1
EndSplineSet
EndChar

StartChar: ecircumflex
Encoding: 234 234 173
Width: 440
GlyphClass: 2
Flags: W
LayerCount: 2
Fore
SplineSet
225 -6 m 0,0,1
 145 -6 145 -6 98.5 40.5 c 128,-1,2
 52 87 52 87 52 184 c 0,3,4
 52 303 52 303 105 402 c 0,5,6
 131 450 131 450 176.5 480 c 128,-1,7
 222 510 222 510 285 510 c 128,-1,8
 348 510 348 510 385.5 477 c 128,-1,9
 423 444 423 444 423 381 c 128,-1,10
 423 318 423 318 362 274.5 c 128,-1,11
 301 231 301 231 179 231 c 0,12,13
 154 231 154 231 124 234 c 1,14,15
 120 211 120 211 120 188 c 0,16,17
 120 118 120 118 154 88 c 128,-1,18
 188 58 188 58 241 58 c 0,19,20
 281 58 281 58 322 72 c 2,21,-1
 368 87 l 1,22,-1
 370 29 l 1,23,24
 275 -6 275 -6 225 -6 c 0,0,1
184 288 m 0,25,26
 257 288 257 288 307.5 311 c 128,-1,27
 358 334 358 334 358 381 c 0,28,29
 358 445 358 445 271 445 c 0,30,31
 169 445 169 445 135 291 c 1,32,33
 159 288 159 288 184 288 c 0,25,26
280 712 m 1,34,-1
 323 712 l 1,35,-1
 431 612 l 1,36,-1
 410 583 l 1,37,-1
 293 658 l 1,38,-1
 155 583 l 1,39,-1
 142 612 l 1,40,-1
 280 712 l 1,34,-1
EndSplineSet
EndChar

StartChar: edieresis
Encoding: 235 235 174
Width: 440
GlyphClass: 2
Flags: W
LayerCount: 2
Fore
SplineSet
225 -6 m 0,0,1
 145 -6 145 -6 98.5 40.5 c 128,-1,2
 52 87 52 87 52 184 c 0,3,4
 52 303 52 303 105 402 c 0,5,6
 131 450 131 450 176.5 480 c 128,-1,7
 222 510 222 510 285 510 c 128,-1,8
 348 510 348 510 385.5 477 c 128,-1,9
 423 444 423 444 423 381 c 128,-1,10
 423 318 423 318 362 274.5 c 128,-1,11
 301 231 301 231 179 231 c 0,12,13
 154 231 154 231 124 234 c 1,14,15
 120 211 120 211 120 188 c 0,16,17
 120 118 120 118 154 88 c 128,-1,18
 188 58 188 58 241 58 c 0,19,20
 281 58 281 58 322 72 c 2,21,-1
 368 87 l 1,22,-1
 370 29 l 1,23,24
 275 -6 275 -6 225 -6 c 0,0,1
184 288 m 0,25,26
 257 288 257 288 307.5 311 c 128,-1,27
 358 334 358 334 358 381 c 0,28,29
 358 445 358 445 271 445 c 0,30,31
 169 445 169 445 135 291 c 1,32,33
 159 288 159 288 184 288 c 0,25,26
170 595 m 1,34,-1
 184 701 l 1,35,-1
 248 701 l 1,36,-1
 234 595 l 1,37,-1
 170 595 l 1,34,-1
332 595 m 1,38,-1
 346 701 l 1,39,-1
 409 701 l 1,40,-1
 395 595 l 1,41,-1
 332 595 l 1,38,-1
EndSplineSet
EndChar

StartChar: igrave
Encoding: 236 236 175
Width: 204
GlyphClass: 2
Flags: W
LayerCount: 2
Fore
SplineSet
52 0 m 1,0,-1
 122 500 l 1,1,-1
 187 500 l 1,2,-1
 117 0 l 1,3,-1
 52 0 l 1,0,-1
157 586 m 1,4,-1
 101 565 l 1,5,-1
 2 697 l 1,6,-1
 75 727 l 1,7,-1
 157 586 l 1,4,-1
EndSplineSet
EndChar

StartChar: iacute
Encoding: 237 237 176
Width: 204
GlyphClass: 2
Flags: W
LayerCount: 2
Fore
SplineSet
52 0 m 1,0,-1
 122 500 l 1,1,-1
 187 500 l 1,2,-1
 117 0 l 1,3,-1
 52 0 l 1,0,-1
143 571 m 1,4,-1
 93 592 l 1,5,-1
 215 733 l 1,6,-1
 278 703 l 1,7,-1
 143 571 l 1,4,-1
EndSplineSet
EndChar

StartChar: icircumflex
Encoding: 238 238 177
Width: 206
GlyphClass: 2
Flags: W
LayerCount: 2
Fore
SplineSet
52 0 m 1,0,-1
 122 500 l 1,1,-1
 189 500 l 1,2,-1
 119 0 l 1,3,-1
 52 0 l 1,0,-1
113 712 m 1,4,-1
 156 712 l 1,5,-1
 264 612 l 1,6,-1
 243 583 l 1,7,-1
 126 658 l 1,8,-1
 -12 583 l 1,9,-1
 -25 612 l 1,10,-1
 113 712 l 1,4,-1
EndSplineSet
EndChar

StartChar: idieresis
Encoding: 239 239 178
Width: 206
GlyphClass: 2
Flags: W
LayerCount: 2
Fore
SplineSet
52 0 m 1,0,-1
 122 500 l 1,1,-1
 189 500 l 1,2,-1
 119 0 l 1,3,-1
 52 0 l 1,0,-1
4 594 m 1,4,-1
 18 700 l 1,5,-1
 82 700 l 1,6,-1
 68 594 l 1,7,-1
 4 594 l 1,4,-1
166 594 m 1,8,-1
 180 700 l 1,9,-1
 243 700 l 1,10,-1
 229 594 l 1,11,-1
 166 594 l 1,8,-1
EndSplineSet
EndChar

StartChar: eth
Encoding: 240 240 179
Width: 516
GlyphClass: 2
Flags: W
LayerCount: 2
Fore
SplineSet
301 443 m 0,0,1
 222 443 222 443 185.5 370.5 c 128,-1,2
 149 298 149 298 149 188 c 0,3,4
 149 59 149 59 248 59 c 0,5,6
 325 59 325 59 366.5 132 c 128,-1,7
 408 205 408 205 408 316 c 0,8,9
 408 443 408 443 301 443 c 0,0,1
449 449 m 0,10,11
 479 403 479 403 479 320 c 128,-1,12
 479 237 479 237 453.5 163 c 128,-1,13
 428 89 428 89 372.5 41.5 c 128,-1,14
 317 -6 317 -6 239 -6 c 128,-1,15
 161 -6 161 -6 120 44.5 c 128,-1,16
 79 95 79 95 79 186 c 0,17,18
 79 510 79 510 322 511 c 1,19,-1
 249 609 l 1,20,-1
 142 548 l 1,21,-1
 113 588 l 1,22,-1
 223 651 l 1,23,24
 164 713 164 713 152 723 c 1,25,-1
 204 758 l 1,26,-1
 275 681 l 1,27,-1
 384 739 l 1,28,-1
 413 701 l 1,29,-1
 303 643 l 1,30,31
 407 515 407 515 449 449 c 0,10,11
EndSplineSet
EndChar

StartChar: ntilde
Encoding: 241 241 180
Width: 499
GlyphClass: 2
Flags: W
LayerCount: 2
Fore
SplineSet
302 446 m 0,0,1
 239 446 239 446 186 397 c 1,2,-1
 131 0 l 1,3,-1
 64 0 l 1,4,-1
 134 500 l 1,5,-1
 177 500 l 1,6,-1
 181 451 l 1,7,8
 204 469 204 469 218.5 479 c 128,-1,9
 233 489 233 489 263 499.5 c 128,-1,10
 293 510 293 510 325 510 c 0,11,12
 380 510 380 510 414.5 477 c 128,-1,13
 449 444 449 444 449 382 c 0,14,15
 449 365 449 365 446 347 c 2,16,-1
 398 0 l 1,17,-1
 331 0 l 1,18,19
 379 347 379 347 379 359 c 0,20,21
 379 446 379 446 302 446 c 0,0,1
373.5 579 m 128,-1,23
 356 579 356 579 308 606.5 c 128,-1,24
 260 634 260 634 248 634 c 128,-1,25
 236 634 236 634 221.5 624.5 c 128,-1,26
 207 615 207 615 190 596 c 1,27,-1
 165 629 l 1,28,29
 183 653 183 653 212 676 c 128,-1,30
 241 699 241 699 258.5 699 c 128,-1,31
 276 699 276 699 324 671.5 c 128,-1,32
 372 644 372 644 384 644 c 128,-1,33
 396 644 396 644 410.5 653.5 c 128,-1,34
 425 663 425 663 442 682 c 1,35,-1
 468 656 l 1,36,-1
 467 649 l 1,37,38
 449 625 449 625 420 602 c 128,-1,22
 391 579 391 579 373.5 579 c 128,-1,23
EndSplineSet
EndChar

StartChar: ograve
Encoding: 242 242 181
Width: 466
GlyphClass: 2
Flags: W
LayerCount: 2
Fore
SplineSet
274 445 m 0,0,1
 195 445 195 445 157 374 c 128,-1,2
 119 303 119 303 119 214.5 c 128,-1,3
 119 126 119 126 142 92.5 c 128,-1,4
 165 59 165 59 218 59 c 0,5,6
 299 59 299 59 339 125.5 c 128,-1,7
 379 192 379 192 379 281 c 128,-1,8
 379 370 379 370 353.5 407.5 c 128,-1,9
 328 445 328 445 274 445 c 0,0,1
212 -6 m 0,10,11
 50 -6 50 -6 50 199 c 0,12,13
 50 333 50 333 112 421.5 c 128,-1,14
 174 510 174 510 283 510 c 0,15,16
 363 510 363 510 405.5 457 c 128,-1,17
 448 404 448 404 448 299 c 0,18,19
 448 169 448 169 386.5 81.5 c 128,-1,20
 325 -6 325 -6 212 -6 c 0,10,11
331 592 m 1,21,-1
 275 571 l 1,22,-1
 176 703 l 1,23,-1
 249 733 l 1,24,-1
 331 592 l 1,21,-1
EndSplineSet
EndChar

StartChar: oacute
Encoding: 243 243 182
Width: 466
GlyphClass: 2
Flags: W
LayerCount: 2
Fore
SplineSet
274 445 m 0,0,1
 195 445 195 445 157 374 c 128,-1,2
 119 303 119 303 119 214.5 c 128,-1,3
 119 126 119 126 142 92.5 c 128,-1,4
 165 59 165 59 218 59 c 0,5,6
 299 59 299 59 339 125.5 c 128,-1,7
 379 192 379 192 379 281 c 128,-1,8
 379 370 379 370 353.5 407.5 c 128,-1,9
 328 445 328 445 274 445 c 0,0,1
212 -6 m 0,10,11
 50 -6 50 -6 50 199 c 0,12,13
 50 333 50 333 112 421.5 c 128,-1,14
 174 510 174 510 283 510 c 0,15,16
 363 510 363 510 405.5 457 c 128,-1,17
 448 404 448 404 448 299 c 0,18,19
 448 169 448 169 386.5 81.5 c 128,-1,20
 325 -6 325 -6 212 -6 c 0,10,11
283 571 m 1,21,-1
 233 592 l 1,22,-1
 355 733 l 1,23,-1
 418 703 l 1,24,-1
 283 571 l 1,21,-1
EndSplineSet
EndChar

StartChar: otilde
Encoding: 245 245 184
Width: 466
GlyphClass: 2
Flags: W
LayerCount: 2
Fore
SplineSet
274 445 m 0,0,1
 195 445 195 445 157 374 c 128,-1,2
 119 303 119 303 119 214.5 c 128,-1,3
 119 126 119 126 142 92.5 c 128,-1,4
 165 59 165 59 218 59 c 0,5,6
 299 59 299 59 339 125.5 c 128,-1,7
 379 192 379 192 379 281 c 128,-1,8
 379 370 379 370 353.5 407.5 c 128,-1,9
 328 445 328 445 274 445 c 0,0,1
212 -6 m 0,10,11
 50 -6 50 -6 50 199 c 0,12,13
 50 333 50 333 112 421.5 c 128,-1,14
 174 510 174 510 283 510 c 0,15,16
 363 510 363 510 405.5 457 c 128,-1,17
 448 404 448 404 448 299 c 0,18,19
 448 169 448 169 386.5 81.5 c 128,-1,20
 325 -6 325 -6 212 -6 c 0,10,11
358.5 580 m 128,-1,22
 341 580 341 580 293 607.5 c 128,-1,23
 245 635 245 635 233 635 c 128,-1,24
 221 635 221 635 206.5 625.5 c 128,-1,25
 192 616 192 616 175 597 c 1,26,-1
 150 630 l 1,27,28
 168 654 168 654 197 677 c 128,-1,29
 226 700 226 700 243.5 700 c 128,-1,30
 261 700 261 700 309 672.5 c 128,-1,31
 357 645 357 645 369 645 c 128,-1,32
 381 645 381 645 395.5 654.5 c 128,-1,33
 410 664 410 664 427 683 c 1,34,-1
 453 657 l 1,35,-1
 452 650 l 1,36,37
 434 626 434 626 405 603 c 128,-1,21
 376 580 376 580 358.5 580 c 128,-1,22
EndSplineSet
EndChar

StartChar: divide
Encoding: 247 247 186
Width: 472
GlyphClass: 2
Flags: W
LayerCount: 2
Fore
SplineSet
257 0 m 1,0,-1
 189 0 l 1,1,-1
 204 106 l 1,2,-1
 272 106 l 1,3,-1
 257 0 l 1,0,-1
312 394 m 1,4,-1
 244 394 l 1,5,-1
 259 500 l 1,6,-1
 327 500 l 1,7,-1
 312 394 l 1,4,-1
444 228 m 1,8,-1
 56 228 l 1,9,-1
 65 293 l 1,10,-1
 453 293 l 1,11,-1
 444 228 l 1,8,-1
EndSplineSet
EndChar

StartChar: oslash
Encoding: 248 248 187
Width: 466
GlyphClass: 2
Flags: W
LayerCount: 2
Fore
SplineSet
212 -6 m 0,0,1
 143 -6 143 -6 105 28 c 1,2,-1
 42 -43 l 1,3,-1
 1 1 l 1,4,-1
 70 79 l 1,5,6
 50 125 50 125 50 199 c 0,7,8
 50 333 50 333 112 421.5 c 128,-1,9
 174 510 174 510 283 510 c 0,10,11
 363 510 363 510 405 457 c 1,12,-1
 483 545 l 1,13,-1
 530 507 l 1,14,-1
 435 399 l 1,15,16
 448 359 448 359 448 299 c 0,17,18
 448 169 448 169 386.5 81.5 c 128,-1,19
 325 -6 325 -6 212 -6 c 0,0,1
274 447 m 0,20,21
 233 447 233 447 202 426 c 128,-1,22
 171 405 171 405 154 369 c 0,23,24
 119 298 119 298 119 201 c 0,25,26
 119 166 119 166 124 136 c 1,27,-1
 359 399 l 1,28,29
 334 447 334 447 274 447 c 0,20,21
379 292 m 0,30,31
 379 317 379 317 376 338 c 1,32,-1
 148 82 l 1,33,34
 172 57 172 57 218 57 c 0,35,36
 299 57 299 57 339 124 c 128,-1,37
 379 191 379 191 379 292 c 0,30,31
EndSplineSet
EndChar

StartChar: ugrave
Encoding: 249 249 188
Width: 499
GlyphClass: 2
Flags: W
LayerCount: 2
Fore
SplineSet
284.5 80 m 128,-1,1
 325 102 325 102 348 127 c 1,2,-1
 400 500 l 1,3,-1
 468 500 l 1,4,-1
 398 0 l 1,5,-1
 359 0 l 1,6,-1
 344 59 l 1,7,8
 264 -6 264 -6 191 -6 c 0,9,10
 140 -6 140 -6 111.5 26 c 128,-1,11
 83 58 83 58 83 117 c 0,12,13
 83 136 83 136 86 157 c 2,14,-1
 134 500 l 1,15,-1
 201 500 l 1,16,17
 151 140 151 140 151 125 c 0,18,19
 151 90 151 90 165 74 c 128,-1,20
 179 58 179 58 211.5 58 c 128,-1,0
 244 58 244 58 284.5 80 c 128,-1,1
337 592 m 1,21,-1
 281 571 l 1,22,-1
 182 703 l 1,23,-1
 255 733 l 1,24,-1
 337 592 l 1,21,-1
EndSplineSet
EndChar

StartChar: uacute
Encoding: 250 250 189
Width: 499
GlyphClass: 2
Flags: W
LayerCount: 2
Fore
SplineSet
191 -6 m 0,0,1
 140 -6 140 -6 111.5 26 c 128,-1,2
 83 58 83 58 83 117 c 0,3,4
 83 136 83 136 86 157 c 2,5,-1
 134 500 l 1,6,-1
 201 500 l 1,7,8
 151 140 151 140 151 115 c 128,-1,9
 151 90 151 90 165 74 c 128,-1,10
 179 58 179 58 211.5 58 c 128,-1,11
 244 58 244 58 284.5 80 c 128,-1,12
 325 102 325 102 348 127 c 1,13,-1
 400 500 l 1,14,-1
 468 500 l 1,15,-1
 398 0 l 1,16,-1
 359 0 l 1,17,-1
 344 59 l 1,18,19
 264 -6 264 -6 191 -6 c 0,0,1
279 571 m 1,20,-1
 229 592 l 1,21,-1
 351 733 l 1,22,-1
 414 703 l 1,23,-1
 279 571 l 1,20,-1
EndSplineSet
EndChar

StartChar: ucircumflex
Encoding: 251 251 190
Width: 499
GlyphClass: 2
Flags: W
LayerCount: 2
Fore
SplineSet
191 -6 m 0,0,1
 140 -6 140 -6 111.5 26 c 128,-1,2
 83 58 83 58 83 117 c 0,3,4
 83 136 83 136 86 157 c 2,5,-1
 134 500 l 1,6,-1
 201 500 l 1,7,8
 151 140 151 140 151 115 c 128,-1,9
 151 90 151 90 165 74 c 128,-1,10
 179 58 179 58 211.5 58 c 128,-1,11
 244 58 244 58 284.5 80 c 128,-1,12
 325 102 325 102 348 127 c 1,13,-1
 400 500 l 1,14,-1
 468 500 l 1,15,-1
 398 0 l 1,16,-1
 359 0 l 1,17,-1
 344 59 l 1,18,19
 264 -6 264 -6 191 -6 c 0,0,1
274 712 m 1,20,-1
 317 712 l 1,21,-1
 425 612 l 1,22,-1
 404 583 l 1,23,-1
 287 658 l 1,24,-1
 149 583 l 1,25,-1
 136 612 l 1,26,-1
 274 712 l 1,20,-1
EndSplineSet
EndChar

StartChar: udieresis
Encoding: 252 252 191
Width: 499
GlyphClass: 2
Flags: W
LayerCount: 2
Fore
SplineSet
284.5 80 m 128,-1,1
 325 102 325 102 348 127 c 1,2,-1
 400 500 l 1,3,-1
 468 500 l 1,4,-1
 398 0 l 1,5,-1
 359 0 l 1,6,-1
 344 59 l 1,7,8
 264 -6 264 -6 191 -6 c 0,9,10
 140 -6 140 -6 111.5 26 c 128,-1,11
 83 58 83 58 83 117 c 0,12,13
 83 136 83 136 86 157 c 2,14,-1
 134 500 l 1,15,-1
 201 500 l 1,16,17
 151 140 151 140 151 125 c 0,18,19
 151 90 151 90 165 74 c 128,-1,20
 179 58 179 58 211.5 58 c 128,-1,0
 244 58 244 58 284.5 80 c 128,-1,1
165 594 m 1,21,-1
 179 700 l 1,22,-1
 243 700 l 1,23,-1
 229 594 l 1,24,-1
 165 594 l 1,21,-1
327 594 m 1,25,-1
 341 700 l 1,26,-1
 404 700 l 1,27,-1
 390 594 l 1,28,-1
 327 594 l 1,25,-1
EndSplineSet
EndChar

StartChar: yacute
Encoding: 253 253 192
Width: 400
GlyphClass: 2
Flags: W
LayerCount: 2
Fore
SplineSet
151 -10 m 1,0,-1
 70 500 l 1,1,-1
 147 500 l 1,2,-1
 202 80 l 1,3,-1
 376 500 l 1,4,-1
 451 500 l 1,5,-1
 226 0 l 2,6,7
 182 -97 182 -97 139 -149.5 c 128,-1,8
 96 -202 96 -202 35 -236 c 1,9,-1
 16 -184 l 1,10,11
 56 -161 56 -161 94 -116.5 c 128,-1,12
 132 -72 132 -72 151 -10 c 1,0,-1
256 571 m 1,13,-1
 206 592 l 1,14,-1
 328 733 l 1,15,-1
 391 703 l 1,16,-1
 256 571 l 1,13,-1
EndSplineSet
EndChar

StartChar: thorn
Encoding: 254 254 193
Width: 491
GlyphClass: 2
Flags: W
LayerCount: 2
Fore
SplineSet
343 511 m 0,0,1
 475 511 475 511 475 337 c 0,2,3
 475 174 475 174 415.5 84 c 128,-1,4
 356 -6 356 -6 253 -6 c 0,5,6
 187 -6 187 -6 137 44 c 1,7,-1
 98 -236 l 1,8,-1
 31 -236 l 1,9,-1
 163 700 l 1,10,-1
 231 700 l 1,11,-1
 195 450 l 1,12,13
 283 511 283 511 343 511 c 0,0,1
247 58 m 0,14,15
 328 58 328 58 366.5 131.5 c 128,-1,16
 405 205 405 205 405 317 c 0,17,18
 405 383 405 383 387.5 414.5 c 128,-1,19
 370 446 370 446 329 446 c 0,20,21
 264 446 264 446 185 379 c 1,22,-1
 147 107 l 1,23,24
 162 83 162 83 190 70.5 c 128,-1,25
 218 58 218 58 247 58 c 0,14,15
EndSplineSet
EndChar

StartChar: ydieresis
Encoding: 255 255 194
Width: 400
GlyphClass: 2
Flags: W
LayerCount: 2
Fore
SplineSet
167 596 m 1,0,-1
 181 702 l 1,1,-1
 245 702 l 1,2,-1
 231 596 l 1,3,-1
 167 596 l 1,0,-1
329 596 m 1,4,-1
 343 702 l 1,5,-1
 406 702 l 1,6,-1
 392 596 l 1,7,-1
 329 596 l 1,4,-1
70 500 m 1,8,-1
 147 500 l 1,9,-1
 202 80 l 1,10,-1
 376 500 l 1,11,-1
 451 500 l 1,12,-1
 226 0 l 2,13,14
 182 -97 182 -97 139 -149.5 c 128,-1,15
 96 -202 96 -202 35 -236 c 1,16,-1
 16 -184 l 1,17,18
 56 -161 56 -161 94 -116.5 c 128,-1,19
 132 -72 132 -72 151 -10 c 1,20,-1
 70 500 l 1,8,-1
EndSplineSet
EndChar

StartChar: hbar
Encoding: 295 295 195
Width: 500
GlyphClass: 2
Flags: W
LayerCount: 2
Fore
SplineSet
321 510 m 0,0,1
 376 510 376 510 410 476.5 c 128,-1,2
 444 443 444 443 444 381 c 0,3,4
 444 368 444 368 442 348 c 2,5,-1
 393 0 l 1,6,-1
 326 0 l 1,7,8
 375 347 375 347 375 360 c 0,9,10
 375 447 375 447 298 447 c 0,11,12
 230 447 230 447 180 399 c 1,13,-1
 124 0 l 1,14,-1
 56 0 l 1,15,-1
 138 585 l 1,16,-1
 62 585 l 1,17,-1
 70 640 l 1,18,-1
 146 640 l 1,19,-1
 154 700 l 1,20,-1
 221 700 l 1,21,-1
 213 640 l 1,22,-1
 355 640 l 1,23,-1
 347 585 l 1,24,-1
 205 585 l 1,25,-1
 188 460 l 1,26,27
 210 477 210 477 222.5 485.5 c 128,-1,28
 235 494 235 494 261.5 502 c 128,-1,29
 288 510 288 510 321 510 c 0,0,1
EndSplineSet
EndChar

StartChar: itilde
Encoding: 297 297 197
Width: 205
GlyphClass: 2
Flags: W
LayerCount: 2
Fore
SplineSet
52 0 m 1,0,-1
 122 500 l 1,1,-1
 189 500 l 1,2,-1
 119 0 l 1,3,-1
 52 0 l 1,0,-1
198.5 587 m 128,-1,5
 181 587 181 587 133 614.5 c 128,-1,6
 85 642 85 642 73 642 c 128,-1,7
 61 642 61 642 46.5 632.5 c 128,-1,8
 32 623 32 623 15 604 c 1,9,-1
 -10 637 l 1,10,11
 8 661 8 661 37 684 c 128,-1,12
 66 707 66 707 83.5 707 c 128,-1,13
 101 707 101 707 149 679.5 c 128,-1,14
 197 652 197 652 209 652 c 128,-1,15
 221 652 221 652 235.5 661.5 c 128,-1,16
 250 671 250 671 267 690 c 1,17,-1
 293 664 l 1,18,-1
 292 657 l 1,19,20
 274 633 274 633 245 610 c 128,-1,4
 216 587 216 587 198.5 587 c 128,-1,5
EndSplineSet
EndChar

StartChar: dotlessi
Encoding: 305 305 198
Width: 206
GlyphClass: 2
Flags: W
LayerCount: 2
Fore
SplineSet
52 0 m 1,0,-1
 122 500 l 1,1,-1
 189 500 l 1,2,-1
 119 0 l 1,3,-1
 52 0 l 1,0,-1
EndSplineSet
EndChar

StartChar: ij
Encoding: 307 307 199
Width: 405
GlyphClass: 2
Flags: W
LayerCount: 2
Fore
SplineSet
45 0 m 1,0,-1
 115 500 l 1,1,-1
 182 500 l 1,2,-1
 112 0 l 1,3,-1
 45 0 l 1,0,-1
210 700 m 1,4,-1
 198 611 l 1,5,-1
 131 611 l 1,6,-1
 143 700 l 1,7,-1
 210 700 l 1,4,-1
418 700 m 1,8,-1
 405 612 l 1,9,-1
 338 612 l 1,10,-1
 351 700 l 1,11,-1
 418 700 l 1,8,-1
188 -204 m 1,12,13
 231 -150 231 -150 248 -34 c 2,14,-1
 323 500 l 1,15,-1
 390 500 l 1,16,-1
 318 -10 l 2,17,18
 306 -96 306 -96 283.5 -147 c 128,-1,19
 261 -198 261 -198 221 -239 c 1,20,-1
 188 -204 l 1,12,13
EndSplineSet
EndChar

StartChar: Jcircumflex
Encoding: 308 308 200
Width: 309
GlyphClass: 2
Flags: W
LayerCount: 2
Fore
SplineSet
65 -7 m 0,0,1
 17 -7 17 -7 -22 4 c 1,2,-1
 -13 67 l 1,3,4
 29 58 29 58 64 58 c 0,5,6
 143 58 143 58 166 228 c 2,7,-1
 224 641 l 1,8,-1
 93 641 l 1,9,-1
 102 700 l 1,10,-1
 300 700 l 1,11,-1
 231 211 l 2,12,13
 200 -7 200 -7 65 -7 c 0,0,1
204 880 m 1,14,-1
 247 880 l 1,15,-1
 355 780 l 1,16,-1
 334 751 l 1,17,-1
 217 826 l 1,18,-1
 79 751 l 1,19,-1
 66 780 l 1,20,-1
 204 880 l 1,14,-1
EndSplineSet
EndChar

StartChar: jcircumflex
Encoding: 309 309 201
Width: 200
GlyphClass: 2
Flags: W
LayerCount: 2
Fore
SplineSet
23 -239 m 1,0,-1
 -10 -204 l 1,1,2
 33 -150 33 -150 50 -34 c 2,3,-1
 125 500 l 1,4,-1
 192 500 l 1,5,-1
 120 -10 l 2,6,7
 108 -95 108 -95 85.5 -146.5 c 128,-1,8
 63 -198 63 -198 23 -239 c 1,0,-1
117 712 m 1,9,-1
 160 712 l 1,10,-1
 268 612 l 1,11,-1
 247 583 l 1,12,-1
 130 658 l 1,13,-1
 -8 583 l 1,14,-1
 -21 612 l 1,15,-1
 117 712 l 1,9,-1
EndSplineSet
EndChar

StartChar: kgreenlandic
Encoding: 312 312 203
Width: 458
GlyphClass: 2
Flags: W
LayerCount: 2
Fore
SplineSet
134 500 m 1,0,-1
 201 500 l 1,1,-1
 171 288 l 1,2,-1
 394 500 l 1,3,-1
 479 500 l 1,4,-1
 261 297 l 1,5,-1
 419 0 l 1,6,-1
 343 0 l 1,7,-1
 214 250 l 1,8,-1
 158 196 l 1,9,-1
 131 0 l 1,10,-1
 64 0 l 1,11,-1
 134 500 l 1,0,-1
EndSplineSet
EndChar

StartChar: ldot
Encoding: 320 320 204
Width: 346
GlyphClass: 2
Flags: W
LayerCount: 2
Fore
SplineSet
57 0 m 1,0,-1
 155 700 l 1,1,-1
 222 700 l 1,2,-1
 124 0 l 1,3,-1
 57 0 l 1,0,-1
314 247 m 1,4,-1
 247 247 l 1,5,-1
 262 350 l 1,6,-1
 329 350 l 1,7,-1
 314 247 l 1,4,-1
EndSplineSet
EndChar

StartChar: Lslash
Encoding: 321 321 205
Width: 383
GlyphClass: 2
Flags: W
LayerCount: 2
Fore
SplineSet
118 345 m 1,0,-1
 37 295 l 1,1,-1
 47 367 l 1,2,-1
 128 416 l 1,3,-1
 168 700 l 1,4,-1
 236 700 l 1,5,-1
 201 448 l 1,6,-1
 309 514 l 1,7,-1
 299 442 l 1,8,-1
 191 378 l 1,9,-1
 147 66 l 1,10,-1
 340 66 l 1,11,-1
 331 0 l 1,12,-1
 70 0 l 1,13,-1
 118 345 l 1,0,-1
EndSplineSet
EndChar

StartChar: lslash
Encoding: 322 322 206
Width: 273
GlyphClass: 2
Flags: W
LayerCount: 2
Fore
SplineSet
189 415 m 1,0,-1
 131 0 l 1,1,-1
 68 0 l 1,2,-1
 122 382 l 1,3,-1
 40 332 l 1,4,-1
 50 404 l 1,5,-1
 132 453 l 1,6,-1
 166 700 l 1,7,-1
 229 700 l 1,8,-1
 199 485 l 1,9,-1
 307 551 l 1,10,-1
 297 479 l 1,11,-1
 189 415 l 1,0,-1
EndSplineSet
EndChar

StartChar: Nacute
Encoding: 323 323 207
Width: 611
GlyphClass: 2
Flags: W
LayerCount: 2
Fore
SplineSet
504 -1 m 1,0,-1
 430 -1 l 1,1,-1
 206 560 l 1,2,-1
 127 0 l 1,3,-1
 57 0 l 1,4,-1
 155 700 l 1,5,-1
 225 700 l 1,6,-1
 454 118 l 1,7,-1
 535 700 l 1,8,-1
 602 700 l 1,9,-1
 504 -1 l 1,0,-1
337 752 m 1,10,-1
 422 876 l 1,11,-1
 498 876 l 1,12,-1
 392 752 l 1,13,-1
 337 752 l 1,10,-1
EndSplineSet
EndChar

StartChar: nacute
Encoding: 324 324 208
Width: 499
GlyphClass: 2
Flags: W
LayerCount: 2
Fore
SplineSet
325 510 m 0,0,1
 380 510 380 510 414.5 477 c 128,-1,2
 449 444 449 444 449 382 c 0,3,4
 449 365 449 365 446 347 c 2,5,-1
 398 0 l 1,6,-1
 331 0 l 1,7,8
 379 347 379 347 379 359 c 0,9,10
 379 446 379 446 302 446 c 0,11,12
 239 446 239 446 186 397 c 1,13,-1
 131 0 l 1,14,-1
 64 0 l 1,15,-1
 134 500 l 1,16,-1
 177 500 l 1,17,-1
 181 451 l 1,18,19
 204 469 204 469 218.5 479 c 128,-1,20
 233 489 233 489 263 499.5 c 128,-1,21
 293 510 293 510 325 510 c 0,0,1
281 571 m 1,22,-1
 231 592 l 1,23,-1
 353 733 l 1,24,-1
 416 703 l 1,25,-1
 281 571 l 1,22,-1
EndSplineSet
EndChar

StartChar: OE
Encoding: 338 338 209
Width: 786
GlyphClass: 2
Flags: W
LayerCount: 2
Fore
SplineSet
265 0 m 2,0,1
 161 0 161 0 110 71 c 128,-1,2
 59 142 59 142 59 262 c 0,3,4
 59 436 59 436 131 562 c 0,5,6
 167 625 167 625 227 662.5 c 128,-1,7
 287 700 287 700 363 700 c 2,8,-1
 791 700 l 1,9,-1
 782 635 l 1,10,-1
 511 635 l 1,11,-1
 480 413 l 1,12,-1
 729 413 l 1,13,-1
 720 346 l 1,14,-1
 471 346 l 1,15,-1
 431 65 l 1,16,-1
 702 65 l 1,17,-1
 693 0 l 1,18,-1
 265 0 l 2,0,1
356 635 m 2,19,20
 300 635 300 635 255.5 601 c 128,-1,21
 211 567 211 567 186 513 c 0,22,23
 133 402 133 402 133 275 c 0,24,25
 133 180 133 180 168.5 122 c 128,-1,26
 204 64 204 64 275 64 c 2,27,-1
 370 64 l 1,28,-1
 450 635 l 1,29,-1
 356 635 l 2,19,20
EndSplineSet
EndChar

StartChar: oe
Encoding: 339 339 210
Width: 766
GlyphClass: 2
Flags: W
LayerCount: 2
Fore
SplineSet
551 -6 m 0,0,1
 431 -6 431 -6 394 89 c 1,2,3
 328 -6 328 -6 214 -6 c 0,4,5
 52 -6 52 -6 52 199 c 0,6,7
 52 333 52 333 114 421.5 c 128,-1,8
 176 510 176 510 287 510 c 128,-1,9
 398 510 398 510 434 407 c 1,10,11
 498 510 498 510 606 510 c 0,12,13
 674 510 674 510 711.5 477 c 128,-1,14
 749 444 749 444 749 381 c 128,-1,15
 749 318 749 318 688 274.5 c 128,-1,16
 627 231 627 231 505 231 c 0,17,18
 480 231 480 231 450 234 c 1,19,20
 446 211 446 211 446 188 c 0,21,22
 446 118 446 118 480 88 c 128,-1,23
 514 58 514 58 567 58 c 0,24,25
 607 58 607 58 648 72 c 2,26,-1
 694 87 l 1,27,-1
 696 29 l 1,28,29
 601 -6 601 -6 551 -6 c 0,0,1
276 445 m 0,30,31
 197 445 197 445 159 374 c 128,-1,32
 121 303 121 303 121 214.5 c 128,-1,33
 121 126 121 126 144 92.5 c 128,-1,34
 167 59 167 59 220 59 c 0,35,36
 301 59 301 59 341 125.5 c 128,-1,37
 381 192 381 192 381 281 c 128,-1,38
 381 370 381 370 355.5 407.5 c 128,-1,39
 330 445 330 445 276 445 c 0,30,31
510 288 m 0,40,41
 583 288 583 288 633.5 311 c 128,-1,42
 684 334 684 334 684 381 c 0,43,44
 684 445 684 445 597 445 c 0,45,46
 495 445 495 445 461 291 c 1,47,48
 485 288 485 288 510 288 c 0,40,41
EndSplineSet
EndChar

StartChar: Racute
Encoding: 340 340 211
Width: 543
GlyphClass: 2
Flags: W
LayerCount: 2
Fore
SplineSet
226 328 m 2,0,-1
 170 328 l 1,1,-1
 124 0 l 1,2,-1
 57 0 l 1,3,-1
 155 700 l 1,4,-1
 337 700 l 2,5,6
 499 700 499 700 499 559 c 0,7,8
 499 488 499 488 456 425 c 128,-1,9
 413 362 413 362 349 353 c 1,10,11
 388 342 388 342 402.5 321.5 c 128,-1,12
 417 301 417 301 433 234 c 2,13,-1
 489 0 l 1,14,-1
 418 0 l 1,15,-1
 362 224 l 2,16,17
 346 288 346 288 318.5 308 c 128,-1,18
 291 328 291 328 226 328 c 2,0,-1
324 636 m 2,19,-1
 213 636 l 1,20,-1
 179 392 l 1,21,-1
 281 392 l 2,22,23
 344 392 344 392 383.5 437 c 128,-1,24
 423 482 423 482 423 535.5 c 128,-1,25
 423 589 423 589 397 612.5 c 128,-1,26
 371 636 371 636 324 636 c 2,19,-1
280 752 m 1,27,-1
 365 876 l 1,28,-1
 441 876 l 1,29,-1
 335 752 l 1,30,-1
 280 752 l 1,27,-1
EndSplineSet
EndChar

StartChar: Rcommaaccent
Encoding: 342 342 212
Width: 543
GlyphClass: 2
Flags: W
LayerCount: 2
Fore
SplineSet
226 328 m 2,0,-1
 170 328 l 1,1,-1
 124 0 l 1,2,-1
 57 0 l 1,3,-1
 155 700 l 1,4,-1
 337 700 l 2,5,6
 499 700 499 700 499 559 c 0,7,8
 499 488 499 488 456 425 c 128,-1,9
 413 362 413 362 349 353 c 1,10,11
 388 342 388 342 402.5 321.5 c 128,-1,12
 417 301 417 301 433 234 c 2,13,-1
 489 0 l 1,14,-1
 418 0 l 1,15,-1
 362 224 l 2,16,17
 346 288 346 288 318.5 308 c 128,-1,18
 291 328 291 328 226 328 c 2,0,-1
324 636 m 2,19,-1
 213 636 l 1,20,-1
 179 392 l 1,21,-1
 281 392 l 2,22,23
 344 392 344 392 383.5 437 c 128,-1,24
 423 482 423 482 423 536 c 0,25,26
 423 636 423 636 324 636 c 2,19,-1
250 -40 m 1,27,-1
 314 -40 l 1,28,29
 307 -89 307 -89 292 -120.5 c 128,-1,30
 277 -152 277 -152 233 -217 c 1,31,-1
 193 -186 l 1,32,33
 224 -132 224 -132 234 -108 c 128,-1,34
 244 -84 244 -84 250 -40 c 1,27,-1
EndSplineSet
EndChar

StartChar: Rcaron
Encoding: 344 344 214
Width: 542
GlyphClass: 2
Flags: W
LayerCount: 2
Fore
SplineSet
328 773 m 1,0,-1
 285 773 l 1,1,-1
 177 873 l 1,2,-1
 198 902 l 1,3,-1
 315 827 l 1,4,-1
 453 902 l 1,5,-1
 466 873 l 1,6,-1
 328 773 l 1,0,-1
168 327 m 2,7,-1
 112 327 l 1,8,-1
 66 -1 l 1,9,-1
 -1 -1 l 1,10,-1
 97 699 l 1,11,-1
 279 699 l 2,12,13
 441 699 441 699 441 558 c 0,14,15
 441 487 441 487 398 424 c 128,-1,16
 355 361 355 361 291 352 c 1,17,18
 330 341 330 341 344.5 320.5 c 128,-1,19
 359 300 359 300 375 233 c 2,20,-1
 431 -1 l 1,21,-1
 360 -1 l 1,22,-1
 304 223 l 2,23,24
 288 287 288 287 260.5 307 c 128,-1,25
 233 327 233 327 168 327 c 2,7,-1
266 635 m 2,26,-1
 155 635 l 1,27,-1
 121 391 l 1,28,-1
 223 391 l 2,29,30
 286 391 286 391 325.5 436 c 128,-1,31
 365 481 365 481 365 534 c 0,32,33
 365 635 365 635 266 635 c 2,26,-1
EndSplineSet
EndChar

StartChar: rcaron
Encoding: 345 345 215
Width: 334
GlyphClass: 2
Flags: W
LayerCount: 2
Fore
SplineSet
248 589 m 1,0,-1
 205 589 l 1,1,-1
 97 689 l 1,2,-1
 119 718 l 1,3,-1
 235 643 l 1,4,-1
 374 718 l 1,5,-1
 386 689 l 1,6,-1
 248 589 l 1,0,-1
308.5 507.5 m 128,-1,8
 316 505 316 505 320 504 c 1,9,-1
 300 435 l 1,10,11
 284 441 284 441 257 441 c 0,12,13
 202 441 202 441 139 382 c 1,14,-1
 86 0 l 1,15,-1
 19 0 l 1,16,-1
 89 500 l 1,17,-1
 132 500 l 1,18,-1
 135 441 l 1,19,20
 183 479 183 479 214 494.5 c 128,-1,21
 245 510 245 510 273 510 c 128,-1,7
 301 510 301 510 308.5 507.5 c 128,-1,8
EndSplineSet
EndChar

StartChar: Scaron
Encoding: 352 352 216
Width: 496
GlyphClass: 2
Flags: W
LayerCount: 2
Fore
SplineSet
313 773 m 1,0,-1
 270 773 l 1,1,-1
 162 873 l 1,2,-1
 183 902 l 1,3,-1
 300 827 l 1,4,-1
 438 902 l 1,5,-1
 451 873 l 1,6,-1
 313 773 l 1,0,-1
387 608 m 1,7,8
 307 640 307 640 249 640 c 128,-1,9
 191 640 191 640 158.5 605.5 c 128,-1,10
 126 571 126 571 126 524 c 128,-1,11
 126 477 126 477 153.5 450 c 128,-1,12
 181 423 181 423 220 408.5 c 128,-1,13
 259 394 259 394 298 376.5 c 128,-1,14
 337 359 337 359 364.5 322 c 128,-1,15
 392 285 392 285 392 227 c 0,16,17
 392 130 392 130 324.5 62 c 128,-1,18
 257 -6 257 -6 152 -6 c 0,19,20
 100 -6 100 -6 52 10.5 c 128,-1,21
 4 27 4 27 -26 49 c 1,22,-1
 4 106 l 1,23,24
 82 64 82 64 152.5 64 c 128,-1,25
 223 64 223 64 270.5 103 c 128,-1,26
 318 142 318 142 318 206 c 0,27,28
 318 250 318 250 290.5 278.5 c 128,-1,29
 263 307 263 307 224.5 323 c 128,-1,30
 186 339 186 339 147 357 c 128,-1,31
 108 375 108 375 80.5 412.5 c 128,-1,32
 53 450 53 450 53 508 c 0,33,34
 53 594 53 594 108 652 c 128,-1,35
 163 710 163 710 257 710 c 0,36,37
 329 710 329 710 411 675 c 1,38,-1
 387 608 l 1,7,8
EndSplineSet
EndChar

StartChar: scaron
Encoding: 353 353 217
Width: 401
GlyphClass: 2
Flags: W
LayerCount: 2
Fore
SplineSet
245 589 m 1,0,-1
 202 589 l 1,1,-1
 94 689 l 1,2,-1
 116 718 l 1,3,-1
 232 643 l 1,4,-1
 371 718 l 1,5,-1
 383 689 l 1,6,-1
 245 589 l 1,0,-1
14 89 m 1,7,8
 69 59 69 59 122.5 59 c 128,-1,9
 176 59 176 59 209 87 c 128,-1,10
 242 115 242 115 242 163 c 256,11,12
 242 211 242 211 172 240 c 0,13,14
 144 251 144 251 115 263 c 128,-1,15
 86 275 86 275 65.5 299 c 128,-1,16
 45 323 45 323 45 358 c 0,17,18
 45 428 45 428 89 469 c 128,-1,19
 133 510 133 510 198 510 c 128,-1,20
 263 510 263 510 315 489 c 1,21,-1
 321 486 l 1,22,-1
 300 422 l 1,23,24
 277 436 277 436 242.5 440.5 c 128,-1,25
 208 445 208 445 198 445 c 0,26,27
 115 445 115 445 115 369 c 0,28,29
 115 348 115 348 135 332.5 c 128,-1,30
 155 317 155 317 184 305 c 128,-1,31
 213 293 213 293 242 278.5 c 128,-1,32
 271 264 271 264 291 236 c 128,-1,33
 311 208 311 208 311 169 c 0,34,35
 311 90 311 90 258.5 42 c 128,-1,36
 206 -6 206 -6 126 -6 c 128,-1,37
 46 -6 46 -6 -10 33 c 1,38,-1
 14 89 l 1,7,8
EndSplineSet
EndChar

StartChar: Ydieresis
Encoding: 376 376 218
Width: 497
GlyphClass: 2
Flags: W
LayerCount: 2
Fore
SplineSet
558 700 m 1,0,-1
 297 315 l 1,1,-1
 253 0 l 1,2,-1
 185 0 l 1,3,-1
 229 315 l 1,4,-1
 84 700 l 1,5,-1
 159 700 l 1,6,-1
 273 376 l 1,7,-1
 485 700 l 1,8,-1
 558 700 l 1,0,-1
196 816 m 1,9,-1
 210 922 l 1,10,-1
 274 922 l 1,11,-1
 260 816 l 1,12,-1
 196 816 l 1,9,-1
358 816 m 1,13,-1
 372 922 l 1,14,-1
 435 922 l 1,15,-1
 421 816 l 1,16,-1
 358 816 l 1,13,-1
EndSplineSet
EndChar

StartChar: Zcaron
Encoding: 381 381 219
Width: 457
GlyphClass: 2
Flags: W
LayerCount: 2
Fore
SplineSet
319 773 m 1,0,-1
 277 773 l 1,1,-1
 169 873 l 1,2,-1
 190 902 l 1,3,-1
 306 827 l 1,4,-1
 445 902 l 1,5,-1
 458 873 l 1,6,-1
 319 773 l 1,0,-1
406 0 m 1,7,-1
 11 0 l 1,8,-1
 20 62 l 1,9,-1
 388 635 l 1,10,-1
 99 635 l 1,11,-1
 108 700 l 1,12,-1
 476 700 l 1,13,-1
 468 643 l 1,14,-1
 102 66 l 1,15,-1
 415 66 l 1,16,-1
 406 0 l 1,7,-1
EndSplineSet
EndChar

StartChar: zcaron
Encoding: 382 382 220
Width: 371
GlyphClass: 2
Flags: W
LayerCount: 2
Fore
SplineSet
268 589 m 1,0,-1
 226 589 l 1,1,-1
 117 689 l 1,2,-1
 138 718 l 1,3,-1
 255 643 l 1,4,-1
 393 718 l 1,5,-1
 406 689 l 1,6,-1
 268 589 l 1,0,-1
96 500 m 1,7,-1
 372 500 l 1,8,-1
 364 440 l 1,9,-1
 115 65 l 1,10,-1
 322 65 l 1,11,-1
 313 0 l 1,12,-1
 26 0 l 1,13,-1
 34 60 l 1,14,-1
 283 435 l 1,15,-1
 87 435 l 1,16,-1
 96 500 l 1,7,-1
EndSplineSet
EndChar

StartChar: florin
Encoding: 402 402 221
Width: 279
GlyphClass: 2
Flags: W
LayerCount: 2
Fore
SplineSet
168.5 685.5 m 128,-1,1
 208 712 208 712 257 712 c 128,-1,2
 306 712 306 712 337 700 c 1,3,-1
 316 646 l 1,4,5
 288 651 288 651 261 651 c 128,-1,6
 234 651 234 651 209 633 c 128,-1,7
 184 615 184 615 176 584 c 2,8,-1
 140 442 l 1,9,-1
 241 442 l 1,10,-1
 226 382 l 1,11,-1
 126 382 l 1,12,-1
 -5 -143 l 1,13,-1
 -77 -153 l 1,14,-1
 58 382 l 1,15,-1
 -10 382 l 1,16,-1
 3 442 l 1,17,-1
 73 442 l 1,18,-1
 113 598 l 2,19,0
 129 659 129 659 168.5 685.5 c 128,-1,1
EndSplineSet
EndChar

StartChar: circumflex
Encoding: 710 710 222
Width: 441
GlyphClass: 2
Flags: W
LayerCount: 2
Fore
SplineSet
262 820 m 1,0,-1
 305 820 l 1,1,-1
 413 720 l 1,2,-1
 392 691 l 1,3,-1
 275 766 l 1,4,-1
 137 691 l 1,5,-1
 124 720 l 1,6,-1
 262 820 l 1,0,-1
EndSplineSet
EndChar

StartChar: caron
Encoding: 711 711 223
Width: 397
GlyphClass: 2
Flags: W
LayerCount: 2
Fore
SplineSet
366 690 m 1,0,-1
 220 543 l 1,1,-1
 121 690 l 1,2,-1
 159 731 l 1,3,-1
 236 637 l 1,4,-1
 338 731 l 1,5,-1
 366 690 l 1,0,-1
EndSplineSet
EndChar

StartChar: breve
Encoding: 728 728 224
Width: 360
GlyphClass: 2
Flags: W
LayerCount: 2
Fore
SplineSet
182 43 m 0,0,1
 214 43 214 43 231.5 59 c 128,-1,2
 249 75 249 75 255 115 c 1,3,-1
 295 115 l 1,4,-1
 293 102 l 2,5,6
 286 51 286 51 255.5 23 c 128,-1,7
 225 -5 225 -5 175 -5 c 0,8,9
 85 -5 85 -5 85 79 c 0,10,11
 85 87 85 87 89 115 c 1,12,-1
 129 115 l 1,13,14
 127 99 127 99 127 93 c 0,15,16
 127 43 127 43 182 43 c 0,0,1
EndSplineSet
EndChar

StartChar: dotaccent
Encoding: 729 729 225
Width: 221
GlyphClass: 2
Flags: W
LayerCount: 2
Fore
SplineSet
186 705 m 1,0,-1
 127 705 l 1,1,-1
 140 801 l 1,2,-1
 199 801 l 1,3,-1
 186 705 l 1,0,-1
EndSplineSet
EndChar

StartChar: ring
Encoding: 730 730 226
Width: 358
GlyphClass: 2
Flags: W
LayerCount: 2
Fore
SplineSet
239 772 m 0,0,1
 327 772 327 772 327 686 c 0,2,3
 327 628 327 628 299 590 c 128,-1,4
 271 552 271 552 210 552 c 0,5,6
 122 552 122 552 122 638 c 0,7,8
 122 696 122 696 150 734 c 128,-1,9
 178 772 178 772 239 772 c 0,0,1
215 596 m 0,10,11
 246 596 246 596 261 621 c 128,-1,12
 276 646 276 646 276 682 c 0,13,14
 276 728 276 728 234 728 c 0,15,16
 203 728 203 728 188 703 c 128,-1,17
 173 678 173 678 173 642 c 0,18,19
 173 596 173 596 215 596 c 0,10,11
EndSplineSet
EndChar

StartChar: ogonek
Encoding: 731 731 227
Width: 271
GlyphClass: 2
Flags: W
LayerCount: 2
Fore
SplineSet
131 -53.5 m 128,-1,1
 109 -78 109 -78 109 -109.5 c 128,-1,2
 109 -141 109 -141 149 -141 c 0,3,4
 163 -141 163 -141 205 -129 c 1,5,-1
 211 -169 l 1,6,7
 165 -194 165 -194 115 -194 c 0,8,9
 43 -194 43 -194 43 -133 c 0,10,11
 43 -54 43 -54 128 0 c 1,12,-1
 203 0 l 1,13,0
 153 -29 153 -29 131 -53.5 c 128,-1,1
EndSplineSet
EndChar

StartChar: tilde
Encoding: 732 732 228
Width: 464
GlyphClass: 2
Flags: W
LayerCount: 2
Fore
SplineSet
348.5 683 m 128,-1,1
 331 683 331 683 283 710.5 c 128,-1,2
 235 738 235 738 223 738 c 128,-1,3
 211 738 211 738 196.5 728.5 c 128,-1,4
 182 719 182 719 165 700 c 1,5,-1
 140 733 l 1,6,7
 158 757 158 757 187 780 c 128,-1,8
 216 803 216 803 233.5 803 c 128,-1,9
 251 803 251 803 299 775.5 c 128,-1,10
 347 748 347 748 359 748 c 128,-1,11
 371 748 371 748 385.5 757.5 c 128,-1,12
 400 767 400 767 417 786 c 1,13,-1
 443 760 l 1,14,-1
 442 753 l 1,15,16
 424 729 424 729 395 706 c 128,-1,0
 366 683 366 683 348.5 683 c 128,-1,1
EndSplineSet
EndChar

StartChar: hungarumlaut
Encoding: 733 733 229
Width: 449
GlyphClass: 2
Flags: W
LayerCount: 2
Fore
SplineSet
159 571 m 1,0,-1
 110 592 l 1,1,-1
 231 733 l 1,2,-1
 294 703 l 1,3,-1
 159 571 l 1,0,-1
308 571 m 1,4,-1
 259 592 l 1,5,-1
 381 733 l 1,6,-1
 443 703 l 1,7,-1
 308 571 l 1,4,-1
EndSplineSet
EndChar

StartChar: Delta
Encoding: 916 916 230
AltUni2: 002206.ffffffff.0
Width: 551
GlyphClass: 2
Flags: W
LayerCount: 2
Fore
SplineSet
499 0 m 1,0,-1
 2 0 l 1,1,-1
 307 700 l 1,2,-1
 389 700 l 1,3,-1
 499 0 l 1,0,-1
414 77 m 1,4,-1
 337 624 l 1,5,-1
 98 77 l 1,6,-1
 414 77 l 1,4,-1
EndSplineSet
EndChar

StartChar: Omega
Encoding: 937 937 231
AltUni2: 002126.ffffffff.0
Width: 664
GlyphClass: 2
Flags: W
LayerCount: 2
Fore
SplineSet
92 264 m 0,0,1
 92 437 92 437 165 568 c 0,2,3
 201 632 201 632 261.5 671 c 128,-1,4
 322 710 322 710 398 710 c 0,5,6
 502 710 502 710 554 638.5 c 128,-1,7
 606 567 606 567 606 452.5 c 128,-1,8
 606 338 606 338 569.5 229.5 c 128,-1,9
 533 121 533 121 468 65 c 1,10,-1
 583 65 l 1,11,-1
 574 0 l 1,12,-1
 336 0 l 1,13,-1
 345 65 l 1,14,15
 398 85 398 85 436 124 c 128,-1,16
 474 163 474 163 494 214 c 0,17,18
 532 312 532 312 532 428 c 0,19,20
 532 645 532 645 390 645 c 0,21,22
 335 645 335 645 291 610 c 128,-1,23
 247 575 247 575 221 520 c 0,24,25
 167 404 167 404 167 279 c 0,26,27
 167 194 167 194 194.5 134.5 c 128,-1,28
 222 75 222 75 282 65 c 1,29,-1
 273 0 l 1,30,-1
 35 0 l 1,31,-1
 44 65 l 1,32,-1
 156 65 l 1,33,34
 92 136 92 136 92 264 c 0,0,1
EndSplineSet
EndChar

StartChar: pi
Encoding: 960 960 232
Width: 525
GlyphClass: 2
Flags: W
LayerCount: 2
Fore
SplineSet
534 544 m 1,0,-1
 525 479 l 1,1,-1
 438 479 l 1,2,-1
 370 0 l 1,3,-1
 304 0 l 1,4,-1
 372 479 l 1,5,-1
 235 479 l 1,6,-1
 167 0 l 1,7,-1
 99 0 l 1,8,-1
 167 479 l 1,9,-1
 84 479 l 1,10,-1
 93 544 l 1,11,-1
 534 544 l 1,0,-1
EndSplineSet
EndChar

StartChar: endash
Encoding: 8211 8211 233
Width: 450
GlyphClass: 2
Flags: W
LayerCount: 2
Fore
SplineSet
465 257 m 1,0,-1
 15 257 l 1,1,-1
 24 322 l 1,2,-1
 474 322 l 1,3,-1
 465 257 l 1,0,-1
EndSplineSet
EndChar

StartChar: emdash
Encoding: 8212 8212 234
Width: 720
GlyphClass: 2
Flags: W
LayerCount: 2
Fore
SplineSet
735 257 m 1,0,-1
 15 257 l 1,1,-1
 24 322 l 1,2,-1
 744 322 l 1,3,-1
 735 257 l 1,0,-1
EndSplineSet
EndChar

StartChar: quoteleft
Encoding: 8216 8216 235
Width: 241
GlyphClass: 2
Flags: W
LayerCount: 2
Fore
SplineSet
78 510 m 1,0,-1
 218 769 l 1,1,-1
 265 752 l 1,2,-1
 149 485 l 1,3,-1
 78 510 l 1,0,-1
EndSplineSet
EndChar

StartChar: quoteright
Encoding: 8217 8217 236
Width: 240
GlyphClass: 2
Flags: W
LayerCount: 2
Fore
SplineSet
249 745 m 1,0,-1
 111 485 l 1,1,-1
 62 502 l 1,2,-1
 180 769 l 1,3,-1
 249 745 l 1,0,-1
EndSplineSet
EndChar

StartChar: quotesinglbase
Encoding: 8218 8218 237
Width: 241
GlyphClass: 2
Flags: W
LayerCount: 2
Fore
SplineSet
204 98 m 1,0,-1
 65 -162 l 1,1,-1
 17 -145 l 1,2,-1
 134 122 l 1,3,-1
 204 98 l 1,0,-1
EndSplineSet
EndChar

StartChar: quotedblleft
Encoding: 8220 8220 238
Width: 419
GlyphClass: 2
Flags: W
LayerCount: 2
Fore
SplineSet
78 512 m 1,0,-1
 217 767 l 1,1,-1
 263 751 l 1,2,-1
 145 488 l 1,3,-1
 78 512 l 1,0,-1
260 510 m 1,4,-1
 396 767 l 1,5,-1
 442 751 l 1,6,-1
 326 486 l 1,7,-1
 260 510 l 1,4,-1
EndSplineSet
EndChar

StartChar: quotedblright
Encoding: 8221 8221 239
Width: 419
GlyphClass: 2
Flags: W
LayerCount: 2
Fore
SplineSet
427 741 m 1,0,-1
 288 486 l 1,1,-1
 242 502 l 1,2,-1
 359 765 l 1,3,-1
 427 741 l 1,0,-1
245 743 m 1,4,-1
 109 486 l 1,5,-1
 63 502 l 1,6,-1
 179 767 l 1,7,-1
 245 743 l 1,4,-1
EndSplineSet
EndChar

StartChar: quotedblbase
Encoding: 8222 8222 240
Width: 419
GlyphClass: 2
Flags: W
LayerCount: 2
Fore
SplineSet
381 96 m 1,0,-1
 242 -159 l 1,1,-1
 197 -143 l 1,2,-1
 314 120 l 1,3,-1
 381 96 l 1,0,-1
200 98 m 1,4,-1
 63 -159 l 1,5,-1
 18 -143 l 1,6,-1
 134 122 l 1,7,-1
 200 98 l 1,4,-1
EndSplineSet
EndChar

StartChar: dagger
Encoding: 8224 8224 241
Width: 452
GlyphClass: 2
Flags: W
LayerCount: 2
Fore
SplineSet
230 0 m 1,0,-1
 162 0 l 1,1,-1
 232 499 l 1,2,-1
 82 499 l 1,3,-1
 91 564 l 1,4,-1
 241 564 l 1,5,-1
 268 750 l 1,6,-1
 336 750 l 1,7,-1
 309 564 l 1,8,-1
 465 564 l 1,9,-1
 456 499 l 1,10,-1
 300 499 l 1,11,-1
 230 0 l 1,0,-1
EndSplineSet
EndChar

StartChar: daggerdbl
Encoding: 8225 8225 242
Width: 468
GlyphClass: 2
Flags: W
LayerCount: 2
Fore
SplineSet
257 183 m 1,0,-1
 231 0 l 1,1,-1
 173 0 l 1,2,-1
 199 183 l 1,3,-1
 39 183 l 1,4,-1
 48 248 l 1,5,-1
 208 248 l 1,6,-1
 245 510 l 1,7,-1
 85 510 l 1,8,-1
 94 575 l 1,9,-1
 254 575 l 1,10,-1
 279 750 l 1,11,-1
 337 750 l 1,12,-1
 312 575 l 1,13,-1
 481 575 l 1,14,-1
 472 510 l 1,15,-1
 303 510 l 1,16,-1
 266 248 l 1,17,-1
 435 248 l 1,18,-1
 426 183 l 1,19,-1
 257 183 l 1,0,-1
EndSplineSet
EndChar

StartChar: bullet
Encoding: 8226 8226 243
Width: 423
GlyphClass: 2
Flags: W
LayerCount: 2
Fore
SplineSet
134 167 m 128,-1,1
 106 198 106 198 106 249 c 128,-1,2
 106 300 106 300 145 347 c 128,-1,3
 184 394 184 394 234 394 c 128,-1,4
 284 394 284 394 312 363 c 128,-1,5
 340 332 340 332 340 281 c 128,-1,6
 340 230 340 230 301 183 c 128,-1,7
 262 136 262 136 212 136 c 128,-1,0
 162 136 162 136 134 167 c 128,-1,1
EndSplineSet
EndChar

StartChar: ellipsis
Encoding: 8230 8230 244
Width: 665
GlyphClass: 2
Flags: W
LayerCount: 2
Fore
SplineSet
113 0 m 1,0,-1
 46 0 l 1,1,-1
 61 106 l 1,2,-1
 128 106 l 1,3,-1
 113 0 l 1,0,-1
357 0 m 1,4,-1
 290 0 l 1,5,-1
 305 106 l 1,6,-1
 372 106 l 1,7,-1
 357 0 l 1,4,-1
601 0 m 1,8,-1
 534 0 l 1,9,-1
 549 106 l 1,10,-1
 616 106 l 1,11,-1
 601 0 l 1,8,-1
EndSplineSet
EndChar

StartChar: perthousand
Encoding: 8240 8240 245
Width: 953
GlyphClass: 2
Flags: W
LayerCount: 2
Fore
SplineSet
609 688 m 1,0,-1
 145 1 l 1,1,-1
 75 1 l 1,2,-1
 539 688 l 1,3,-1
 609 688 l 1,0,-1
507 286 m 0,4,5
 483 286 483 286 465.5 268 c 128,-1,6
 448 250 448 250 440 222 c 0,7,8
 423 169 423 169 423 122 c 0,9,10
 423 44 423 44 472 44 c 0,11,12
 514 44 514 44 535.5 94 c 128,-1,13
 557 144 557 144 557 206 c 0,14,15
 557 286 557 286 507 286 c 0,4,5
513 336 m 0,16,17
 612 336 612 336 612 214 c 0,18,19
 612 118 612 118 575.5 56 c 128,-1,20
 539 -6 539 -6 463 -6 c 0,21,22
 368 -6 368 -6 368 114 c 0,23,24
 368 237 368 237 428 300 c 0,25,26
 463 336 463 336 513 336 c 0,16,17
225 646 m 0,27,28
 201 646 201 646 183 628 c 128,-1,29
 165 610 165 610 156 582 c 0,30,31
 141 531 141 531 141 481 c 0,32,33
 141 404 141 404 190 404 c 0,34,35
 214 404 214 404 232 421.5 c 128,-1,36
 250 439 250 439 258 466 c 0,37,38
 275 520 275 520 275 565 c 0,39,40
 275 646 275 646 225 646 c 0,27,28
231 696 m 0,41,42
 330 696 330 696 330 574 c 0,43,44
 330 482 330 482 294 418 c 128,-1,45
 258 354 258 354 181 354 c 0,46,47
 86 354 86 354 86 474 c 0,48,49
 86 597 86 597 146 660 c 0,50,51
 181 696 181 696 231 696 c 0,41,42
797 286 m 0,52,53
 773 286 773 286 755.5 268 c 128,-1,54
 738 250 738 250 730 222 c 0,55,56
 713 169 713 169 713 122 c 0,57,58
 713 44 713 44 762 44 c 0,59,60
 804 44 804 44 825.5 94 c 128,-1,61
 847 144 847 144 847 206 c 0,62,63
 847 286 847 286 797 286 c 0,52,53
803 336 m 0,64,65
 902 336 902 336 902 214 c 0,66,67
 902 118 902 118 865.5 56 c 128,-1,68
 829 -6 829 -6 753 -6 c 0,69,70
 658 -6 658 -6 658 114 c 0,71,72
 658 237 658 237 718 300 c 0,73,74
 753 336 753 336 803 336 c 0,64,65
EndSplineSet
EndChar

StartChar: guilsinglleft
Encoding: 8249 8249 246
Width: 297
GlyphClass: 2
Flags: W
LayerCount: 2
Fore
SplineSet
220 105 m 1,0,-1
 167 82 l 1,1,-1
 73 296 l 1,2,-1
 229 512 l 1,3,-1
 274 489 l 1,4,-1
 151 298 l 1,5,-1
 220 105 l 1,0,-1
EndSplineSet
EndChar

StartChar: guilsinglright
Encoding: 8250 8250 247
Width: 297
GlyphClass: 2
Flags: W
LayerCount: 2
Fore
SplineSet
118 489 m 1,0,-1
 172 512 l 1,1,-1
 266 298 l 1,2,-1
 110 82 l 1,3,-1
 64 105 l 1,4,-1
 188 296 l 1,5,-1
 118 489 l 1,0,-1
EndSplineSet
EndChar

StartChar: fraction
Encoding: 8260 8260 248
Width: 366
GlyphClass: 2
Flags: W
LayerCount: 2
Fore
SplineSet
501 688 m 1,0,-1
 36 0 l 1,1,-1
 -33 0 l 1,2,-1
 430 688 l 1,3,-1
 501 688 l 1,0,-1
EndSplineSet
EndChar

StartChar: Euro
Encoding: 8364 8364 249
Width: 567
GlyphClass: 2
Flags: W
LayerCount: 2
Fore
SplineSet
222 106.5 m 128,-1,1
 264 59 264 59 331.5 59 c 128,-1,2
 399 59 399 59 495 98 c 1,3,-1
 505 46 l 1,4,5
 419 -6 419 -6 320.5 -6 c 128,-1,6
 222 -6 222 -6 164 60.5 c 128,-1,7
 106 127 106 127 102 240 c 1,8,-1
 27 240 l 1,9,-1
 36 305 l 1,10,-1
 106 305 l 1,11,12
 112 370 112 370 120 401 c 1,13,-1
 50 401 l 1,14,-1
 59 466 l 1,15,-1
 138 466 l 1,16,17
 178 581 178 581 256.5 645.5 c 128,-1,18
 335 710 335 710 441 710 c 0,19,20
 509 710 509 710 576 680 c 1,21,-1
 552 618 l 1,22,23
 498 645 498 645 425 645 c 128,-1,24
 352 645 352 645 297 597.5 c 128,-1,25
 242 550 242 550 211 466 c 1,26,-1
 421 466 l 1,27,-1
 410 400 l 1,28,-1
 193 400 l 1,29,30
 180 348 180 348 179 305 c 1,31,-1
 397 305 l 1,32,-1
 387 240 l 1,33,-1
 175 240 l 1,34,0
 180 154 180 154 222 106.5 c 128,-1,1
EndSplineSet
EndChar

StartChar: trademark
Encoding: 8482 8482 250
Width: 617
GlyphClass: 2
Flags: W
LayerCount: 2
Fore
SplineSet
585 418 m 1,0,-1
 536 418 l 1,1,-1
 563 612 l 1,2,-1
 466 495 l 1,3,-1
 457 495 l 1,4,-1
 400 612 l 1,5,-1
 373 418 l 1,6,-1
 325 418 l 1,7,-1
 365 700 l 1,8,-1
 416 700 l 1,9,-1
 476 570 l 1,10,-1
 576 700 l 1,11,-1
 625 700 l 1,12,-1
 585 418 l 1,0,-1
135 418 m 1,13,-1
 167 648 l 1,14,-1
 96 648 l 1,15,-1
 104 700 l 1,16,-1
 298 700 l 1,17,-1
 290 648 l 1,18,-1
 217 648 l 1,19,-1
 185 418 l 1,20,-1
 135 418 l 1,13,-1
EndSplineSet
EndChar

StartChar: arrowleft
Encoding: 8592 8592 251
Width: 671
GlyphClass: 2
Flags: W
LayerCount: 2
Fore
SplineSet
253 74 m 1,0,-1
 64 319 l 1,1,-1
 317 548 l 1,2,-1
 357 495 l 1,3,-1
 200 352 l 1,4,-1
 654 352 l 1,5,-1
 644 277 l 1,6,-1
 190 277 l 1,7,-1
 308 126 l 1,8,-1
 253 74 l 1,0,-1
EndSplineSet
EndChar

StartChar: arrowup
Encoding: 8593 8593 252
Width: 635
GlyphClass: 2
Flags: W
LayerCount: 2
Fore
SplineSet
135 375 m 1,0,-1
 390 623 l 1,1,-1
 562 378 l 1,2,-1
 507 325 l 1,3,-1
 400 477 l 1,4,-1
 329 -28 l 1,5,-1
 261 -28 l 1,6,-1
 332 477 l 1,7,-1
 174 321 l 1,8,-1
 135 375 l 1,0,-1
EndSplineSet
EndChar

StartChar: arrowright
Encoding: 8594 8594 253
Width: 671
GlyphClass: 2
Flags: W
LayerCount: 2
Fore
SplineSet
461 555 m 1,0,-1
 650 310 l 1,1,-1
 398 81 l 1,2,-1
 357 134 l 1,3,-1
 514 277 l 1,4,-1
 60 277 l 1,5,-1
 71 352 l 1,6,-1
 525 352 l 1,7,-1
 406 503 l 1,8,-1
 461 555 l 1,0,-1
EndSplineSet
EndChar

StartChar: arrowdown
Encoding: 8595 8595 254
Width: 635
GlyphClass: 2
Flags: W
LayerCount: 2
Fore
SplineSet
538 195 m 1,0,-1
 283 -53 l 1,1,-1
 111 192 l 1,2,-1
 166 245 l 1,3,-1
 273 93 l 1,4,-1
 344 598 l 1,5,-1
 412 598 l 1,6,-1
 341 93 l 1,7,-1
 498 249 l 1,8,-1
 538 195 l 1,0,-1
EndSplineSet
EndChar

StartChar: partialdiff
Encoding: 8706 8706 255
Width: 458
GlyphClass: 2
Flags: W
LayerCount: 2
Fore
SplineSet
441 398 m 0,0,1
 441 202 441 202 362 88 c 0,2,3
 333 47 333 47 285 20.5 c 128,-1,4
 237 -6 237 -6 168 -6 c 128,-1,5
 99 -6 99 -6 54 39.5 c 128,-1,6
 9 85 9 85 9 173 c 0,7,8
 9 286 9 286 72 367 c 128,-1,9
 135 448 135 448 249 448 c 0,10,11
 300 448 300 448 365 436 c 1,12,13
 365 513 365 513 316 579.5 c 128,-1,14
 267 646 267 646 180 670 c 1,15,-1
 209 738 l 1,16,17
 308 712 308 712 374.5 619 c 128,-1,18
 441 526 441 526 441 398 c 0,0,1
107.5 98.5 m 128,-1,20
 135 65 135 65 184.5 65 c 128,-1,21
 234 65 234 65 271 95.5 c 128,-1,22
 308 126 308 126 328 174 c 0,23,24
 367 269 367 269 369 368 c 1,25,26
 289 383 289 383 244 383 c 0,27,28
 175 383 175 383 127.5 328.5 c 128,-1,29
 80 274 80 274 80 189 c 0,30,19
 80 132 80 132 107.5 98.5 c 128,-1,20
EndSplineSet
EndChar

StartChar: product
Encoding: 8719 8719 256
Width: 469
GlyphClass: 2
Flags: W
LayerCount: 2
Fore
SplineSet
49 0 m 1,0,-1
 -18 0 l 1,1,-1
 79 700 l 1,2,-1
 460 700 l 1,3,-1
 362 0 l 1,4,-1
 294 0 l 1,5,-1
 383 635 l 1,6,-1
 138 635 l 1,7,-1
 49 0 l 1,0,-1
EndSplineSet
EndChar

StartChar: summation
Encoding: 8721 8721 257
Width: 414
GlyphClass: 2
Flags: W
LayerCount: 2
Fore
SplineSet
307 0 m 1,0,-1
 -18 0 l 1,1,-1
 -10 61 l 1,2,-1
 213 339 l 1,3,-1
 80 640 l 1,4,-1
 88 700 l 1,5,-1
 395 700 l 1,6,-1
 386 635 l 1,7,-1
 159 635 l 1,8,-1
 288 343 l 1,9,-1
 67 65 l 1,10,-1
 316 65 l 1,11,-1
 307 0 l 1,0,-1
EndSplineSet
EndChar

StartChar: minus
Encoding: 8722 8722 258
Width: 513
GlyphClass: 2
Flags: W
LayerCount: 2
Fore
SplineSet
468 275 m 1,0,-1
 80 275 l 1,1,-1
 89 340 l 1,2,-1
 477 340 l 1,3,-1
 468 275 l 1,0,-1
EndSplineSet
EndChar

StartChar: radical
Encoding: 8730 8730 259
Width: 553
GlyphClass: 2
Flags: W
LayerCount: 2
Fore
SplineSet
174 0 m 1,0,-1
 129 435 l 1,1,-1
 34 435 l 1,2,-1
 43 500 l 1,3,-1
 191 500 l 1,4,-1
 236 75 l 1,5,-1
 531 800 l 1,6,-1
 605 800 l 1,7,-1
 269 0 l 1,8,-1
 174 0 l 1,0,-1
EndSplineSet
EndChar

StartChar: infinity
Encoding: 8734 8734 260
Width: 802
GlyphClass: 2
Flags: W
LayerCount: 2
Fore
SplineSet
634 457 m 0,0,1
 696 457 696 457 732.5 423 c 128,-1,2
 769 389 769 389 769 328 c 0,3,4
 769 244 769 244 719.5 188.5 c 128,-1,5
 670 133 670 133 584 133 c 128,-1,6
 498 133 498 133 411 254 c 1,7,8
 296 133 296 133 208 133 c 0,9,10
 146 133 146 133 109.5 167 c 128,-1,11
 73 201 73 201 73 262 c 0,12,13
 73 346 73 346 122.5 401.5 c 128,-1,14
 172 457 172 457 259 457 c 0,15,16
 308 457 308 457 348.5 425 c 128,-1,17
 389 393 389 393 431 338 c 1,18,19
 548 457 548 457 634 457 c 0,0,1
308.5 370 m 128,-1,21
 279 397 279 397 239 397 c 128,-1,22
 199 397 199 397 168.5 361.5 c 128,-1,23
 138 326 138 326 138 282 c 0,24,25
 138 196 138 196 220 196 c 0,26,27
 278 196 278 196 374 294 c 1,28,20
 338 343 338 343 308.5 370 c 128,-1,21
525 222 m 128,-1,30
 555 196 555 196 597 196 c 128,-1,31
 639 196 639 196 669.5 229 c 128,-1,32
 700 262 700 262 700 307 c 128,-1,33
 700 352 700 352 679 374.5 c 128,-1,34
 658 397 658 397 621 397 c 0,35,36
 565 397 565 397 462 294 c 1,37,29
 495 248 495 248 525 222 c 128,-1,30
EndSplineSet
EndChar

StartChar: integral
Encoding: 8747 8747 261
Width: 317
GlyphClass: 2
Flags: W
LayerCount: 2
Fore
SplineSet
240 773 m 128,-1,1
 279 804 279 804 318 804 c 128,-1,2
 357 804 357 804 387 793 c 1,3,-1
 374 744 l 1,4,-1
 330 744 l 2,5,6
 268 744 268 744 258 676 c 2,7,-1
 153 -77 l 2,8,9
 144 -139 144 -139 104.5 -170 c 128,-1,10
 65 -201 65 -201 27 -201 c 128,-1,11
 -11 -201 -11 -201 -41 -190 c 1,12,-1
 -28 -141 l 1,13,-1
 15 -141 l 2,14,15
 76 -141 76 -141 86 -73 c 2,16,-1
 193 680 l 2,17,0
 201 742 201 742 240 773 c 128,-1,1
EndSplineSet
EndChar

StartChar: approxequal
Encoding: 8776 8776 262
Width: 513
GlyphClass: 2
Flags: W
LayerCount: 2
Fore
SplineSet
366 336 m 0,0,1
 324 336 324 336 279.5 365.5 c 128,-1,2
 235 395 235 395 200.5 395 c 128,-1,3
 166 395 166 395 118 350 c 1,4,-1
 102 397 l 1,5,6
 124 425 124 425 154 443 c 128,-1,7
 184 461 184 461 221 461 c 128,-1,8
 258 461 258 461 302.5 431 c 128,-1,9
 347 401 347 401 381 401 c 128,-1,10
 415 401 415 401 465 447 c 1,11,-1
 482 418 l 1,12,13
 437 336 437 336 366 336 c 0,0,1
337 131 m 0,14,15
 295 131 295 131 250.5 160.5 c 128,-1,16
 206 190 206 190 171.5 190 c 128,-1,17
 137 190 137 190 89 145 c 1,18,-1
 74 192 l 1,19,20
 96 220 96 220 126 238 c 128,-1,21
 156 256 156 256 193 256 c 128,-1,22
 230 256 230 256 274 226 c 128,-1,23
 318 196 318 196 352 196 c 128,-1,24
 386 196 386 196 436 242 c 1,25,-1
 454 213 l 1,26,27
 408 131 408 131 337 131 c 0,14,15
EndSplineSet
EndChar

StartChar: notequal
Encoding: 8800 8800 263
Width: 361
GlyphClass: 2
Flags: W
LayerCount: 2
Fore
SplineSet
407 672 m 1,0,-1
 297 428 l 1,1,-1
 430 428 l 1,2,-1
 421 363 l 1,3,-1
 268 363 l 1,4,-1
 215 243 l 1,5,-1
 404 243 l 1,6,-1
 395 177 l 1,7,-1
 185 177 l 1,8,-1
 106 1 l 1,9,-1
 43 1 l 1,10,-1
 123 177 l 1,11,-1
 8 177 l 1,12,-1
 17 243 l 1,13,-1
 152 243 l 1,14,-1
 206 363 l 1,15,-1
 34 363 l 1,16,-1
 43 428 l 1,17,-1
 235 428 l 1,18,-1
 345 672 l 1,19,-1
 407 672 l 1,0,-1
EndSplineSet
EndChar

StartChar: lessequal
Encoding: 8804 8804 264
Width: 441
GlyphClass: 2
Flags: W
LayerCount: 2
Fore
SplineSet
354 118 m 1,0,-1
 34 342 l 1,1,-1
 42 399 l 1,2,-1
 425 624 l 1,3,-1
 414 544 l 1,4,-1
 103 371 l 1,5,-1
 365 196 l 1,6,-1
 354 118 l 1,0,-1
338 0 m 1,7,-1
 -13 0 l 1,8,-1
 -4 65 l 1,9,-1
 347 65 l 1,10,-1
 338 0 l 1,7,-1
EndSplineSet
EndChar

StartChar: greaterequal
Encoding: 8805 8805 265
Width: 441
GlyphClass: 2
Flags: W
LayerCount: 2
Fore
SplineSet
386 346 m 1,0,-1
 3 122 l 1,1,-1
 13 199 l 1,2,-1
 325 374 l 1,3,-1
 62 547 l 1,4,-1
 74 627 l 1,5,-1
 394 402 l 1,6,-1
 386 346 l 1,0,-1
338 0 m 1,7,-1
 -13 0 l 1,8,-1
 -4 65 l 1,9,-1
 347 65 l 1,10,-1
 338 0 l 1,7,-1
EndSplineSet
EndChar

StartChar: flecha01
Encoding: 9655 9655 266
Width: 598
GlyphClass: 2
Flags: W
LayerCount: 2
Fore
SplineSet
72 -47 m 1,0,-1
 166 623 l 1,1,-1
 600 288 l 1,2,-1
 72 -47 l 1,0,-1
159 96 m 1,3,-1
 475 285 l 1,4,-1
 214 488 l 1,5,-1
 159 96 l 1,3,-1
EndSplineSet
EndChar

StartChar: lozenge
Encoding: 9674 9674 267
Width: 489
GlyphClass: 2
Flags: W
LayerCount: 2
Fore
SplineSet
477 352 m 1,0,-1
 246 -1 l 1,1,-1
 191 -1 l 1,2,-1
 60 350 l 1,3,-1
 291 700 l 1,4,-1
 346 700 l 1,5,-1
 477 352 l 1,0,-1
394 350 m 1,6,-1
 306 617 l 1,7,-1
 143 352 l 1,8,-1
 232 85 l 1,9,-1
 394 350 l 1,6,-1
EndSplineSet
EndChar

StartChar: graveMAY
Encoding: 57348 57348 272
Width: 394
GlyphClass: 2
Flags: W
LayerCount: 2
Fore
SplineSet
273 701 m 1,0,-1
 218 701 l 1,1,-1
 148 825 l 1,2,-1
 224 825 l 1,3,-1
 273 701 l 1,0,-1
EndSplineSet
EndChar

StartChar: acuteMAY
Encoding: 57349 57349 273
Width: 394
GlyphClass: 2
Flags: W
LayerCount: 2
Fore
SplineSet
209 701 m 1,0,-1
 294 825 l 1,1,-1
 370 825 l 1,2,-1
 264 701 l 1,3,-1
 209 701 l 1,0,-1
EndSplineSet
EndChar

StartChar: flecha02
Encoding: 57350 57350 274
Width: 908
GlyphClass: 2
Flags: W
LayerCount: 2
Fore
SplineSet
72 -47 m 1,0,-1
 166 623 l 1,1,-1
 924 280 l 1,2,-1
 72 -47 l 1,0,-1
152 58 m 1,3,-1
 748 287 l 1,4,-1
 216 510 l 1,5,-1
 152 58 l 1,3,-1
EndSplineSet
EndChar

StartChar: "C+AJIA-rculo0" 
Encoding: 57351 57351 275
Width: 567
GlyphClass: 2
Flags: W
LayerCount: 2
Fore
SplineSet
247 159 m 1,0,-1
 286 436 l 1,1,-1
 349 436 l 1,2,-1
 310 159 l 1,3,-1
 247 159 l 1,0,-1
255 -5 m 0,4,5
 152 -5 152 -5 101 67.5 c 128,-1,6
 50 140 50 140 50 261 c 0,7,8
 50 433 50 433 122 566 c 0,9,10
 158 631 158 631 218.5 670.5 c 128,-1,11
 279 710 279 710 356 710 c 0,12,13
 460 710 460 710 511.5 638 c 128,-1,14
 563 566 563 566 563 445 c 0,15,16
 563 272 563 272 490 140 c 0,17,18
 453 75 453 75 392.5 35 c 128,-1,19
 332 -5 332 -5 255 -5 c 0,4,5
458 583.5 m 128,-1,21
 421 645 421 645 347 645 c 128,-1,22
 273 645 273 645 219 583 c 128,-1,23
 165 521 165 521 142 439.5 c 128,-1,24
 119 358 119 358 119 268 c 128,-1,25
 119 178 119 178 155 119.5 c 128,-1,26
 191 61 191 61 263 61 c 128,-1,27
 335 61 335 61 389.5 119 c 128,-1,28
 444 177 444 177 469.5 259 c 128,-1,29
 495 341 495 341 495 431.5 c 128,-1,20
 495 522 495 522 458 583.5 c 128,-1,21
369 565 m 1,30,-1
 357 476 l 1,31,-1
 290 476 l 1,32,-1
 302 565 l 1,33,-1
 369 565 l 1,30,-1
EndSplineSet
EndChar

StartChar: a.salt
Encoding: 57352 57352 276
Width: 464
GlyphClass: 2
Flags: W
LayerCount: 2
Fore
SplineSet
337 299 m 1,0,1
 343 340 343 340 343 377 c 128,-1,2
 343 414 343 414 322.5 429.5 c 128,-1,3
 302 445 302 445 238 445 c 128,-1,4
 174 445 174 445 121 424 c 1,5,-1
 117 482 l 1,6,7
 196 510 196 510 277 510 c 0,8,9
 414 510 414 510 414 378 c 0,10,11
 414 358 414 358 411 334 c 2,12,-1
 364 0 l 1,13,-1
 325 0 l 1,14,-1
 309 59 l 1,15,16
 263 21 263 21 231 7.5 c 128,-1,17
 199 -6 199 -6 151 -6 c 128,-1,18
 103 -6 103 -6 74 26 c 128,-1,19
 45 58 45 58 45 114 c 0,20,21
 45 293 45 293 300 299 c 1,22,-1
 337 299 l 1,0,1
288 236 m 2,23,24
 165 236 165 236 130 190 c 1,25,26
 114 167 114 167 114 132.5 c 128,-1,27
 114 98 114 98 129.5 77.5 c 128,-1,28
 145 57 145 57 175.5 57 c 128,-1,29
 206 57 206 57 237 73.5 c 128,-1,30
 268 90 268 90 314 131 c 1,31,-1
 329 236 l 1,32,-1
 288 236 l 2,23,24
EndSplineSet
EndChar

StartChar: agrave.salt
Encoding: 57353 57353 277
Width: 464
GlyphClass: 2
Flags: W
LayerCount: 2
Fore
SplineSet
337 299 m 1,0,1
 343 340 343 340 343 377 c 128,-1,2
 343 414 343 414 322.5 429.5 c 128,-1,3
 302 445 302 445 238 445 c 128,-1,4
 174 445 174 445 121 424 c 1,5,-1
 117 482 l 1,6,7
 196 510 196 510 277 510 c 0,8,9
 414 510 414 510 414 378 c 0,10,11
 414 358 414 358 411 334 c 2,12,-1
 364 0 l 1,13,-1
 325 0 l 1,14,-1
 309 59 l 1,15,16
 263 21 263 21 231 7.5 c 128,-1,17
 199 -6 199 -6 151 -6 c 128,-1,18
 103 -6 103 -6 74 26 c 128,-1,19
 45 58 45 58 45 114 c 0,20,21
 45 293 45 293 300 299 c 1,22,-1
 337 299 l 1,0,1
288 236 m 2,23,24
 165 236 165 236 130 190 c 1,25,26
 114 167 114 167 114 132.5 c 128,-1,27
 114 98 114 98 129.5 77.5 c 128,-1,28
 145 57 145 57 175.5 57 c 128,-1,29
 206 57 206 57 237 73.5 c 128,-1,30
 268 90 268 90 314 131 c 1,31,-1
 329 236 l 1,32,-1
 288 236 l 2,23,24
343 592 m 1,33,-1
 287 571 l 1,34,-1
 188 703 l 1,35,-1
 261 733 l 1,36,-1
 343 592 l 1,33,-1
EndSplineSet
EndChar

StartChar: aacute.salt
Encoding: 57354 57354 278
Width: 515
GlyphClass: 2
Flags: W
LayerCount: 2
Fore
SplineSet
330 571 m 1,0,-1
 280 592 l 1,1,-1
 402 733 l 1,2,-1
 465 703 l 1,3,-1
 330 571 l 1,0,-1
337 299 m 1,4,5
 343 340 343 340 343 377 c 128,-1,6
 343 414 343 414 322.5 429.5 c 128,-1,7
 302 445 302 445 238 445 c 128,-1,8
 174 445 174 445 121 424 c 1,9,-1
 117 482 l 1,10,11
 196 510 196 510 277 510 c 0,12,13
 414 510 414 510 414 378 c 0,14,15
 414 358 414 358 411 334 c 2,16,-1
 364 0 l 1,17,-1
 325 0 l 1,18,-1
 309 59 l 1,19,20
 263 21 263 21 231 7.5 c 128,-1,21
 199 -6 199 -6 151 -6 c 128,-1,22
 103 -6 103 -6 74 26 c 128,-1,23
 45 58 45 58 45 114 c 0,24,25
 45 293 45 293 300 299 c 1,26,-1
 337 299 l 1,4,5
288 236 m 2,27,28
 165 236 165 236 130 190 c 1,29,30
 114 167 114 167 114 132.5 c 128,-1,31
 114 98 114 98 129.5 77.5 c 128,-1,32
 145 57 145 57 175.5 57 c 128,-1,33
 206 57 206 57 237 73.5 c 128,-1,34
 268 90 268 90 314 131 c 1,35,-1
 329 236 l 1,36,-1
 288 236 l 2,27,28
EndSplineSet
EndChar

StartChar: acircumflex.salt
Encoding: 57355 57355 279
Width: 481
GlyphClass: 2
Flags: W
LayerCount: 2
Fore
SplineSet
280 712 m 1,0,-1
 323 712 l 1,1,-1
 431 612 l 1,2,-1
 410 583 l 1,3,-1
 293 658 l 1,4,-1
 155 583 l 1,5,-1
 142 612 l 1,6,-1
 280 712 l 1,0,-1
337 299 m 1,7,8
 343 340 343 340 343 377 c 128,-1,9
 343 414 343 414 322.5 429.5 c 128,-1,10
 302 445 302 445 238 445 c 128,-1,11
 174 445 174 445 121 424 c 1,12,-1
 117 482 l 1,13,14
 196 510 196 510 277 510 c 0,15,16
 414 510 414 510 414 378 c 0,17,18
 414 358 414 358 411 334 c 2,19,-1
 364 0 l 1,20,-1
 325 0 l 1,21,-1
 309 59 l 1,22,23
 263 21 263 21 231 7.5 c 128,-1,24
 199 -6 199 -6 151 -6 c 128,-1,25
 103 -6 103 -6 74 26 c 128,-1,26
 45 58 45 58 45 114 c 0,27,28
 45 293 45 293 300 299 c 1,29,-1
 337 299 l 1,7,8
288 236 m 2,30,31
 165 236 165 236 130 190 c 1,32,33
 114 167 114 167 114 132.5 c 128,-1,34
 114 98 114 98 129.5 77.5 c 128,-1,35
 145 57 145 57 175.5 57 c 128,-1,36
 206 57 206 57 237 73.5 c 128,-1,37
 268 90 268 90 314 131 c 1,38,-1
 329 236 l 1,39,-1
 288 236 l 2,30,31
EndSplineSet
EndChar

StartChar: atilde.salt
Encoding: 57356 57356 280
Width: 494
GlyphClass: 2
Flags: W
LayerCount: 2
Fore
SplineSet
349.5 580 m 128,-1,1
 332 580 332 580 284 607.5 c 128,-1,2
 236 635 236 635 224 635 c 128,-1,3
 212 635 212 635 197.5 625.5 c 128,-1,4
 183 616 183 616 166 597 c 1,5,-1
 141 630 l 1,6,7
 159 654 159 654 188 677 c 128,-1,8
 217 700 217 700 234.5 700 c 128,-1,9
 252 700 252 700 300 672.5 c 128,-1,10
 348 645 348 645 360 645 c 128,-1,11
 372 645 372 645 386.5 654.5 c 128,-1,12
 401 664 401 664 418 683 c 1,13,-1
 444 657 l 1,14,-1
 443 650 l 1,15,16
 425 626 425 626 396 603 c 128,-1,0
 367 580 367 580 349.5 580 c 128,-1,1
337 299 m 1,17,18
 343 340 343 340 343 377 c 128,-1,19
 343 414 343 414 322.5 429.5 c 128,-1,20
 302 445 302 445 238 445 c 128,-1,21
 174 445 174 445 121 424 c 1,22,-1
 117 482 l 1,23,24
 196 510 196 510 277 510 c 0,25,26
 414 510 414 510 414 378 c 0,27,28
 414 358 414 358 411 334 c 2,29,-1
 364 0 l 1,30,-1
 325 0 l 1,31,-1
 309 59 l 1,32,33
 263 21 263 21 231 7.5 c 128,-1,34
 199 -6 199 -6 151 -6 c 128,-1,35
 103 -6 103 -6 74 26 c 128,-1,36
 45 58 45 58 45 114 c 0,37,38
 45 293 45 293 300 299 c 1,39,-1
 337 299 l 1,17,18
288 236 m 2,40,41
 165 236 165 236 130 190 c 1,42,43
 114 167 114 167 114 132.5 c 128,-1,44
 114 98 114 98 129.5 77.5 c 128,-1,45
 145 57 145 57 175.5 57 c 128,-1,46
 206 57 206 57 237 73.5 c 128,-1,47
 268 90 268 90 314 131 c 1,48,-1
 329 236 l 1,49,-1
 288 236 l 2,40,41
EndSplineSet
EndChar

StartChar: adieresis.salt
Encoding: 57357 57357 281
Width: 464
GlyphClass: 2
Flags: W
LayerCount: 2
Fore
SplineSet
172 594 m 1,0,-1
 186 700 l 1,1,-1
 250 700 l 1,2,-1
 236 594 l 1,3,-1
 172 594 l 1,0,-1
334 594 m 1,4,-1
 348 700 l 1,5,-1
 411 700 l 1,6,-1
 397 594 l 1,7,-1
 334 594 l 1,4,-1
337 299 m 1,8,9
 343 340 343 340 343 377 c 128,-1,10
 343 414 343 414 322.5 429.5 c 128,-1,11
 302 445 302 445 238 445 c 128,-1,12
 174 445 174 445 121 424 c 1,13,-1
 117 482 l 1,14,15
 196 510 196 510 277 510 c 0,16,17
 414 510 414 510 414 378 c 0,18,19
 414 358 414 358 411 334 c 2,20,-1
 364 0 l 1,21,-1
 325 0 l 1,22,-1
 309 59 l 1,23,24
 263 21 263 21 231 7.5 c 128,-1,25
 199 -6 199 -6 151 -6 c 128,-1,26
 103 -6 103 -6 74 26 c 128,-1,27
 45 58 45 58 45 114 c 0,28,29
 45 293 45 293 300 299 c 1,30,-1
 337 299 l 1,8,9
288 236 m 2,31,32
 165 236 165 236 130 190 c 1,33,34
 114 167 114 167 114 132.5 c 128,-1,35
 114 98 114 98 129.5 77.5 c 128,-1,36
 145 57 145 57 175.5 57 c 128,-1,37
 206 57 206 57 237 73.5 c 128,-1,38
 268 90 268 90 314 131 c 1,39,-1
 329 236 l 1,40,-1
 288 236 l 2,31,32
EndSplineSet
EndChar

StartChar: aring.salt
Encoding: 57358 57358 282
Width: 464
GlyphClass: 2
Flags: W
LayerCount: 2
Fore
SplineSet
316 772 m 0,0,1
 404 772 404 772 404 686 c 0,2,3
 404 628 404 628 376 590 c 128,-1,4
 348 552 348 552 287 552 c 0,5,6
 199 552 199 552 199 638 c 0,7,8
 199 696 199 696 227 734 c 128,-1,9
 255 772 255 772 316 772 c 0,0,1
292 596 m 0,10,11
 323 596 323 596 338 621 c 128,-1,12
 353 646 353 646 353 682 c 0,13,14
 353 728 353 728 311 728 c 0,15,16
 280 728 280 728 265 703 c 128,-1,17
 250 678 250 678 250 642 c 0,18,19
 250 596 250 596 292 596 c 0,10,11
337 299 m 1,20,21
 343 340 343 340 343 377 c 128,-1,22
 343 414 343 414 322.5 429.5 c 128,-1,23
 302 445 302 445 238 445 c 128,-1,24
 174 445 174 445 121 424 c 1,25,-1
 117 482 l 1,26,27
 196 510 196 510 277 510 c 0,28,29
 414 510 414 510 414 378 c 0,30,31
 414 358 414 358 411 334 c 2,32,-1
 364 0 l 1,33,-1
 325 0 l 1,34,-1
 309 59 l 1,35,36
 263 21 263 21 231 7.5 c 128,-1,37
 199 -6 199 -6 151 -6 c 128,-1,38
 103 -6 103 -6 74 26 c 128,-1,39
 45 58 45 58 45 114 c 0,40,41
 45 293 45 293 300 299 c 1,42,-1
 337 299 l 1,20,21
288 236 m 2,43,44
 165 236 165 236 130 190 c 1,45,46
 114 167 114 167 114 132.5 c 128,-1,47
 114 98 114 98 129.5 77.5 c 128,-1,48
 145 57 145 57 175.5 57 c 128,-1,49
 206 57 206 57 237 73.5 c 128,-1,50
 268 90 268 90 314 131 c 1,51,-1
 329 236 l 1,52,-1
 288 236 l 2,43,44
EndSplineSet
EndChar

StartChar: e.salt
Encoding: 57359 57359 283
Width: 440
GlyphClass: 2
Flags: W
LayerCount: 2
Fore
SplineSet
423 346 m 0,0,1
 423 310 423 310 409 234 c 1,2,-1
 124 234 l 1,3,4
 120 200 120 200 120 188 c 0,5,6
 120 118 120 118 154 88 c 128,-1,7
 188 58 188 58 241 58 c 0,8,9
 276 58 276 58 295.5 64 c 128,-1,10
 315 70 315 70 320.5 71.5 c 128,-1,11
 326 73 326 73 343.5 79 c 128,-1,12
 361 85 361 85 368 87 c 1,13,-1
 370 29 l 1,14,15
 275 -6 275 -6 225 -6 c 0,16,17
 145 -6 145 -6 98.5 40.5 c 128,-1,18
 52 87 52 87 52 184 c 0,19,20
 52 290 52 290 105 394 c 0,21,22
 131 445 131 445 176.5 477.5 c 128,-1,23
 222 510 222 510 285 510 c 128,-1,24
 348 510 348 510 385.5 466.5 c 128,-1,25
 423 423 423 423 423 346 c 0,0,1
358 341 m 0,26,27
 358 445 358 445 271 445 c 0,28,29
 213 445 213 445 180.5 402 c 128,-1,30
 148 359 148 359 137 291 c 1,31,-1
 354 291 l 1,32,33
 358 327 358 327 358 341 c 0,26,27
EndSplineSet
EndChar

StartChar: ae.salt
Encoding: 57360 57360 284
Width: 710
GlyphClass: 2
Flags: W
LayerCount: 2
Fore
SplineSet
693 346 m 0,0,1
 693 310 693 310 679 234 c 1,2,-1
 394 234 l 1,3,4
 390 200 390 200 390 188 c 0,5,6
 390 118 390 118 424 88 c 128,-1,7
 458 58 458 58 511 58 c 0,8,9
 546 58 546 58 565.5 64 c 128,-1,10
 585 70 585 70 590.5 71.5 c 128,-1,11
 596 73 596 73 613.5 79 c 128,-1,12
 631 85 631 85 638 87 c 1,13,-1
 640 29 l 1,14,15
 545 -6 545 -6 495 -6 c 0,16,17
 381 -6 381 -6 341 82 c 1,18,19
 256 -6 256 -6 159 -6 c 0,20,21
 103 -6 103 -6 74 26 c 128,-1,22
 45 58 45 58 45 114 c 0,23,24
 45 212 45 212 116 255.5 c 128,-1,25
 187 299 187 299 300 299 c 2,26,-1
 337 299 l 1,27,28
 343 340 343 340 343 377 c 128,-1,29
 343 414 343 414 322.5 429.5 c 128,-1,30
 302 445 302 445 238 445 c 128,-1,31
 174 445 174 445 121 424 c 1,32,-1
 117 482 l 1,33,34
 196 510 196 510 277 510 c 0,35,36
 377 510 377 510 404 438 c 1,37,38
 464 510 464 510 550 510 c 0,39,40
 618 510 618 510 655.5 466.5 c 128,-1,41
 693 423 693 423 693 346 c 0,0,1
288 236 m 2,42,43
 165 236 165 236 130 190 c 1,44,45
 114 167 114 167 114 132.5 c 128,-1,46
 114 98 114 98 129.5 77.5 c 128,-1,47
 145 57 145 57 175.5 57 c 128,-1,48
 206 57 206 57 237 73.5 c 128,-1,49
 268 90 268 90 314 131 c 1,50,-1
 329 236 l 1,51,-1
 288 236 l 2,42,43
628 341 m 0,52,53
 628 445 628 445 541 445 c 0,54,55
 483 445 483 445 450.5 402 c 128,-1,56
 418 359 418 359 407 291 c 1,57,-1
 624 291 l 1,58,59
 628 327 628 327 628 341 c 0,52,53
EndSplineSet
EndChar

StartChar: egrave.salt
Encoding: 57361 57361 285
Width: 440
GlyphClass: 2
Flags: W
LayerCount: 2
Fore
SplineSet
423 346 m 0,0,1
 423 310 423 310 409 234 c 1,2,-1
 124 234 l 1,3,4
 120 200 120 200 120 188 c 0,5,6
 120 118 120 118 154 88 c 128,-1,7
 188 58 188 58 241 58 c 0,8,9
 276 58 276 58 295.5 64 c 128,-1,10
 315 70 315 70 320.5 71.5 c 128,-1,11
 326 73 326 73 343.5 79 c 128,-1,12
 361 85 361 85 368 87 c 1,13,-1
 370 29 l 1,14,15
 275 -6 275 -6 225 -6 c 0,16,17
 145 -6 145 -6 98.5 40.5 c 128,-1,18
 52 87 52 87 52 184 c 0,19,20
 52 290 52 290 105 394 c 0,21,22
 131 445 131 445 176.5 477.5 c 128,-1,23
 222 510 222 510 285 510 c 128,-1,24
 348 510 348 510 385.5 466.5 c 128,-1,25
 423 423 423 423 423 346 c 0,0,1
358 341 m 0,26,27
 358 445 358 445 271 445 c 0,28,29
 213 445 213 445 180.5 402 c 128,-1,30
 148 359 148 359 137 291 c 1,31,-1
 354 291 l 1,32,33
 358 327 358 327 358 341 c 0,26,27
316 592 m 1,34,-1
 260 571 l 1,35,-1
 161 703 l 1,36,-1
 234 733 l 1,37,-1
 316 592 l 1,34,-1
EndSplineSet
EndChar

StartChar: eacute.salt
Encoding: 57362 57362 286
Width: 441
GlyphClass: 2
Flags: W
LayerCount: 2
Fore
SplineSet
423 346 m 0,0,1
 423 310 423 310 409 234 c 1,2,-1
 124 234 l 1,3,4
 120 200 120 200 120 188 c 0,5,6
 120 118 120 118 154 88 c 128,-1,7
 188 58 188 58 241 58 c 0,8,9
 276 58 276 58 295.5 64 c 128,-1,10
 315 70 315 70 320.5 71.5 c 128,-1,11
 326 73 326 73 343.5 79 c 128,-1,12
 361 85 361 85 368 87 c 1,13,-1
 370 29 l 1,14,15
 275 -6 275 -6 225 -6 c 0,16,17
 145 -6 145 -6 98.5 40.5 c 128,-1,18
 52 87 52 87 52 184 c 0,19,20
 52 290 52 290 105 394 c 0,21,22
 131 445 131 445 176.5 477.5 c 128,-1,23
 222 510 222 510 285 510 c 128,-1,24
 348 510 348 510 385.5 466.5 c 128,-1,25
 423 423 423 423 423 346 c 0,0,1
358 341 m 0,26,27
 358 445 358 445 271 445 c 0,28,29
 213 445 213 445 180.5 402 c 128,-1,30
 148 359 148 359 137 291 c 1,31,-1
 354 291 l 1,32,33
 358 327 358 327 358 341 c 0,26,27
289 571 m 1,34,-1
 239 592 l 1,35,-1
 361 733 l 1,36,-1
 424 703 l 1,37,-1
 289 571 l 1,34,-1
EndSplineSet
EndChar

StartChar: ecircumflex.salt
Encoding: 57363 57363 287
Width: 440
GlyphClass: 2
Flags: W
LayerCount: 2
Fore
SplineSet
423 346 m 0,0,1
 423 310 423 310 409 234 c 1,2,-1
 124 234 l 1,3,4
 120 200 120 200 120 188 c 0,5,6
 120 118 120 118 154 88 c 128,-1,7
 188 58 188 58 241 58 c 0,8,9
 276 58 276 58 295.5 64 c 128,-1,10
 315 70 315 70 320.5 71.5 c 128,-1,11
 326 73 326 73 343.5 79 c 128,-1,12
 361 85 361 85 368 87 c 1,13,-1
 370 29 l 1,14,15
 275 -6 275 -6 225 -6 c 0,16,17
 145 -6 145 -6 98.5 40.5 c 128,-1,18
 52 87 52 87 52 184 c 0,19,20
 52 290 52 290 105 394 c 0,21,22
 131 445 131 445 176.5 477.5 c 128,-1,23
 222 510 222 510 285 510 c 128,-1,24
 348 510 348 510 385.5 466.5 c 128,-1,25
 423 423 423 423 423 346 c 0,0,1
358 341 m 0,26,27
 358 445 358 445 271 445 c 0,28,29
 213 445 213 445 180.5 402 c 128,-1,30
 148 359 148 359 137 291 c 1,31,-1
 354 291 l 1,32,33
 358 327 358 327 358 341 c 0,26,27
280 712 m 1,34,-1
 323 712 l 1,35,-1
 431 612 l 1,36,-1
 410 583 l 1,37,-1
 293 658 l 1,38,-1
 155 583 l 1,39,-1
 142 612 l 1,40,-1
 280 712 l 1,34,-1
EndSplineSet
EndChar

StartChar: edieresis.salt
Encoding: 57364 57364 288
Width: 440
GlyphClass: 2
Flags: W
LayerCount: 2
Fore
SplineSet
423 346 m 0,0,1
 423 310 423 310 409 234 c 1,2,-1
 124 234 l 1,3,4
 120 200 120 200 120 188 c 0,5,6
 120 118 120 118 154 88 c 128,-1,7
 188 58 188 58 241 58 c 0,8,9
 276 58 276 58 295.5 64 c 128,-1,10
 315 70 315 70 320.5 71.5 c 128,-1,11
 326 73 326 73 343.5 79 c 128,-1,12
 361 85 361 85 368 87 c 1,13,-1
 370 29 l 1,14,15
 275 -6 275 -6 225 -6 c 0,16,17
 145 -6 145 -6 98.5 40.5 c 128,-1,18
 52 87 52 87 52 184 c 0,19,20
 52 290 52 290 105 394 c 0,21,22
 131 445 131 445 176.5 477.5 c 128,-1,23
 222 510 222 510 285 510 c 128,-1,24
 348 510 348 510 385.5 466.5 c 128,-1,25
 423 423 423 423 423 346 c 0,0,1
358 341 m 0,26,27
 358 445 358 445 271 445 c 0,28,29
 213 445 213 445 180.5 402 c 128,-1,30
 148 359 148 359 137 291 c 1,31,-1
 354 291 l 1,32,33
 358 327 358 327 358 341 c 0,26,27
170 595 m 1,34,-1
 184 701 l 1,35,-1
 248 701 l 1,36,-1
 234 595 l 1,37,-1
 170 595 l 1,34,-1
332 595 m 1,38,-1
 346 701 l 1,39,-1
 409 701 l 1,40,-1
 395 595 l 1,41,-1
 332 595 l 1,38,-1
EndSplineSet
EndChar

StartChar: fi
Encoding: 64257 64257 289
Width: 467
GlyphClass: 2
Flags: W
LayerCount: 2
Fore
SplineSet
181.5 683.5 m 128,-1,1
 219 710 219 710 258 710 c 128,-1,2
 297 710 297 710 333 697 c 1,3,-1
 315 643 l 1,4,5
 285 649 285 649 272 649 c 0,6,7
 209 649 209 649 200 582 c 2,8,-1
 189 500 l 1,9,-1
 430 500 l 1,10,-1
 360 0 l 1,11,-1
 292 0 l 1,12,-1
 353 439 l 1,13,-1
 180 439 l 1,14,-1
 119 0 l 1,15,-1
 51 0 l 1,16,-1
 112 440 l 1,17,-1
 43 440 l 1,18,-1
 52 500 l 1,19,-1
 122 500 l 1,20,-1
 135 596 l 2,21,0
 144 657 144 657 181.5 683.5 c 128,-1,1
458 699 m 1,22,-1
 445 610 l 1,23,-1
 377 610 l 1,24,-1
 390 699 l 1,25,-1
 458 699 l 1,22,-1
EndSplineSet
EndChar

StartChar: fl
Encoding: 64258 64258 290
Width: 410
GlyphClass: 2
Flags: W
LayerCount: 2
Fore
SplineSet
271 649 m 0,0,1
 208 649 208 649 199 582 c 2,2,-1
 188 500 l 1,3,-1
 279 500 l 1,4,-1
 270 440 l 1,5,-1
 179 440 l 1,6,-1
 118 0 l 1,7,-1
 50 0 l 1,8,-1
 111 440 l 1,9,-1
 42 440 l 1,10,-1
 51 500 l 1,11,-1
 121 500 l 1,12,-1
 134 596 l 2,13,14
 143 657 143 657 180.5 683.5 c 128,-1,15
 218 710 218 710 266 710 c 0,16,17
 286 710 286 710 334 700 c 1,18,-1
 402 711 l 1,19,-1
 303 0 l 1,20,-1
 236 0 l 1,21,-1
 326 640 l 1,22,23
 286 649 286 649 271 649 c 0,0,1
EndSplineSet
EndChar
